<?xml version="1.0" encoding="utf-8"?>
<!-- Generator: Adobe Illustrator 16.0.0, SVG Export Plug-In . SVG Version: 6.00 Build 0)  -->
<!DOCTYPE svg PUBLIC "-//W3C//DTD SVG 1.1//EN" "http://www.w3.org/Graphics/SVG/1.1/DTD/svg11.dtd">
<svg version="1.1" id="Layer_1" xmlns="http://www.w3.org/2000/svg" xmlns:xlink="http://www.w3.org/1999/xlink" x="0px" y="0px"
	 width="595.279px" height="584.971px" viewBox="0 0 595.279 584.971" enable-background="new 0 0 595.279 584.971"
	 xml:space="preserve">
<g>
	<path d="M527.019,394.564l-134.093-64.714l0.004-0.092v-29.937c3.067-5.454,5.706-11.141,7.883-17.006l1.237-9.938
		c4.795-5.433,34.329-42.131,19.292-106.273c-10.647-45.439-50.567-62.864-87.111-64.463V91.779c-0.033-4.03-3.323-7.271-7.354-7.24
		c-3.984,0.031-7.207,3.254-7.24,7.24v401.413c0.033,4.028,3.327,7.271,7.354,7.24c3.986-0.031,7.207-3.256,7.24-7.24v-98.267
		c14.866-1.608,28.741-8.228,39.344-18.772c8.614-8.531,14.674-19.304,17.487-31.101l125.469,60.553v83.818
		c0.032,4.033,3.326,7.271,7.354,7.239c3.983-0.028,7.207-3.251,7.238-7.239v-88.348
		C531.117,398.295,529.521,395.765,527.019,394.564z M378.336,329.759c0.033,13.588-5.402,26.617-15.083,36.152
		c-7.863,7.809-18.047,12.856-29.022,14.384v-34.706c17.293-2.482,33.029-11.35,44.105-24.859V329.759z M386.767,278.763
		c-2.216,5.824-19.008,46.863-52.536,52.22V182.352c13.506-2.658,26.58-7.153,38.869-13.361
		c22.088,17.131,12.414,57.595,12.313,58.01c-0.196,0.786-0.262,1.596-0.185,2.403l3.205,35.026L386.767,278.763z"/>
	<path d="M465.457,455.412c3.999,0.027,7.264-3.189,7.296-7.189c0.031-4-3.187-7.265-7.188-7.296c-0.036,0-0.07,0-0.107,0h-51.075
		c-4-0.031-7.265,3.187-7.298,7.189c-0.031,3.996,3.188,7.265,7.19,7.296c0.035,0,0.07,0,0.107,0H465.457z"/>
	<path d="M100.637,362.713h88.287l-12.148-12.149l-0.098-0.098c-2.618-2.634-2.606-6.894,0.029-9.513
		c1.262-1.251,2.965-1.954,4.742-1.954h1.75c1.827-0.002,3.58,0.726,4.868,2.023c12.382,12.503,78.454,78.636,78.454,78.636
		c2.094,2.078,5.22,2.711,7.956,1.608c2.726-1.134,4.496-3.8,4.487-6.75v-76.249c0-4.028,3.265-7.296,7.296-7.296
		c4.028,0,7.296,3.268,7.296,7.296v14.374c7.262-6.758,11.384-16.236,11.381-26.155V196.172
		c-0.095-20.068-16.414-36.275-36.481-36.226H100.637c-20.067-0.049-36.388,16.158-36.481,36.226v130.314
		C64.25,346.557,80.57,362.76,100.637,362.713z M126.175,199.784h116.743c3.999-0.034,7.27,3.183,7.303,7.183
		c0.033,3.998-3.183,7.267-7.183,7.301c-0.04,0-0.08,0-0.12,0H126.175c-3.999,0.033-7.27-3.181-7.302-7.181
		c-0.034-4,3.183-7.27,7.182-7.302C126.095,199.784,126.133,199.784,126.175,199.784z M126.175,235.974h116.743
		c3.999,0,7.24,3.242,7.24,7.241c0,4-3.241,7.243-7.24,7.243l0,0H126.175c-3.999,0-7.241-3.243-7.241-7.243
		C118.934,239.216,122.176,235.974,126.175,235.974z M126.175,272.202h116.743c3.999,0,7.24,3.242,7.24,7.238
		c0,4.003-3.241,7.246-7.24,7.246l0,0H126.175c-3.999,0-7.241-3.243-7.241-7.246C118.934,275.444,122.176,272.202,126.175,272.202z
		 M126.175,308.393h116.743c3.999,0,7.24,3.242,7.24,7.238c0,4.003-3.241,7.243-7.24,7.243l0,0H126.175
		c-3.999,0-7.241-3.24-7.241-7.243C118.934,311.635,122.176,308.393,126.175,308.393z"/>
</g>
</svg>
