<svg xmlns="http://www.w3.org/2000/svg" xmlns:xlink="http://www.w3.org/1999/xlink" width="1920" height="300" viewBox="0 0 1920 300"><defs><clipPath id="a"><rect width="1920" height="298" fill="#fff"/></clipPath><clipPath id="b"><rect width="1938" height="298" fill="#fff"/></clipPath><clipPath id="c"><rect width="1382.282" height="1954.941" transform="translate(0 1382.282) rotate(-90)" fill="none" stroke="rgba(0,0,0,0)" stroke-width="1"/></clipPath><linearGradient id="d" x1="-0.307" y1="-0.071" x2="0.92" y2="0.797" gradientUnits="objectBoundingBox"><stop offset="0" stop-color="#fff807"/><stop offset="1" stop-color="#00a0fd"/></linearGradient><linearGradient id="e" x1="0.5" x2="0.5" y2="1" gradientUnits="objectBoundingBox"><stop offset="0" stop-color="#fff" stop-opacity="0"/><stop offset="0.477" stop-color="#fff" stop-opacity="0.165"/><stop offset="1" stop-color="#fff"/></linearGradient></defs><g clip-path="url(#a)"><g clip-path="url(#b)"><g transform="translate(-13 3)"><g transform="translate(-4 -3)" clip-path="url(#c)"><rect width="1382.282" height="1954.941" transform="translate(0 1382.282) rotate(-90)" fill="url(#d)"/><g transform="translate(-1045.285 1832.447) rotate(-90)"><g transform="translate(0.001 0)" opacity="0.6" style="mix-blend-mode:overlay;isolation:isolate"><rect width="1642.158" height="1642.158" transform="matrix(0.707, -0.707, 0.707, 0.707, 0, 1161.18)" stroke-dasharray="0 5" stroke="#fff" stroke-linecap="round" stroke-linejoin="round" stroke-width="2" fill="none"/><rect width="1573.165" height="1573.165" transform="translate(48.784 1161.185) rotate(-45)" stroke-dasharray="0 5" stroke="#fff" stroke-linecap="round" stroke-linejoin="round" stroke-width="1.883" fill="none"/><rect width="1504.172" height="1504.172" transform="translate(97.571 1161.18) rotate(-45)" stroke-dasharray="0 5" stroke="#fff" stroke-linecap="round" stroke-linejoin="round" stroke-width="1.767" fill="none"/><rect width="1435.179" height="1435.179" transform="matrix(0.707, -0.707, 0.707, 0.707, 146.355, 1161.185)" stroke-dasharray="0 5" stroke="#fff" stroke-linecap="round" stroke-linejoin="round" stroke-width="1.65" fill="none"/><rect width="1366.186" height="1366.186" transform="translate(195.142 1161.179) rotate(-45)" stroke-dasharray="0 5" stroke="#fff" stroke-linecap="round" stroke-linejoin="round" stroke-width="1.533" fill="none"/><rect width="1297.193" height="1297.193" transform="translate(243.926 1161.185) rotate(-45)" stroke-dasharray="0 5" stroke="#fff" stroke-linecap="round" stroke-linejoin="round" stroke-width="1.417" fill="none"/><rect width="1228.2" height="1228.2" transform="translate(292.713 1161.179) rotate(-45)" stroke-dasharray="0 5" stroke="#fff" stroke-linecap="round" stroke-linejoin="round" stroke-width="1.3" fill="none"/><rect width="1159.207" height="1159.207" transform="matrix(0.707, -0.707, 0.707, 0.707, 341.498, 1161.184)" stroke-dasharray="0 5" stroke="#fff" stroke-linecap="round" stroke-linejoin="round" stroke-width="1.183" fill="none"/><rect width="1090.215" height="1090.215" transform="translate(390.283 1161.182) rotate(-45)" stroke-dasharray="0 5" stroke="#fff" stroke-linecap="round" stroke-linejoin="round" stroke-width="1.067" fill="none"/><rect width="1021.22" height="1021.22" transform="translate(439.069 1161.184) rotate(-45)" stroke-dasharray="0 5" stroke="#fff" stroke-linecap="round" stroke-linejoin="round" stroke-width="0.95" fill="none"/><rect width="952.229" height="952.229" transform="translate(487.854 1161.182) rotate(-45)" stroke-dasharray="0 5" stroke="#fff" stroke-linecap="round" stroke-linejoin="round" stroke-width="0.833" fill="none"/><rect width="883.234" height="883.234" transform="matrix(0.707, -0.707, 0.707, 0.707, 536.64, 1161.184)" stroke-dasharray="0 5" stroke="#fff" stroke-linecap="round" stroke-linejoin="round" stroke-width="0.717" fill="none"/><rect width="814.243" height="814.243" transform="translate(585.425 1161.182) rotate(-45)" stroke-dasharray="0 5" stroke="#fff" stroke-linecap="round" stroke-linejoin="round" stroke-width="0.6" fill="none"/><rect width="745.248" height="745.248" transform="translate(634.211 1161.184) rotate(-45)" stroke-dasharray="0 5" stroke="#fff" stroke-linecap="round" stroke-linejoin="round" stroke-width="0.483" fill="none"/><rect width="676.256" height="676.256" transform="matrix(0.707, -0.707, 0.707, 0.707, 682.996, 1161.183)" stroke-dasharray="0 5" stroke="#fff" stroke-linecap="round" stroke-linejoin="round" stroke-width="0.367" fill="none"/><rect width="607.263" height="607.263" transform="translate(731.782 1161.182) rotate(-45)" stroke-dasharray="0 5" stroke="#fff" stroke-linecap="round" stroke-linejoin="round" stroke-width="0.25" fill="none"/></g><g transform="translate(0 658.43)" opacity="0.26" style="mix-blend-mode:overlay;isolation:isolate"><rect width="1642.16" height="1642.16" transform="translate(0 1161.183) rotate(-45)" stroke-dasharray="0 5" stroke="#fff" stroke-linecap="round" stroke-linejoin="round" stroke-width="2" fill="none"/><rect width="1573.167" height="1573.167" transform="translate(48.784 1161.189) rotate(-45)" stroke-dasharray="0 5" stroke="#fff" stroke-linecap="round" stroke-linejoin="round" stroke-width="1.883" fill="none"/><rect width="1504.174" height="1504.174" transform="translate(97.571 1161.183) rotate(-45)" stroke-dasharray="0 5" stroke="#fff" stroke-linecap="round" stroke-linejoin="round" stroke-width="1.767" fill="none"/><rect width="1435.178" height="1435.178" transform="translate(146.358 1161.182) rotate(-45)" stroke-dasharray="0 5" stroke="#fff" stroke-linecap="round" stroke-linejoin="round" stroke-width="1.65" fill="none"/><rect width="1366.188" height="1366.188" transform="translate(195.142 1161.183) rotate(-45)" stroke-dasharray="0 5" stroke="#fff" stroke-linecap="round" stroke-linejoin="round" stroke-width="1.533" fill="none"/><rect width="1297.195" height="1297.195" transform="matrix(0.707, -0.707, 0.707, 0.707, 243.926, 1161.188)" stroke-dasharray="0 5" stroke="#fff" stroke-linecap="round" stroke-linejoin="round" stroke-width="1.417" fill="none"/><rect width="1228.201" height="1228.201" transform="translate(292.713 1161.183) rotate(-45)" stroke-dasharray="0 5" stroke="#fff" stroke-linecap="round" stroke-linejoin="round" stroke-width="1.3" fill="none"/><rect width="1159.208" height="1159.208" transform="matrix(0.707, -0.707, 0.707, 0.707, 341.498, 1161.188)" stroke-dasharray="0 5" stroke="#fff" stroke-linecap="round" stroke-linejoin="round" stroke-width="1.183" fill="none"/><rect width="1090.215" height="1090.215" transform="translate(390.284 1161.183) rotate(-45)" stroke-dasharray="0 5" stroke="#fff" stroke-linecap="round" stroke-linejoin="round" stroke-width="1.067" fill="none"/><rect width="1021.219" height="1021.219" transform="translate(439.07 1161.182) rotate(-45)" stroke-dasharray="0 5" stroke="#fff" stroke-linecap="round" stroke-linejoin="round" stroke-width="0.95" fill="none"/><rect width="952.229" height="952.229" transform="translate(487.855 1161.183) rotate(-45)" stroke-dasharray="0 5" stroke="#fff" stroke-linecap="round" stroke-linejoin="round" stroke-width="0.833" fill="none"/><rect width="883.233" height="883.233" transform="translate(536.641 1161.182) rotate(-45)" stroke-dasharray="0 5" stroke="#fff" stroke-linecap="round" stroke-linejoin="round" stroke-width="0.717" fill="none"/><rect width="814.243" height="814.243" transform="matrix(0.707, -0.707, 0.707, 0.707, 585.426, 1161.183)" stroke-dasharray="0 5" stroke="#fff" stroke-linecap="round" stroke-linejoin="round" stroke-width="0.6" fill="none"/><rect width="745.247" height="745.247" transform="matrix(0.707, -0.707, 0.707, 0.707, 634.212, 1161.182)" stroke-dasharray="0 5" stroke="#fff" stroke-linecap="round" stroke-linejoin="round" stroke-width="0.483" fill="none"/><rect width="676.256" height="676.256" transform="matrix(0.707, -0.707, 0.707, 0.707, 682.997, 1161.183)" stroke-dasharray="0 5" stroke="#fff" stroke-linecap="round" stroke-linejoin="round" stroke-width="0.367" fill="none"/><rect width="607.262" height="607.262" transform="translate(731.784 1161.18) rotate(-45)" stroke-dasharray="0 5" stroke="#fff" stroke-linecap="round" stroke-linejoin="round" stroke-width="0.25" fill="none"/></g></g></g></g></g></g><rect width="1920" height="300" fill="url(#e)"/></svg>