<?xml version="1.0" encoding="utf-8"?>
<!-- Generator: Adobe Illustrator 16.0.0, SVG Export Plug-In . SVG Version: 6.00 Build 0)  -->
<!DOCTYPE svg PUBLIC "-//W3C//DTD SVG 1.1//EN" "http://www.w3.org/Graphics/SVG/1.1/DTD/svg11.dtd">
<svg version="1.1" id="Layer_1" xmlns="http://www.w3.org/2000/svg" xmlns:xlink="http://www.w3.org/1999/xlink" x="0px" y="0px"
	 width="64px" height="64px" viewBox="0 0 64 64" enable-background="new 0 0 64 64" xml:space="preserve">
<g>
	<g>
		<polygon points="28.695,8.741 35.268,8.741 35.268,29.104 44.399,29.104 31.982,45.361 19.564,29.104 28.695,29.104 		"/>
		<g>
			<path d="M28.695,9.612c1.92,0,3.839,0,5.758,0c0.273,0,0.548,0,0.82,0c-0.291-0.291-0.582-0.581-0.872-0.872
				c0,0.674,0,1.344,0,2.019c0,1.628,0,3.251,0,4.879c0,1.959,0,3.914,0,5.875c0,1.692,0,3.385,0,5.078c0,0.826-0.03,1.652,0,2.478
				c0,0.012,0,0.024,0,0.035c0,0.471,0.401,0.873,0.872,0.873c2.664,0,5.333,0,7.998,0c0.377,0,0.756,0,1.133,0
				c-0.25-0.436-0.5-0.873-0.756-1.315c-0.413,0.542-0.819,1.077-1.232,1.618c-0.989,1.291-1.979,2.583-2.961,3.88
				c-1.191,1.564-2.39,3.129-3.582,4.694c-1.035,1.354-2.071,2.704-3.102,4.059c-0.5,0.657-1.045,1.297-1.511,1.979
				c-0.005,0.012-0.017,0.017-0.022,0.028c0.499,0,1.006,0,1.504,0c-0.412-0.54-0.819-1.075-1.232-1.616
				c-0.988-1.292-1.977-2.583-2.96-3.881c-1.193-1.563-2.39-3.128-3.583-4.693c-1.035-1.354-2.07-2.705-3.1-4.06
				c-0.501-0.657-0.972-1.355-1.513-1.978c-0.005-0.012-0.017-0.018-0.023-0.03c-0.25,0.436-0.5,0.873-0.756,1.315
				c2.664,0,5.333,0,7.998,0c0.378,0,0.757,0,1.134,0c0.472,0,0.873-0.402,0.873-0.873c0-0.675,0-1.344,0-2.019
				c0-1.628,0-3.251,0-4.879c0-1.961,0-3.915,0-5.875c0-1.693,0-3.385,0-5.078c0-0.825,0.03-1.651,0-2.477c0-0.012,0-0.023,0-0.035
				c0-0.454-0.401-0.896-0.873-0.873c-0.47,0.023-0.872,0.384-0.872,0.873c0,0.674,0,1.344,0,2.019c0,1.628,0,3.251,0,4.879
				c0,1.959,0,3.914,0,5.875c0,1.692,0,3.385,0,5.078c0,0.82-0.046,1.657,0,2.478c0,0.012,0,0.024,0,0.035
				c0.291-0.291,0.582-0.582,0.872-0.872c-2.663,0-5.332,0-7.998,0c-0.377,0-0.755,0-1.134,0c-0.6,0-1.169,0.768-0.756,1.314
				c0.413,0.541,0.82,1.076,1.234,1.616c0.988,1.292,1.976,2.584,2.96,3.881c1.193,1.563,2.39,3.128,3.583,4.692
				c1.035,1.355,2.07,2.705,3.101,4.061c0.505,0.657,1.005,1.32,1.512,1.979c0.005,0.011,0.018,0.017,0.022,0.028
				c0.425,0.553,1.083,0.553,1.507,0c0.411-0.541,0.819-1.076,1.232-1.617c0.989-1.291,1.977-2.583,2.96-3.88
				c1.192-1.563,2.392-3.13,3.583-4.693c1.035-1.355,2.071-2.705,3.101-4.06c0.499-0.659,1.052-1.292,1.512-1.979
				c0.006-0.011,0.018-0.017,0.023-0.028c0.419-0.546-0.151-1.314-0.756-1.314c-2.664,0-5.333,0-7.998,0c-0.377,0-0.756,0-1.133,0
				c0.29,0.291,0.581,0.582,0.871,0.872c0-0.675,0-1.344,0-2.019c0-1.628,0-3.251,0-4.879c0-1.961,0-3.915,0-5.875
				c0-1.693,0-3.385,0-5.078c0-0.825,0.03-1.651,0-2.477c0-0.012,0-0.023,0-0.035c0-0.471-0.401-0.873-0.871-0.873
				c-1.92,0-3.839,0-5.759,0c-0.274,0-0.547,0-0.82,0c-0.455,0-0.896,0.401-0.873,0.873C27.841,9.212,28.207,9.612,28.695,9.612z"/>
		</g>
	</g>
	<g>
		<g>
			<path d="M54.142,44.495c0,2.273,0,4.548,0,6.821c0,0.379,0.023,0.774-0.024,1.153c0.024-0.158,0.041-0.309,0.064-0.467
				c-0.027,0.182-0.075,0.356-0.145,0.53c0.058-0.14,0.117-0.278,0.174-0.42c-0.053,0.118-0.109,0.234-0.174,0.344
				c-0.11,0.169-0.21,0.157,0.093-0.105c-0.047,0.042-0.087,0.094-0.128,0.142c-0.018,0.016-0.135,0.133-0.139,0.127
				c-0.013-0.006,0.418-0.279,0.139-0.115c-0.122,0.075-0.238,0.139-0.373,0.197c0.141-0.059,0.279-0.117,0.421-0.176
				c-0.175,0.071-0.345,0.117-0.53,0.146c0.157-0.023,0.308-0.041,0.465-0.063c-0.465,0.057-0.953,0.022-1.418,0.022
				c-1.048,0-2.088,0-3.136,0c-1.559,0-3.118,0-4.677,0c-1.901,0-3.799,0-5.7,0c-2.095,0-4.187,0-6.282,0c-2.11,0-4.228,0-6.339,0
				c-1.971,0-3.937,0-5.909,0c-1.656,0-3.315,0-4.978,0c-1.182,0-2.362,0-3.537,0c-0.546,0-1.094,0-1.64,0
				c-0.129,0-0.25-0.006-0.379-0.022c0.157,0.022,0.31,0.04,0.466,0.063c-0.181-0.029-0.354-0.075-0.53-0.146
				c0.14,0.059,0.28,0.117,0.418,0.176c-0.116-0.053-0.232-0.112-0.343-0.176c-0.168-0.111-0.157-0.208,0.104,0.094
				c-0.04-0.047-0.092-0.087-0.139-0.127c-0.018-0.019-0.134-0.134-0.128-0.142c0.006-0.011,0.28,0.42,0.117,0.142
				c-0.076-0.123-0.141-0.238-0.198-0.372c0.057,0.138,0.116,0.278,0.174,0.417c-0.069-0.175-0.117-0.343-0.146-0.529
				c0.024,0.156,0.041,0.31,0.065,0.466c-0.041-0.319-0.024-0.651-0.024-0.972c0-0.604,0-1.209,0-1.809c0-1.402,0-2.804,0-4.205
				c0-0.325,0-0.658,0-0.982c0-0.913-0.803-1.786-1.745-1.744c-0.948,0.04-1.745,0.768-1.745,1.744c0,2.279,0,4.56,0,6.839
				c0,0.268-0.005,0.542,0,0.81c0.028,1.711,1.082,3.141,2.664,3.745c0.57,0.221,1.164,0.232,1.762,0.232c1.367,0,2.728,0,4.095,0
				c2.396,0,4.788,0,7.183,0c2.949,0,5.897,0,8.846,0c3.007,0,6.015,0,9.021,0c2.57,0,5.141,0,7.713,0c1.657,0,3.314,0,4.973,0
				c0.337,0,0.669,0,1.006,0c2.217-0.004,4.014-1.757,4.048-3.978c0.036-2.304,0-4.606,0-6.91c0-0.245,0-0.488,0-0.738
				c0-0.913-0.802-1.786-1.745-1.744C54.938,42.79,54.142,43.518,54.142,44.495L54.142,44.495z"/>
		</g>
	</g>
</g>
</svg>
