<svg xmlns="http://www.w3.org/2000/svg" xmlns:xlink="http://www.w3.org/1999/xlink" width="1920" height="1355.476" viewBox="0 0 1920 1355.476"><defs><linearGradient id="a" x1="0.073" y1="-0.026" x2="0.948" y2="1.052" gradientUnits="objectBoundingBox"><stop offset="0" stop-color="#ffa700"/><stop offset="1" stop-color="#e20065"/></linearGradient><clipPath id="b"><rect width="1355.476" height="1920" fill="none"/></clipPath></defs><rect width="1355.476" height="1920" transform="translate(1920) rotate(90)" fill="url(#a)"/><g transform="translate(1920) rotate(90)"><g clip-path="url(#b)"><g transform="translate(-609.517 -898.662)" opacity="0.5" style="mix-blend-mode:overlay;isolation:isolate"><path d="M907.716-43.873c521.925-.211,944.857,423.279,944.647,945.891s-423.486,946.445-945.411,946.656S-37.907,1425.4-37.7,902.783,385.79-43.662,907.716-43.873Z" transform="translate(0 605.859) rotate(-15.774)" fill="none" stroke="#fff" stroke-linecap="round" stroke-width="2" stroke-dasharray="0 5"/><path d="M882.2-26.891c504.57-.149,913.484,408.182,913.335,912.032s-409.3,912.422-913.873,912.571S-31.822,1389.529-31.674,885.679,377.63-26.742,882.2-26.891Z" transform="translate(74.992 1911.234) rotate(-78.78)" fill="none" stroke="#fff" stroke-linecap="round" stroke-width="1.933" stroke-dasharray="0 5"/><path d="M2117.568,1097.252c0,486.527-393.819,880.938-879.586,880.938s-879.569-394.41-879.569-880.938S752.2,216.323,1237.981,216.323,2117.568,610.733,2117.568,1097.252Z" transform="translate(-126.286 111.997)" fill="none" stroke="#fff" stroke-linecap="round" stroke-linejoin="round" stroke-width="1.865" stroke-dasharray="0 5"/><path d="M2055.6,1067.248c0,468.457-379.178,848.211-846.911,848.211-467.716,0-846.885-379.754-846.885-848.211s379.169-848.2,846.885-848.2C1676.423,219.045,2055.6,598.8,2055.6,1067.248Z" transform="translate(-100.387 132.81)" fill="none" stroke="#fff" stroke-linecap="round" stroke-linejoin="round" stroke-width="1.798" stroke-dasharray="0 5"/><path d="M1993.641,1037.245c0,450.377-364.535,815.476-814.226,815.476-449.674,0-814.218-365.1-814.218-815.476s364.544-815.477,814.218-815.477C1629.106,221.768,1993.641,586.867,1993.641,1037.245Z" transform="translate(-74.496 153.631)" fill="none" stroke="#fff" stroke-linecap="round" stroke-linejoin="round" stroke-width="1.731" stroke-dasharray="0 5"/><path d="M1931.674,1007.24c0,432.307-349.9,782.759-781.551,782.759-431.631,0-781.533-350.452-781.533-782.759s349.9-782.75,781.533-782.75C1581.771,224.49,1931.674,574.933,1931.674,1007.24Z" transform="translate(-48.597 174.445)" fill="none" stroke="#fff" stroke-linecap="round" stroke-linejoin="round" stroke-width="1.663" stroke-dasharray="0 5"/><ellipse cx="748.869" cy="750.027" rx="748.869" ry="750.027" transform="translate(349.277 422.471)" fill="none" stroke-dasharray="0 5" stroke-linecap="round" stroke-linejoin="round" stroke-width="1.596" stroke="#fff"/><path d="M671.544-40.918c396.05-.232,716.924,320.319,716.692,715.971s-321.482,716.58-717.533,716.813S-46.22,1071.546-45.988,675.894,275.494-40.686,671.544-40.918Z" transform="matrix(0.418, -0.908, 0.908, 0.418, 200.55, 1490.518)" fill="none" stroke="#fff" stroke-linecap="round" stroke-width="1.529" stroke-dasharray="0 5"/><path d="M677.541-5.959c378.08-.032,684.549,305.967,684.517,683.467S1055.5,1361.059,677.425,1361.091-7.124,1055.124-7.092,677.624,299.46-5.927,677.541-5.959Z" transform="matrix(0.055, -0.998, 0.998, 0.055, 377.681, 1793.442)" fill="none" stroke="#fff" stroke-linecap="round" stroke-width="1.462" stroke-dasharray="0 5"/><path d="M643.545-8.777C1003-8.817,1294.364,282.993,1294.325,643s-291.468,651.88-650.923,651.919S-7.418,1003.147-7.378,643.142,284.09-8.737,643.545-8.777Z" transform="translate(400.082 549.622) rotate(-4.109)" fill="none" stroke="#fff" stroke-linecap="round" stroke-width="1.394" stroke-dasharray="0 5"/><path d="M1621.9,857.229c0,341.927-276.772,619.119-618.18,619.119S385.552,1199.156,385.552,857.229,662.307,238.1,1003.716,238.1,1621.9,515.293,1621.9,857.229Z" transform="translate(80.873 278.518)" fill="none" stroke="#fff" stroke-linecap="round" stroke-linejoin="round" stroke-width="1.327" stroke-dasharray="0 5"/><ellipse cx="585.496" cy="586.401" rx="585.496" ry="586.401" transform="translate(495.705 540.151)" fill="none" stroke-dasharray="0 5" stroke-linecap="round" stroke-linejoin="round" stroke-width="1.26" stroke="#fff"/><path d="M536.867-14.326c305.771-.079,553.584,247.373,553.505,552.7s-248.019,552.907-553.791,552.985S-17,843.986-16.923,538.66,231.1-14.247,536.867-14.326Z" transform="translate(456.146 1555.092) rotate(-80.246)" fill="none" stroke="#fff" stroke-linecap="round" stroke-width="1.192" stroke-dasharray="0 5"/><path d="M502.412-21.043c287.292-.1,520.107,233.037,520.007,520.725S789.342,1020.668,502.05,1020.768-18.057,787.732-17.957,500.044,215.12-20.943,502.412-21.043Z" transform="matrix(0.973, -0.231, 0.231, 0.973, 470.215, 737.999)" fill="none" stroke="#fff" stroke-linecap="round" stroke-width="1.125" stroke-dasharray="0 5"/><path d="M462.561-28.78C731.839-28.923,950.015,189.5,949.872,459.079S731.321,947.312,462.043,947.455-25.411,729.176-25.268,459.6,193.284-28.637,462.561-28.78Z" transform="translate(471.63 843.195) rotate(-21.706)" fill="none" stroke="#fff" stroke-linecap="round" stroke-width="1.058" stroke-dasharray="0 5"/><path d="M1312.092,707.208c0,251.564-203.617,455.5-454.784,455.5s-454.793-203.932-454.793-455.5,203.617-455.5,454.793-455.5S1312.092,455.644,1312.092,707.208Z" transform="translate(210.343 382.592)" fill="none" stroke="#fff" stroke-linecap="round" stroke-linejoin="round" stroke-width="0.99" stroke-dasharray="0 5"/><ellipse cx="422.119" cy="422.772" rx="422.119" ry="422.772" transform="translate(642.145 657.839)" fill="none" stroke-dasharray="0 5" stroke-linecap="round" stroke-linejoin="round" stroke-width="0.923" stroke="#fff"/><path d="M380.436-8.165c215.409-.045,390,174.283,389.951,389.371s-174.7,389.488-390.112,389.533S-9.721,596.456-9.676,381.368,165.027-8.12,380.436-8.165Z" transform="matrix(0.135, -0.991, 0.991, 0.135, 631.604, 1396.656)" fill="none" stroke="#fff" stroke-linecap="round" stroke-width="0.856" stroke-dasharray="0 5"/><ellipse cx="356.768" cy="357.319" rx="356.768" ry="357.319" transform="translate(700.718 704.914)" fill="none" stroke-dasharray="0 5" stroke-linecap="round" stroke-linejoin="round" stroke-width="0.788" stroke="#fff"/><path d="M1064.271,587.192c0,179.273-145.111,324.591-324.09,324.591-179,0-324.1-145.319-324.1-324.591S561.185,262.6,740.181,262.6C919.16,262.6,1064.271,407.919,1064.271,587.192Z" transform="translate(313.915 465.853)" fill="none" stroke="#fff" stroke-linecap="round" stroke-linejoin="round" stroke-width="0.721" stroke-dasharray="0 5"/><path d="M1002.3,557.188c0,161.193-130.469,291.865-291.414,291.865S419.476,718.381,419.476,557.188,549.946,265.323,710.89,265.323,1002.3,395.995,1002.3,557.188Z" transform="translate(339.814 486.666)" fill="none" stroke="#fff" stroke-linecap="round" stroke-linejoin="round" stroke-width="0.654" stroke-dasharray="0 5"/><path d="M940.345,527.192c0,143.114-115.829,259.138-258.73,259.138S422.868,670.306,422.868,527.192,538.714,268.045,681.615,268.045,940.345,384.07,940.345,527.192Z" transform="translate(365.705 507.48)" fill="none" stroke="#fff" stroke-linecap="round" stroke-linejoin="round" stroke-width="0.587" stroke-dasharray="0 5"/><path d="M878.394,497.188c0,125.043-101.214,226.412-226.063,226.412S426.26,622.231,426.26,497.188,527.473,270.767,652.331,270.767,878.394,372.136,878.394,497.188Z" transform="translate(391.596 528.293)" fill="none" stroke="#fff" stroke-linecap="round" stroke-linejoin="round" stroke-width="0.519" stroke-dasharray="0 5"/><path d="M816.443,467.184c0,106.972-86.589,193.686-193.387,193.686-106.816,0-193.4-86.714-193.4-193.686s86.588-193.695,193.4-193.695C729.854,273.489,816.443,360.211,816.443,467.184Z" transform="translate(417.487 549.106)" fill="none" stroke="#fff" stroke-linecap="round" stroke-linejoin="round" stroke-width="0.452" stroke-dasharray="0 5"/><path d="M754.476,437.179c0,88.9-71.956,160.968-160.712,160.968S433.045,526.081,433.045,437.179s71.964-160.968,160.719-160.968S754.476,348.287,754.476,437.179Z" transform="translate(443.385 569.919)" fill="none" stroke="#fff" stroke-linecap="round" stroke-linejoin="round" stroke-width="0.385" stroke-dasharray="0 5"/><path d="M127.48-.679c70.717,0,128.042,57.41,128.039,128.237S198.186,255.8,127.469,255.805-.573,198.395-.57,127.569,56.763-.676,127.48-.679Z" transform="matrix(1, -0.028, 0.028, 1, 902.794, 873.939)" fill="none" stroke="#fff" stroke-linecap="round" stroke-width="0.317" stroke-dasharray="0 5"/><path d="M630.567,377.172A95.369,95.369,0,1,1,535.2,281.656,95.436,95.436,0,0,1,630.567,377.172Z" transform="translate(495.175 611.553)" fill="none" stroke="#fff" stroke-linecap="round" stroke-linejoin="round" stroke-width="0.25" stroke-dasharray="0 5"/></g><g transform="translate(136.826 977.307)" opacity="0.5" style="mix-blend-mode:overlay;isolation:isolate"><path d="M875.1-31.164c503.308-.173,911.179,407.134,911.006,909.747s-408.325,910.2-911.633,910.374S-36.705,1381.823-36.532,879.21,371.794-30.991,875.1-31.164Z" transform="matrix(0.229, -0.973, 0.973, 0.229, 0, 1793.635)" fill="none" stroke="#fff" stroke-linecap="round" stroke-width="2" stroke-dasharray="0 5"/><path d="M2195.214,1304.685c0,485.939-393.336,879.874-878.533,879.874-485.181,0-878.525-393.934-878.525-879.874,0-485.957,393.344-879.892,878.525-879.892C1801.879,424.793,2195.214,818.728,2195.214,1304.685Z" transform="translate(-263.945 -169.946)" fill="none" stroke="#fff" stroke-linecap="round" stroke-linejoin="round" stroke-width="1.933" stroke-dasharray="0 5"/><path d="M823.376-21.287c468.518-.117,848.231,379.042,848.114,846.875s-380.021,847.182-848.538,847.3S-25.279,1293.845-25.162,826.012,354.858-21.17,823.376-21.287Z" transform="translate(99.88 1802.495) rotate(-80.562)" fill="none" stroke="#fff" stroke-linecap="round" stroke-width="1.865" stroke-dasharray="0 5"/><path d="M2075.872,1246.9c0,451.121-365.148,816.843-815.6,816.843-450.433,0-815.582-365.722-815.582-816.843,0-451.138,365.148-816.86,815.582-816.86C1710.723,430.036,2075.872,795.757,2075.872,1246.9Z" transform="translate(-214.063 -129.856)" fill="none" stroke="#fff" stroke-linecap="round" stroke-linejoin="round" stroke-width="1.798" stroke-dasharray="0 5"/><path d="M2016.2,1217.994c0,433.725-351.052,785.327-784.115,785.327s-784.132-351.6-784.132-785.327,351.068-785.335,784.132-785.335S2016.2,784.26,2016.2,1217.994Z" transform="translate(-189.134 -109.808)" fill="none" stroke="#fff" stroke-linecap="round" stroke-linejoin="round" stroke-width="1.731" stroke-dasharray="0 5"/><path d="M713.3-45.356c415.771-.226,752.637,337.01,752.411,753.238s-337.459,753.831-753.23,754.057S-40.161,1124.929-39.934,708.7,297.525-45.13,713.3-45.356Z" transform="matrix(0.925, -0.381, 0.381, 0.925, 110.851, 715.735)" fill="none" stroke="#fff" stroke-linecap="round" stroke-width="1.663" stroke-dasharray="0 5"/><path d="M703.251-16.2c398.9-.089,722.2,322.735,722.114,721.046s-323.534,721.278-722.435,721.367-722.2-322.735-722.114-721.046S304.35-16.113,703.251-16.2Z" transform="translate(236.569 1683.439) rotate(-81.628)" fill="none" stroke="#fff" stroke-linecap="round" stroke-width="1.596" stroke-dasharray="0 5"/><path d="M637.5-53.286c381.216-.294,690.013,308.5,689.719,689.719s-309.569,690.491-690.785,690.785S-53.581,1018.714-53.286,637.5,256.283-52.992,637.5-53.286Z" transform="translate(132.356 1081.639) rotate(-45)" fill="none" stroke="#fff" stroke-linecap="round" stroke-width="1.529" stroke-dasharray="0 5"/><path d="M1777.534,1102.418c0,364.1-294.694,659.264-658.246,659.264s-658.263-295.168-658.263-659.264c0-364.113,294.721-659.273,658.263-659.273S1777.534,738.3,1777.534,1102.418Z" transform="translate(-89.387 -29.621)" fill="none" stroke="#fff" stroke-linecap="round" stroke-linejoin="round" stroke-width="1.462" stroke-dasharray="0 5"/><path d="M594.3-37.479c346.238-.187,626.769,280.655,626.582,627.276S939.858,1217.563,593.62,1217.75-33.149,937.1-32.963,590.473,248.057-37.292,594.3-37.479Z" transform="translate(254.198 740.85) rotate(-22.117)" fill="none" stroke="#fff" stroke-linecap="round" stroke-width="1.394" stroke-dasharray="0 5"/><path d="M1658.192,1044.629c0,329.286-266.534,596.232-595.312,596.232S467.56,1373.915,467.56,1044.629,734.094,448.388,1062.88,448.388,1658.192,715.334,1658.192,1044.629Z" transform="translate(-39.505 10.469)" fill="none" stroke="#fff" stroke-linecap="round" stroke-linejoin="round" stroke-width="1.327" stroke-dasharray="0 5"/><path d="M548.916-13.457c311.876-.074,564.641,252.32,564.568,563.738s-252.959,563.932-564.835,564.006S-15.993,861.966-15.92,550.549,237.039-13.383,548.916-13.457Z" transform="matrix(0.155, -0.988, 0.988, 0.155, 391.185, 1502.943)" fill="none" stroke="#fff" stroke-linecap="round" stroke-width="1.26" stroke-dasharray="0 5"/><path d="M1538.866,986.84c0,294.476-238.356,533.2-532.378,533.2-294.047,0-532.394-238.725-532.394-533.2s238.348-533.209,532.394-533.209C1300.51,453.631,1538.866,692.355,1538.866,986.84Z" transform="translate(10.368 50.559)" fill="none" stroke="#fff" stroke-linecap="round" stroke-linejoin="round" stroke-width="1.192" stroke-dasharray="0 5"/><path d="M1479.19,957.946c0,277.071-224.267,501.693-500.91,501.693S477.361,1235.016,477.361,957.946,701.637,456.252,978.28,456.252,1479.19,680.866,1479.19,957.946Z" transform="translate(35.305 70.599)" fill="none" stroke="#fff" stroke-linecap="round" stroke-linejoin="round" stroke-width="1.125" stroke-dasharray="0 5"/><path d="M1419.523,929.052c0,259.665-210.178,470.168-469.452,470.168-259.256,0-469.443-210.5-469.443-470.168S690.815,458.874,950.071,458.874C1209.345,458.874,1419.523,669.377,1419.523,929.052Z" transform="translate(60.242 90.648)" fill="none" stroke="#fff" stroke-linecap="round" stroke-linejoin="round" stroke-width="1.058" stroke-dasharray="0 5"/><path d="M1359.872,900.157c0,242.27-196.1,438.662-437.984,438.662S483.894,1142.427,483.894,900.157,679.992,461.5,921.887,461.5,1359.872,657.9,1359.872,900.157Z" transform="translate(85.172 110.689)" fill="none" stroke="#fff" stroke-linecap="round" stroke-linejoin="round" stroke-width="0.99" stroke-dasharray="0 5"/><path d="M1300.2,871.263c0,224.856-182,407.137-406.527,407.137-224.509,0-406.509-182.281-406.509-407.137s182-407.146,406.509-407.146C1118.2,464.117,1300.2,646.4,1300.2,871.263Z" transform="translate(110.116 130.737)" fill="none" stroke="#fff" stroke-linecap="round" stroke-linejoin="round" stroke-width="0.923" stroke-dasharray="0 5"/><path d="M1240.521,842.377c0,207.451-167.919,375.622-375.042,375.622-207.139,0-375.05-168.17-375.05-375.622S658.34,466.738,865.479,466.738C1072.6,466.738,1240.521,634.926,1240.521,842.377Z" transform="translate(135.053 150.778)" fill="none" stroke="#fff" stroke-linecap="round" stroke-linejoin="round" stroke-width="0.856" stroke-dasharray="0 5"/><path d="M1180.861,813.474c0,190.046-153.822,344.106-343.583,344.106S493.7,1003.52,493.7,813.474,647.526,469.36,837.278,469.36,1180.861,623.429,1180.861,813.474Z" transform="translate(159.982 170.827)" fill="none" stroke="#fff" stroke-linecap="round" stroke-linejoin="round" stroke-width="0.788" stroke-dasharray="0 5"/><path d="M1121.177,784.588c0,172.641-139.724,312.59-312.1,312.59S496.963,957.229,496.963,784.588,636.7,471.981,809.079,471.981,1121.177,611.939,1121.177,784.588Z" transform="translate(184.927 190.868)" fill="none" stroke="#fff" stroke-linecap="round" stroke-linejoin="round" stroke-width="0.721" stroke-dasharray="0 5"/><path d="M1061.528,755.686c0,155.227-125.653,281.074-280.657,281.074-154.987,0-280.641-125.847-280.641-281.074S625.883,474.6,780.87,474.6C935.875,474.6,1061.528,600.45,1061.528,755.686Z" transform="translate(209.864 210.917)" fill="none" stroke="#fff" stroke-linecap="round" stroke-linejoin="round" stroke-width="0.654" stroke-dasharray="0 5"/><path d="M1001.868,726.792c0,137.822-111.573,249.559-249.181,249.559S503.5,864.614,503.5,726.792c0-137.839,111.572-249.567,249.191-249.567S1001.868,588.952,1001.868,726.792Z" transform="translate(234.793 230.965)" fill="none" stroke="#fff" stroke-linecap="round" stroke-linejoin="round" stroke-width="0.587" stroke-dasharray="0 5"/><path d="M942.185,697.89c0,120.425-97.475,218.042-217.715,218.042S506.764,818.315,506.764,697.89,604.239,479.847,724.47,479.847,942.185,577.473,942.185,697.89Z" transform="translate(259.737 251.014)" fill="none" stroke="#fff" stroke-linecap="round" stroke-linejoin="round" stroke-width="0.519" stroke-dasharray="0 5"/><path d="M882.517,669c0,103.012-83.386,186.527-186.239,186.527-102.87,0-186.247-83.515-186.247-186.527s83.377-186.535,186.247-186.535C799.131,482.468,882.517,565.983,882.517,669Z" transform="translate(284.674 271.055)" fill="none" stroke="#fff" stroke-linecap="round" stroke-linejoin="round" stroke-width="0.452" stroke-dasharray="0 5"/><path d="M822.833,640.11c0,85.607-69.278,155-154.762,155s-154.772-69.4-154.772-155c0-85.625,69.28-155.02,154.772-155.02S822.833,554.485,822.833,640.11Z" transform="translate(309.619 291.103)" fill="none" stroke="#fff" stroke-linecap="round" stroke-linejoin="round" stroke-width="0.385" stroke-dasharray="0 5"/><path d="M763.2,611.214a123.317,123.317,0,1,1-246.634,0c0-68.21,55.224-123.5,123.313-123.5A123.419,123.419,0,0,1,763.2,611.214Z" transform="translate(334.541 311.144)" fill="none" stroke="#fff" stroke-linecap="round" stroke-linejoin="round" stroke-width="0.317" stroke-dasharray="0 5"/><path d="M703.516,582.321a91.842,91.842,0,1,1-91.837-91.988A91.9,91.9,0,0,1,703.516,582.321Z" transform="translate(359.485 331.193)" fill="none" stroke="#fff" stroke-linecap="round" stroke-linejoin="round" stroke-width="0.25" stroke-dasharray="0 5"/></g></g></g></svg>