<?xml version="1.0" encoding="utf-8"?>
<!-- Generator: Adobe Illustrator 16.0.0, SVG Export Plug-In . SVG Version: 6.00 Build 0)  -->
<!DOCTYPE svg PUBLIC "-//W3C//DTD SVG 1.1//EN" "http://www.w3.org/Graphics/SVG/1.1/DTD/svg11.dtd">
<svg version="1.1" id="Layer_1" xmlns="http://www.w3.org/2000/svg" xmlns:xlink="http://www.w3.org/1999/xlink" x="0px" y="0px"
	 width="64px" height="64px" viewBox="0 0 64 64" enable-background="new 0 0 64 64" xml:space="preserve">
<g>
	<path d="M53.37,21.057c-2.15-3.685-5.067-6.603-8.753-8.753c-3.685-2.15-7.708-3.226-12.072-3.226
		c-4.363,0-8.387,1.076-12.072,3.226c-3.685,2.151-6.603,5.068-8.752,8.753c-2.151,3.685-3.226,7.708-3.226,12.071
		c0,5.241,1.529,9.953,4.588,14.139c3.058,4.187,7.009,7.083,11.853,8.69c0.563,0.104,0.981,0.031,1.252-0.219
		c0.271-0.251,0.407-0.564,0.407-0.939c0-0.063-0.005-0.626-0.016-1.69c-0.011-1.065-0.016-1.994-0.016-2.787l-0.72,0.125
		c-0.459,0.084-1.039,0.12-1.738,0.109c-0.699-0.01-1.425-0.083-2.176-0.22c-0.752-0.135-1.451-0.448-2.099-0.938
		c-0.646-0.49-1.106-1.133-1.377-1.926l-0.313-0.721c-0.208-0.479-0.537-1.013-0.986-1.597c-0.449-0.585-0.903-0.98-1.362-1.19
		l-0.219-0.156c-0.146-0.104-0.282-0.23-0.407-0.376c-0.125-0.146-0.219-0.292-0.282-0.438c-0.063-0.146-0.01-0.267,0.157-0.36
		c0.167-0.095,0.469-0.141,0.908-0.141l0.626,0.094c0.417,0.084,0.934,0.333,1.55,0.752c0.616,0.417,1.122,0.959,1.519,1.627
		c0.48,0.856,1.06,1.509,1.738,1.958c0.678,0.449,1.362,0.673,2.051,0.673c0.689,0,1.284-0.052,1.785-0.156
		c0.5-0.104,0.97-0.261,1.409-0.47c0.188-1.399,0.699-2.475,1.534-3.226c-1.19-0.125-2.26-0.313-3.21-0.563
		c-0.95-0.251-1.931-0.658-2.943-1.223c-1.013-0.563-1.853-1.263-2.521-2.098s-1.216-1.932-1.644-3.288
		c-0.428-1.357-0.642-2.923-0.642-4.698c0-2.526,0.825-4.676,2.474-6.451c-0.772-1.899-0.7-4.029,0.219-6.388
		c0.605-0.188,1.503-0.047,2.693,0.423c1.19,0.47,2.062,0.872,2.615,1.206c0.553,0.333,0.997,0.616,1.331,0.845
		c1.942-0.542,3.946-0.814,6.013-0.814s4.071,0.271,6.014,0.814l1.189-0.751c0.813-0.501,1.774-0.96,2.881-1.378
		s1.952-0.532,2.537-0.344c0.939,2.359,1.023,4.488,0.25,6.388c1.649,1.774,2.475,3.925,2.475,6.451
		c0,1.774-0.215,3.346-0.642,4.713c-0.428,1.368-0.98,2.463-1.659,3.288c-0.68,0.825-1.524,1.52-2.537,2.083
		s-1.994,0.971-2.944,1.221c-0.949,0.251-2.02,0.439-3.209,0.565c1.085,0.938,1.628,2.421,1.628,4.445v6.607
		c0,0.376,0.13,0.689,0.392,0.939c0.261,0.25,0.673,0.323,1.236,0.219C45,54.349,48.95,51.452,52.01,47.267
		c3.058-4.187,4.587-8.898,4.587-14.14C56.596,28.765,55.52,24.741,53.37,21.057z"/>
</g>
</svg>
