<?xml version="1.0" encoding="utf-8"?>
<!-- Generator: Adobe Illustrator 16.0.0, SVG Export Plug-In . SVG Version: 6.00 Build 0)  -->
<!DOCTYPE svg PUBLIC "-//W3C//DTD SVG 1.1//EN" "http://www.w3.org/Graphics/SVG/1.1/DTD/svg11.dtd">
<svg version="1.1" id="Layer_1" xmlns="http://www.w3.org/2000/svg" xmlns:xlink="http://www.w3.org/1999/xlink" x="0px" y="0px"
	 width="1737px" height="1228px" viewBox="0 0 1737 1228" enable-background="new 0 0 1737 1228" xml:space="preserve">
<g>
	<defs>
		<rect id="SVGID_1_" y="1" width="1736.752" height="1231.43"/>
	</defs>
	<clipPath id="SVGID_2_">
		<use xlink:href="#SVGID_1_"  overflow="visible"/>
	</clipPath>
	
		<linearGradient id="SVGID_3_" gradientUnits="userSpaceOnUse" x1="945.085" y1="387.6113" x2="2019.8025" y2="-1486.5919" gradientTransform="matrix(-1.192488e-008 1 1 1.192488e-008 1395.4063 -852.8486)">
		<stop  offset="0" style="stop-color:#FFB800"/>
		<stop  offset="1" style="stop-color:#FF0077"/>
	</linearGradient>
	<rect y="1" clip-path="url(#SVGID_2_)" fill="url(#SVGID_3_)" width="1736.752" height="1231.43"/>
</g>
<g>
	<defs>
		<rect id="SVGID_4_" y="1" width="1736.752" height="1231.43"/>
	</defs>
	<clipPath id="SVGID_5_">
		<use xlink:href="#SVGID_4_"  overflow="visible"/>
	</clipPath>
	<g opacity="0.5" clip-path="url(#SVGID_5_)">
		<g>
			
				<path fill="none" stroke="#FFFFFF" stroke-width="15.664" stroke-linecap="round" stroke-linejoin="round" stroke-dasharray="0,39.0355" d="
				M1439.177,1321.835c-472.785-0.001-856.056-384.342-856.056-858.447c0-474.106,383.271-858.447,856.057-858.447
				c472.793,0,856.063,384.341,856.063,858.447C2295.24,937.493,1911.971,1321.835,1439.177,1321.835z"/>
		</g>
		<g>
			
				<path fill="none" stroke="#FFFFFF" stroke-width="15.1368" stroke-linecap="round" stroke-linejoin="round" stroke-dasharray="0,39.1024" d="
				M1447.494,1289.069c-456.44-0.001-826.459-371.047-826.459-828.762s370.02-828.761,826.46-828.761
				c456.433,0,826.452,371.046,826.452,828.761C2273.947,918.024,1903.928,1289.069,1447.494,1289.069z"/>
		</g>
		<g>
			
				<path fill="none" stroke="#FFFFFF" stroke-width="14.6096" stroke-linecap="round" stroke-linejoin="round" stroke-dasharray="0,39.1746" d="
				M1455.805,1256.312c-440.089,0-796.854-357.765-796.854-799.081c0-441.317,356.768-799.082,796.854-799.082
				c440.088,0,796.849,357.764,796.849,799.082C2252.653,898.547,1895.893,1256.312,1455.805,1256.312z"/>
		</g>
		<g>
			
				<path fill="none" stroke="#FFFFFF" stroke-width="14.0825" stroke-linecap="round" stroke-linejoin="round" stroke-dasharray="0,39.2526" d="
				M1464.114,1223.545c-423.735,0-767.251-344.476-767.251-769.395c0-424.927,343.516-769.396,767.251-769.396
				c423.743,0,767.252,344.468,767.252,769.396C2231.366,879.069,1887.857,1223.545,1464.114,1223.545z"/>
		</g>
		<g>
			
				<path fill="none" stroke="#FFFFFF" stroke-width="13.5554" stroke-linecap="round" stroke-linejoin="round" stroke-dasharray="0,39.0066" d="
				M1472.424,1190.779c-407.391,0-737.646-331.181-737.646-739.707c0-408.529,330.258-739.709,737.647-739.709
				c407.397,0,737.647,331.18,737.647,739.709C2210.072,859.601,1879.822,1190.779,1472.424,1190.779z"/>
		</g>
		<g>
			
				<path fill="none" stroke="#FFFFFF" stroke-width="13.0282" stroke-linecap="round" stroke-linejoin="round" stroke-dasharray="0,39.0834" d="
				M1480.741,1158.014c-391.046,0-708.052-317.883-708.052-710.021c0-392.132,317.007-710.021,708.053-710.021
				c391.038,0,708.043,317.89,708.043,710.021C2188.785,840.131,1871.78,1158.014,1480.741,1158.014z"/>
		</g>
		<g>
			
				<path fill="none" stroke="#FFFFFF" stroke-width="12.501" stroke-linecap="round" stroke-linejoin="round" stroke-dasharray="0,39.1672" d="
				M1489.052,1125.249c-374.692-0.001-678.448-304.588-678.448-680.335c0-375.74,303.756-680.335,678.448-680.335
				c374.693,0,678.44,304.595,678.44,680.335C2167.492,820.661,1863.745,1125.249,1489.052,1125.249z"/>
		</g>
		<g>
			
				<path fill="none" stroke="#FFFFFF" stroke-width="11.9739" stroke-linecap="round" stroke-linejoin="round" stroke-dasharray="0,39.2593" d="
				M1497.361,1092.491c-358.342-0.001-648.845-291.309-648.845-650.656c0-359.343,290.503-650.655,648.845-650.655
				c358.35,0,648.844,291.313,648.844,650.655C2146.205,801.185,1855.711,1092.491,1497.361,1092.491z"/>
		</g>
		<g>
			
				<ellipse fill="none" stroke="#FFFFFF" stroke-width="11.4468" stroke-linecap="round" stroke-linejoin="round" stroke-dasharray="0,38.9668" cx="1505.671" cy="438.755" rx="619.239" ry="620.969"/>
		</g>
		<g>
			
				<path fill="none" stroke="#FFFFFF" stroke-width="10.9196" stroke-linecap="round" stroke-linejoin="round" stroke-dasharray="0,39.0569" d="
				M1513.988,1026.967c-325.651,0-589.635-264.729-589.635-591.289c0-326.555,263.983-591.284,589.636-591.284
				c325.644,0,589.636,264.729,589.636,591.284C2103.625,762.238,1839.633,1026.967,1513.988,1026.967z"/>
		</g>
		<g>
			
				<path fill="none" stroke="#FFFFFF" stroke-width="10.3924" stroke-linecap="round" stroke-linejoin="round" stroke-dasharray="0,39.1569" d="
				M1522.299,994.201c-309.299,0-560.032-251.434-560.031-561.604c0-310.164,250.732-561.596,560.031-561.596
				s560.031,251.432,560.031,561.596C2082.33,742.769,1831.598,994.201,1522.299,994.201z"/>
		</g>
		<g>
			
				<path fill="none" stroke="#FFFFFF" stroke-width="9.8653" stroke-linecap="round" stroke-linejoin="round" stroke-dasharray="0,39.2677" d="
				M1530.608,961.436c-292.946,0-530.429-238.145-530.428-531.916c0-293.766,237.48-531.909,530.429-531.909
				c292.944,0,530.435,238.144,530.435,531.909C2061.044,723.292,1823.555,961.436,1530.608,961.436z"/>
		</g>
		<g>
			
				<path fill="none" stroke="#FFFFFF" stroke-width="9.3382" stroke-linecap="round" stroke-linejoin="round" stroke-dasharray="0,39.3927" d="
				M1538.918,928.67c-276.602,0-500.823-224.854-500.822-502.229c0-277.366,224.223-502.223,500.823-502.223
				S2039.75,149.073,2039.75,426.44C2039.75,703.814,1815.521,928.67,1538.918,928.67z"/>
		</g>
		<g>
			
				<path fill="none" stroke="#FFFFFF" stroke-width="8.811" stroke-linecap="round" stroke-linejoin="round" stroke-dasharray="0,39.0145" d="
				M1547.236,895.904c-260.258,0-471.229-211.561-471.229-472.543c0-260.978,210.971-472.544,471.229-472.544
				c260.249,0,471.219,211.567,471.219,472.544C2018.455,684.345,1807.485,895.904,1547.236,895.904z"/>
		</g>
		<g>
			
				<path fill="none" stroke="#FFFFFF" stroke-width="8.2838" stroke-linecap="round" stroke-linejoin="round" stroke-dasharray="0,39.138" d="
				M1555.546,863.146c-243.904,0-441.623-198.277-441.623-442.863c0-244.578,197.72-442.856,441.623-442.856
				c243.905,0,441.624,198.278,441.624,442.856C1997.17,664.868,1799.451,863.146,1555.546,863.146z"/>
		</g>
		<g>
			
				<path fill="none" stroke="#FFFFFF" stroke-width="7.7567" stroke-linecap="round" stroke-linejoin="round" stroke-dasharray="0,39.2807" d="
				M1563.855,830.381c-227.552,0-412.02-184.981-412.02-413.17c0-228.195,184.468-413.177,412.02-413.177
				c227.553,0,412.02,184.981,412.02,413.177C1975.875,645.398,1791.408,830.381,1563.855,830.381z"/>
		</g>
		<g>
			
				<path fill="none" stroke="#FFFFFF" stroke-width="7.2295" stroke-linecap="round" stroke-linejoin="round" stroke-dasharray="0,39.4471" d="
				M1572.166,797.623c-211.199,0-382.416-171.702-382.416-383.491c0.001-211.798,171.217-383.491,382.416-383.491
				c211.207,0,382.423,171.693,382.423,383.491C1954.589,625.921,1783.373,797.623,1572.166,797.623z"/>
		</g>
		<g>
			
				<path fill="none" stroke="#FFFFFF" stroke-width="6.7024" stroke-linecap="round" stroke-linejoin="round" stroke-dasharray="0,38.9475" d="
				M1580.476,764.857c-194.854,0-352.812-158.405-352.812-353.807c0.001-195.405,157.957-353.804,352.812-353.804
				c194.862,0,352.819,158.398,352.819,353.804C1933.295,606.452,1775.338,764.857,1580.476,764.857z"/>
		</g>
		<g>
			
				<path fill="none" stroke="#FFFFFF" stroke-width="6.1752" stroke-linecap="round" stroke-linejoin="round" stroke-dasharray="0,39.1103" d="
				M1588.793,732.092c-178.51,0-323.215-145.117-323.215-324.118c0-179.009,144.705-324.118,323.216-324.118
				c178.502,0,323.214,145.109,323.214,324.118C1912.008,586.975,1767.295,732.092,1588.793,732.092z"/>
		</g>
		<g>
			
				<ellipse fill="none" stroke="#FFFFFF" stroke-width="5.6481" stroke-linecap="round" stroke-linejoin="round" stroke-dasharray="0,39.308" cx="1597.104" cy="404.891" rx="293.611" ry="294.435"/>
		</g>
		<g>
			
				<path fill="none" stroke="#FFFFFF" stroke-width="5.1209" stroke-linecap="round" stroke-linejoin="round" stroke-dasharray="0,39.5526" d="
				M1605.413,666.561c-145.806,0-264.007-118.532-264.007-264.745c0-146.22,118.202-264.751,264.007-264.751
				c145.813,0,264.015,118.531,264.015,264.751C1869.428,548.027,1751.226,666.561,1605.413,666.561z"/>
		</g>
		<g>
			
				<path fill="none" stroke="#FFFFFF" stroke-width="4.5938" stroke-linecap="round" stroke-linejoin="round" stroke-dasharray="0,38.8145" d="
				M1613.723,633.803c-129.46,0-234.401-105.243-234.401-235.066c0-129.821,104.941-235.064,234.402-235.064
				c129.46,0,234.41,105.243,234.41,235.064C1848.134,528.56,1743.184,633.803,1613.723,633.803z"/>
		</g>
		<g>
			
				<path fill="none" stroke="#FFFFFF" stroke-width="4.0666" stroke-linecap="round" stroke-linejoin="round" stroke-dasharray="0,39.0511" d="
				M1622.041,601.036c-113.115,0-204.807-91.955-204.807-205.378c0-113.432,91.69-205.379,204.807-205.379
				c113.107,0,204.807,91.947,204.807,205.379C1826.848,509.081,1735.148,601.036,1622.041,601.036z"/>
		</g>
		<g>
			
				<ellipse fill="none" stroke="#FFFFFF" stroke-width="3.5395" stroke-linecap="round" stroke-linejoin="round" stroke-dasharray="0,39.372" cx="1630.35" cy="392.579" rx="175.202" ry="175.692"/>
		</g>
		<g>
			
				<path fill="none" stroke="#FFFFFF" stroke-width="3.0123" stroke-linecap="round" stroke-linejoin="round" stroke-dasharray="0,39.8325" d="
				M1638.66,535.506c-80.41,0-145.6-65.363-145.6-146.006c0-80.635,65.188-146.005,145.6-146.005s145.605,65.37,145.605,146.005
				C1784.267,470.143,1719.07,535.506,1638.66,535.506z"/>
		</g>
		<g>
			
				<path fill="none" stroke="#FFFFFF" stroke-width="2.4852" stroke-linecap="round" stroke-linejoin="round" stroke-dasharray="0,38.4158" d="
				M1646.971,502.747c-64.065,0-115.995-52.081-115.995-116.326c0-64.244,51.93-116.326,115.995-116.326
				c64.064,0,116.002,52.082,116.002,116.326C1762.973,450.666,1711.035,502.747,1646.971,502.747z"/>
		</g>
		<g>
			
				<path fill="none" stroke="#FFFFFF" stroke-width="1.958" stroke-linecap="round" stroke-linejoin="round" stroke-dasharray="0,38.8305" d="
				M1655.287,469.981c-47.721,0-86.398-38.785-86.398-86.641c0-47.846,38.679-86.64,86.398-86.64
				c47.714,0,86.391,38.794,86.391,86.64C1741.678,431.196,1703.001,469.981,1655.287,469.981z"/>
		</g>
	</g>
</g>
<g>
	<defs>
		<rect id="SVGID_6_" y="1" width="1736.752" height="1231.43"/>
	</defs>
	<clipPath id="SVGID_7_">
		<use xlink:href="#SVGID_6_"  overflow="visible"/>
	</clipPath>
	<g opacity="0.5" clip-path="url(#SVGID_7_)">
		<g>
			
				<path fill="none" stroke="#FFFFFF" stroke-width="15.664" stroke-linecap="round" stroke-linejoin="round" stroke-dasharray="0,39.3012" d="
				M-181.717,1911.386c-455.311,0-824.405-370.126-824.405-826.716c0-456.581,369.095-826.714,824.405-826.714
				c455.31,0,824.412,370.133,824.412,826.714C642.695,1541.26,273.593,1911.387-181.717,1911.386z"/>
		</g>
		<g>
			
				<path fill="none" stroke="#FFFFFF" stroke-width="15.1368" stroke-linecap="round" stroke-linejoin="round" stroke-dasharray="0,39.1279" d="
				M-173.713,1879.838c-439.561,0-795.9-357.335-795.9-798.132c0-440.789,356.34-798.124,795.9-798.124
				c439.568,0,795.908,357.335,795.908,798.124C622.195,1522.503,265.855,1879.838-173.713,1879.838z"/>
		</g>
		<g>
			
				<path fill="none" stroke="#FFFFFF" stroke-width="14.6096" stroke-linecap="round" stroke-linejoin="round" stroke-dasharray="0,39.26" d="
				M-165.709,1848.282c-423.819,0-767.389-344.536-767.389-769.541c0-425.003,343.569-769.539,767.389-769.539
				s767.396,344.536,767.396,769.54S258.111,1848.283-165.709,1848.282z"/>
		</g>
		<g>
			
				<path fill="none" stroke="#FFFFFF" stroke-width="14.0825" stroke-linecap="round" stroke-linejoin="round" stroke-dasharray="0,39.0721" d="
				M-157.704,1816.728c-408.07,0-738.885-331.73-738.885-740.949s330.814-740.947,738.885-740.947
				c408.078,0,738.894,331.729,738.894,740.947C581.188,1484.996,250.374,1816.728-157.704,1816.728z"/>
		</g>
		<g>
			
				<path fill="none" stroke="#FFFFFF" stroke-width="13.5554" stroke-linecap="round" stroke-linejoin="round" stroke-dasharray="0,39.2122" d="
				M-149.699,1785.171c-392.33,0-710.374-318.924-710.374-712.355c0-393.435,318.044-712.365,710.374-712.365
				c392.336,0,710.381,318.932,710.381,712.365C560.682,1466.247,242.637,1785.171-149.699,1785.171z"/>
		</g>
		<g>
			
				<path fill="none" stroke="#FFFFFF" stroke-width="13.0282" stroke-linecap="round" stroke-linejoin="round" stroke-dasharray="0,39.0074" d="
				M-141.695,1753.623c-376.588,0-681.869-306.134-681.869-683.772c0-377.64,305.281-683.781,681.869-683.781
				c376.588,0,681.876,306.143,681.876,683.781S234.893,1753.623-141.695,1753.623z"/>
		</g>
		<g>
			
				<path fill="none" stroke="#FFFFFF" stroke-width="12.501" stroke-linecap="round" stroke-linejoin="round" stroke-dasharray="0,39.1563" d="
				M-133.691,1722.075c-360.838,0-653.357-293.344-653.357-655.189c0-361.854,292.52-655.189,653.357-655.189
				c360.847,0,653.365,293.336,653.365,655.189C519.674,1428.732,227.155,1722.075-133.691,1722.075z"/>
		</g>
		<g>
			
				<path fill="none" stroke="#FFFFFF" stroke-width="11.9739" stroke-linecap="round" stroke-linejoin="round" stroke-dasharray="0,39.3203" d="
				M-125.687,1690.521c-345.097,0-624.854-280.537-624.854-626.605c0-346.061,279.757-626.599,624.854-626.599
				s624.86,280.538,624.86,626.599C499.174,1409.982,219.41,1690.521-125.687,1690.521z"/>
		</g>
		<g>
			
				<path fill="none" stroke="#FFFFFF" stroke-width="11.4468" stroke-linecap="round" stroke-linejoin="round" stroke-dasharray="0,39.0898" d="
				M-117.682,1658.964c-329.349,0-596.342-267.729-596.342-598.006s266.993-598.016,596.342-598.016
				c329.355,0,596.349,267.738,596.349,598.016C478.667,1391.233,211.674,1658.964-117.682,1658.964z"/>
		</g>
		<g>
			
				<path fill="none" stroke="#FFFFFF" stroke-width="10.9196" stroke-linecap="round" stroke-linejoin="round" stroke-dasharray="0,39.2665" d="
				M-109.678,1627.417c-313.606,0-567.838-254.939-567.838-569.431c0-314.483,254.231-569.425,567.838-569.425
				c313.614,0,567.845,254.94,567.845,569.425C458.167,1372.478,203.937,1627.417-109.678,1627.417z"/>
		</g>
		<g>
			
				<path fill="none" stroke="#FFFFFF" stroke-width="10.3924" stroke-linecap="round" stroke-linejoin="round" stroke-dasharray="0,39.0089" d="
				M-101.674,1595.861c-297.857,0-539.325-242.144-539.325-540.832c0-298.705,241.468-540.839,539.325-540.839
				c297.865,0,539.334,242.134,539.334,540.839C437.66,1353.719,196.191,1595.861-101.674,1595.861z"/>
		</g>
		<g>
			
				<path fill="none" stroke="#FFFFFF" stroke-width="9.8653" stroke-linecap="round" stroke-linejoin="round" stroke-dasharray="0,39.1994" d="
				M-93.669,1564.313c-282.116,0-510.821-229.345-510.821-512.257c0-282.903,228.705-512.248,510.821-512.248
				c282.124,0,510.829,229.345,510.829,512.248C417.16,1334.97,188.455,1564.313-93.669,1564.313z"/>
		</g>
		<g>
			
				<path fill="none" stroke="#FFFFFF" stroke-width="9.3382" stroke-linecap="round" stroke-linejoin="round" stroke-dasharray="0,38.909" d="
				M-85.664,1532.758c-266.375,0-482.311-216.538-482.311-483.655c0-267.127,215.936-483.673,482.311-483.673
				c266.374,0,482.316,216.546,482.316,483.673C396.652,1316.22,180.71,1532.758-85.664,1532.758z"/>
		</g>
		<g>
			
				<path fill="none" stroke="#FFFFFF" stroke-width="8.811" stroke-linecap="round" stroke-linejoin="round" stroke-dasharray="0,39.1158" d="
				M-77.66,1501.202c-250.626,0-453.806-203.739-453.806-455.072c0-251.326,203.18-455.072,453.806-455.072
				c250.633,0,453.813,203.746,453.813,455.072C376.152,1297.463,172.973,1501.202-77.66,1501.202z"/>
		</g>
		<g>
			
				<path fill="none" stroke="#FFFFFF" stroke-width="8.2838" stroke-linecap="round" stroke-linejoin="round" stroke-dasharray="0,39.354" d="
				M-69.656,1469.654c-234.884,0-425.293-190.948-425.293-426.489c0-235.54,190.409-426.489,425.293-426.489
				c234.893,0,425.303,190.949,425.303,426.489C355.646,1278.706,165.236,1469.654-69.656,1469.654z"/>
		</g>
		<g>
			
				<ellipse fill="none" stroke="#FFFFFF" stroke-width="7.7567" stroke-linecap="round" stroke-linejoin="round" stroke-dasharray="0,39.0111" cx="-61.651" cy="1040.205" rx="396.79" ry="397.901"/>
		</g>
		<g>
			
				<path fill="none" stroke="#FFFFFF" stroke-width="7.2295" stroke-linecap="round" stroke-linejoin="round" stroke-dasharray="0,39.2766" d="
				M-53.646,1406.552c-203.395,0-368.278-165.345-368.278-369.313c0-203.97,164.884-369.313,368.278-369.313
				c203.4,0,368.285,165.344,368.285,369.313C314.639,1241.207,149.754,1406.552-53.646,1406.552z"/>
		</g>
		<g>
			
				<path fill="none" stroke="#FFFFFF" stroke-width="6.7024" stroke-linecap="round" stroke-linejoin="round" stroke-dasharray="0,38.8718" d="
				M-45.643,1374.996c-187.652,0-339.773-152.547-339.773-340.724s152.121-340.729,339.773-340.729s339.781,152.554,339.781,340.729
				C294.139,1222.449,142.01,1374.996-45.643,1374.996z"/>
		</g>
		<g>
			
				<path fill="none" stroke="#FFFFFF" stroke-width="6.1752" stroke-linecap="round" stroke-linejoin="round" stroke-dasharray="0,39.171" d="
				M-37.639,1343.44c-171.902,0-311.262-139.748-311.262-312.132c0-172.392,139.359-312.14,311.262-312.14
				c171.911,0,311.27,139.748,311.27,312.14C273.631,1203.692,134.272,1343.44-37.639,1343.44z"/>
		</g>
		<g>
			
				<path fill="none" stroke="#FFFFFF" stroke-width="5.6481" stroke-linecap="round" stroke-linejoin="round" stroke-dasharray="0,39.5376" d="
				M-29.634,1311.892c-156.162,0-282.758-126.947-282.758-283.546S-185.796,744.79-29.634,744.79
				c156.169,0,282.765,126.957,282.765,283.556C253.131,1184.943,126.535,1311.892-29.634,1311.892z"/>
		</g>
		<g>
			
				<path fill="none" stroke="#FFFFFF" stroke-width="5.1209" stroke-linecap="round" stroke-linejoin="round" stroke-dasharray="0,39.0196" d="
				M-21.63,1280.345c-140.413,0-254.245-114.15-254.245-254.972c0-140.805,113.832-254.955,254.245-254.955
				c140.421,0,254.254,114.15,254.254,254.955C232.624,1166.193,118.791,1280.345-21.63,1280.345z"/>
		</g>
		<g>
			
				<path fill="none" stroke="#FFFFFF" stroke-width="4.5938" stroke-linecap="round" stroke-linejoin="round" stroke-dasharray="0,39.4566" d="
				M-13.625,1248.789c-124.672,0-225.742-101.354-225.742-226.372c0-125.027,101.07-226.38,225.742-226.38
				c124.679,0,225.749,101.353,225.749,226.38C212.124,1147.437,111.054,1248.789-13.625,1248.789z"/>
		</g>
		<g>
			
				<path fill="none" stroke="#FFFFFF" stroke-width="4.0666" stroke-linecap="round" stroke-linejoin="round" stroke-dasharray="0,38.7828" d="
				M-5.621,1217.233c-108.93,0-197.23-88.555-197.23-197.788c0-109.234,88.301-197.788,197.23-197.788
				c108.929,0,197.238,88.554,197.238,197.788C191.617,1128.679,103.309,1217.233-5.621,1217.233z"/>
		</g>
		<g>
			
				<path fill="none" stroke="#FFFFFF" stroke-width="3.5395" stroke-linecap="round" stroke-linejoin="round" stroke-dasharray="0,39.3212" d="
				M2.383,1185.679c-93.18,0-168.725-75.749-168.725-169.188c0-93.457,75.545-169.205,168.725-169.205
				c93.189,0,168.734,75.748,168.734,169.205C171.117,1109.93,95.572,1185.679,2.383,1185.679z"/>
		</g>
		<g>
			
				<path fill="none" stroke="#FFFFFF" stroke-width="3.0123" stroke-linecap="round" stroke-linejoin="round" stroke-dasharray="0,38.3603" d="
				M10.388,1154.131c-77.438,0-140.214-62.95-140.214-140.614c0-77.654,62.775-140.604,140.214-140.604
				c77.447,0,140.222,62.95,140.222,140.604C150.609,1091.181,87.835,1154.131,10.388,1154.131z"/>
		</g>
		<g>
			
				<path fill="none" stroke="#FFFFFF" stroke-width="2.4852" stroke-linecap="round" stroke-linejoin="round" stroke-dasharray="0,39.0511" d="
				M18.393,1122.582c-61.69,0-111.711-50.159-111.711-112.029c0-61.861,50.021-112.021,111.711-112.021
				c61.697,0,111.717,50.16,111.717,112.021C130.109,1072.423,80.09,1122.582,18.393,1122.582z"/>
		</g>
		<g>
			
				<path fill="none" stroke="#FFFFFF" stroke-width="1.958" stroke-linecap="round" stroke-linejoin="round" stroke-dasharray="0,40.2719" d="
				M26.396,1091.027c-45.949,0-83.198-37.361-83.198-83.438s37.249-83.438,83.198-83.438c45.957,0,83.206,37.359,83.206,83.438
				S72.354,1091.027,26.396,1091.027z"/>
		</g>
	</g>
</g>
<g>
	<defs>
		<rect id="SVGID_8_" y="1" width="1736.752" height="1231.43"/>
	</defs>
	<clipPath id="SVGID_9_">
		<use xlink:href="#SVGID_8_"  overflow="visible"/>
	</clipPath>
	<rect y="1" clip-path="url(#SVGID_9_)" fill="none" width="1736.752" height="1231.43"/>
</g>
</svg>
