<?xml version="1.0" encoding="utf-8"?>
<!-- Generator: Adobe Illustrator 16.0.0, SVG Export Plug-In . SVG Version: 6.00 Build 0)  -->
<!DOCTYPE svg PUBLIC "-//W3C//DTD SVG 1.1//EN" "http://www.w3.org/Graphics/SVG/1.1/DTD/svg11.dtd">
<svg version="1.1" id="Layer_1" xmlns="http://www.w3.org/2000/svg" xmlns:xlink="http://www.w3.org/1999/xlink" x="0px" y="0px"
	 width="136.404px" height="44.994px" viewBox="0 0 136.404 44.994" enable-background="new 0 0 136.404 44.994"
	 xml:space="preserve">
<rect id="Retângulo_3_3_" x="0.313" fill="#FFFFFF" width="55.354" height="44.994"/>
<rect id="Retângulo_3_2_" x="56" width="80.404" height="44.994"/>
<g>
	<g>
		<path fill="#FFFFFF" d="M70.844,32.937v4.22c-0.437,0.251-0.902,0.45-1.398,0.597c-0.495,0.146-1.021,0.221-1.577,0.221
			c-0.809,0-1.565-0.152-2.273-0.457c-0.709-0.306-1.328-0.723-1.856-1.252c-0.528-0.527-0.945-1.146-1.252-1.855
			c-0.306-0.709-0.458-1.467-0.458-2.273s0.152-1.566,0.458-2.281c0.307-0.715,0.724-1.336,1.252-1.864s1.147-0.948,1.856-1.261
			c0.708-0.311,1.466-0.465,2.273-0.465c0.556,0,1.082,0.07,1.577,0.213c0.496,0.142,0.969,0.344,1.415,0.604l-0.753,1.097
			c-0.338-0.197-0.691-0.35-1.063-0.459s-0.764-0.164-1.178-0.164c-0.622,0-1.202,0.12-1.742,0.36s-1.016,0.569-1.423,0.989
			c-0.409,0.42-0.731,0.908-0.966,1.464c-0.234,0.557-0.353,1.146-0.353,1.767c0,0.622,0.117,1.211,0.353,1.768
			c0.233,0.556,0.557,1.039,0.966,1.447c0.407,0.408,0.883,0.732,1.423,0.974s1.12,0.358,1.742,0.358
			c0.565,0,1.105-0.098,1.618-0.293v-2.16h-1.685v-1.291h3.043V32.937z"/>
		<path fill="#FFFFFF" d="M71.661,36.519h1.333c0.752-1.801,1.508-3.58,2.266-5.342c0.758-1.761,1.513-3.541,2.266-5.34
			c0.752,1.799,1.508,3.579,2.266,5.34c0.758,1.762,1.514,3.541,2.266,5.342h1.351v1.291H79.79v-1.291h0.908
			c-0.23-0.545-0.458-1.086-0.684-1.619c-0.225-0.534-0.452-1.074-0.682-1.621h-3.608l-1.374,3.24h0.94v1.291H71.66L71.661,36.519
			L71.661,36.519z M77.673,29.386l-0.164-0.539c-0.011,0.021-0.022,0.061-0.033,0.114s-0.026,0.114-0.049,0.181
			c-0.021,0.075-0.049,0.157-0.082,0.244c-0.142,0.316-0.271,0.627-0.393,0.934c-0.108,0.262-0.225,0.545-0.344,0.851
			c-0.12,0.306-0.229,0.578-0.326,0.817h2.491L77.673,29.386z"/>
		<path fill="#FFFFFF" d="M84.19,36.519h0.916v-8.865H84.19V26.36h3.632v1.291h-1.357v8.865h4.629V35.29h1.293v2.52H84.19V36.519z"
			/>
		<path fill="#FFFFFF" d="M93.203,26.36h3.958v1.291h-1.187c0.513,1.188,1.018,2.377,1.513,3.565
			c0.496,1.188,1.002,2.377,1.515,3.565l0.146,0.539l0.148-0.539c0.515-1.188,1.021-2.374,1.521-3.559
			c0.499-1.183,1-2.373,1.506-3.572h-0.957V26.36h3.94v1.291h-1.627c-0.753,1.8-1.508,3.58-2.266,5.341
			c-0.759,1.762-1.514,3.542-2.267,5.341c-0.752-1.799-1.508-3.579-2.265-5.341c-0.759-1.761-1.514-3.541-2.266-5.341h-1.415V26.36
			H93.203z"/>
		<path fill="#FFFFFF" d="M106.108,36.519h1.333c0.752-1.801,1.509-3.58,2.267-5.342c0.758-1.761,1.513-3.541,2.266-5.34
			c0.752,1.799,1.507,3.579,2.265,5.34c0.759,1.762,1.515,3.541,2.267,5.342h1.35v1.291h-3.615v-1.291h0.908
			c-0.229-0.545-0.458-1.086-0.683-1.619c-0.226-0.534-0.452-1.074-0.682-1.621h-3.608l-1.374,3.24h0.94v1.291h-3.632
			L106.108,36.519L106.108,36.519z M111.801,24.97c-0.164-0.175-0.309-0.289-0.434-0.344c-0.126-0.055-0.266-0.082-0.417-0.082
			c-0.153,0-0.327,0.05-0.523,0.146c-0.196,0.1-0.312,0.301-0.344,0.605l-0.736-0.049c0.011-0.219,0.065-0.417,0.164-0.598
			c0.098-0.181,0.218-0.332,0.359-0.459c0.142-0.125,0.297-0.221,0.467-0.285c0.169-0.065,0.335-0.098,0.498-0.098
			c0.251,0,0.478,0.049,0.68,0.146c0.201,0.098,0.396,0.229,0.58,0.393c0.164,0.174,0.308,0.288,0.434,0.344
			c0.125,0.055,0.266,0.082,0.417,0.082c0.076,0,0.161-0.012,0.255-0.033c0.092-0.021,0.183-0.061,0.27-0.114
			s0.161-0.131,0.221-0.229c0.061-0.099,0.102-0.224,0.123-0.375l0.736,0.049c-0.012,0.218-0.065,0.416-0.164,0.597
			c-0.098,0.181-0.218,0.33-0.359,0.45c-0.143,0.119-0.298,0.212-0.467,0.277c-0.169,0.064-0.335,0.099-0.499,0.099
			c-0.251,0-0.477-0.05-0.679-0.147C112.18,25.248,111.985,25.122,111.801,24.97z M112.12,29.386l-0.164-0.539
			c-0.012,0.021-0.022,0.061-0.033,0.114s-0.027,0.114-0.049,0.181c-0.021,0.075-0.049,0.157-0.082,0.244
			c-0.143,0.316-0.272,0.627-0.394,0.934c-0.107,0.262-0.224,0.545-0.343,0.851c-0.12,0.306-0.229,0.578-0.327,0.817h2.492
			L112.12,29.386z"/>
		<path fill="#FFFFFF" d="M118.637,32.103c0-0.797,0.152-1.553,0.458-2.267s0.723-1.339,1.252-1.873
			c0.528-0.534,1.147-0.957,1.856-1.269c0.708-0.311,1.466-0.465,2.272-0.465c0.796,0,1.551,0.154,2.266,0.465
			c0.715,0.312,1.339,0.734,1.872,1.269c0.534,0.535,0.957,1.159,1.269,1.873c0.311,0.714,0.467,1.47,0.467,2.267
			c0,0.807-0.156,1.563-0.467,2.272c-0.312,0.709-0.733,1.327-1.269,1.856c-0.533,0.527-1.157,0.945-1.872,1.25
			c-0.715,0.307-1.47,0.459-2.266,0.459c-0.808,0-1.564-0.152-2.272-0.459c-0.709-0.305-1.328-0.723-1.856-1.25
			c-0.529-0.529-0.946-1.147-1.252-1.856S118.637,32.908,118.637,32.103z M119.994,32.093c0,0.631,0.116,1.219,0.353,1.766
			c0.233,0.549,0.556,1.024,0.965,1.433c0.408,0.405,0.887,0.729,1.432,0.968s1.129,0.357,1.75,0.357
			c0.622,0,1.205-0.119,1.751-0.357c0.545-0.238,1.021-0.563,1.431-0.968c0.409-0.407,0.729-0.884,0.965-1.433
			c0.235-0.547,0.353-1.135,0.353-1.766c0-0.629-0.117-1.217-0.353-1.765s-0.556-1.027-0.965-1.44
			c-0.409-0.41-0.886-0.736-1.431-0.976c-0.546-0.238-1.129-0.358-1.751-0.358c-0.621,0-1.205,0.12-1.75,0.358
			c-0.545,0.237-1.022,0.563-1.432,0.976c-0.409,0.413-0.73,0.894-0.965,1.44C120.111,30.876,119.994,31.464,119.994,32.093z"/>
	</g>
	<g>
		<path fill="#FFFFFF" d="M62.153,19.217h0.898V8.398h-0.898V6.821h4.553c0.65,0,1.247,0.067,1.786,0.2
			C69.03,7.154,69.49,7.36,69.868,7.64c0.38,0.28,0.676,0.643,0.889,1.088c0.213,0.446,0.319,0.975,0.319,1.587
			c0,0.825-0.196,1.55-0.59,2.176c-0.393,0.626-0.987,1.051-1.785,1.277c0.372,0.08,0.733,0.213,1.088,0.399
			c0.352,0.187,0.657,0.426,0.918,0.719c0.26,0.293,0.469,0.632,0.629,1.018c0.159,0.386,0.239,0.818,0.239,1.297
			c0,0.599-0.127,1.121-0.38,1.567c-0.253,0.446-0.589,0.818-1.009,1.118c-0.419,0.299-0.9,0.526-1.446,0.679
			s-1.104,0.229-1.677,0.229h-4.911V19.217z M64.709,8.398v4.571h2.154c0.785,0,1.407-0.219,1.866-0.659
			c0.459-0.439,0.688-1.018,0.688-1.736c0-0.785-0.239-1.344-0.718-1.677c-0.479-0.333-1.105-0.499-1.877-0.499H64.709z
			 M64.709,14.546v4.671h2.215c0.413,0,0.799-0.047,1.158-0.14c0.358-0.093,0.675-0.236,0.947-0.429
			c0.272-0.192,0.489-0.429,0.648-0.708c0.16-0.279,0.239-0.612,0.239-0.998c0-0.412-0.093-0.771-0.279-1.078
			c-0.186-0.307-0.429-0.556-0.729-0.749c-0.3-0.193-0.648-0.336-1.049-0.429c-0.398-0.093-0.805-0.14-1.218-0.14H64.709z"/>
		<path fill="#FFFFFF" d="M72.972,19.217h0.898V8.398h-0.898V6.821h4.192c0.452,0,0.954,0.07,1.507,0.21
			c0.552,0.14,1.066,0.362,1.547,0.668c0.48,0.306,0.878,0.699,1.197,1.178c0.318,0.479,0.479,1.058,0.479,1.736
			c0,0.998-0.25,1.833-0.749,2.505c-0.499,0.672-1.228,1.115-2.186,1.327l2.235,4.771h1.876v1.577h-2.913l-2.936-6.228h-0.858
			h-0.838v4.651h2.275v1.577H72.97v-1.576H72.972z M75.527,12.949h1.736c0.585,0,1.067-0.076,1.447-0.229
			c0.379-0.152,0.682-0.341,0.908-0.566c0.226-0.225,0.386-0.477,0.479-0.755c0.094-0.278,0.14-0.543,0.14-0.795
			c0-0.292-0.075-0.57-0.229-0.835c-0.152-0.265-0.359-0.5-0.618-0.705c-0.26-0.206-0.572-0.368-0.938-0.487
			c-0.366-0.119-0.756-0.179-1.168-0.179h-1.757L75.527,12.949L75.527,12.949z"/>
		<path fill="#FFFFFF" d="M84.469,6.821H89.3v1.577h-1.637v7.825c0,0.506,0.083,0.955,0.249,1.347
			c0.166,0.392,0.398,0.722,0.698,0.988s0.655,0.469,1.067,0.608s0.865,0.21,1.357,0.21c0.491,0,0.943-0.07,1.356-0.21
			c0.412-0.14,0.77-0.342,1.067-0.608c0.3-0.266,0.536-0.596,0.709-0.988c0.173-0.392,0.26-0.841,0.26-1.347V8.398h-1.637V6.821
			h4.83v1.577h-1.537v7.884c0,0.759-0.13,1.431-0.39,2.016c-0.26,0.586-0.615,1.075-1.067,1.467s-0.984,0.688-1.598,0.888
			c-0.612,0.2-1.276,0.299-1.995,0.299c-0.72,0-1.385-0.1-1.996-0.299c-0.612-0.199-1.146-0.496-1.598-0.888
			s-0.806-0.881-1.058-1.467c-0.253-0.585-0.38-1.257-0.38-2.016V8.398h-1.537V6.821H84.469z"/>
		<path fill="#FFFFFF" d="M99.02,19.217h1.737V8.398H99.02V6.821h2.315l9.642,10.439l0.379,0.519l-0.06-0.639V8.398h-1.438V6.821
			h4.831v1.577h-1.736v13.034l-10.221-10.858l-0.379-0.519l0.061,0.639v8.523h1.438v1.577H99.02V19.217z"/>
		<path fill="#FFFFFF" d="M116.086,13.827c0-0.971,0.187-1.893,0.56-2.765c0.372-0.871,0.881-1.633,1.526-2.285
			c0.645-0.652,1.399-1.168,2.266-1.547c0.865-0.379,1.79-0.569,2.774-0.569c0.972,0,1.894,0.19,2.765,0.569
			c0.872,0.379,1.634,0.896,2.286,1.547c0.651,0.652,1.167,1.414,1.547,2.285c0.379,0.872,0.568,1.793,0.568,2.765
			c0,0.985-0.189,1.91-0.568,2.774c-0.38,0.865-0.896,1.621-1.547,2.266c-0.652,0.646-1.414,1.155-2.286,1.527
			c-0.871,0.373-1.793,0.559-2.765,0.559c-0.984,0-1.909-0.186-2.774-0.559c-0.864-0.372-1.62-0.881-2.266-1.527
			c-0.646-0.645-1.154-1.4-1.526-2.266C116.272,15.737,116.086,14.812,116.086,13.827z M117.743,13.817
			c0,0.768,0.143,1.486,0.429,2.154s0.679,1.251,1.178,1.747c0.499,0.497,1.081,0.89,1.747,1.182
			c0.665,0.291,1.377,0.437,2.136,0.437c0.76,0,1.471-0.146,2.137-0.437c0.665-0.292,1.247-0.685,1.746-1.182
			c0.499-0.496,0.892-1.079,1.178-1.747s0.43-1.386,0.43-2.154s-0.144-1.486-0.43-2.154s-0.68-1.254-1.178-1.757
			c-0.499-0.503-1.081-0.9-1.746-1.191c-0.666-0.291-1.377-0.437-2.137-0.437c-0.759,0-1.471,0.146-2.136,0.437
			c-0.666,0.292-1.248,0.688-1.747,1.191c-0.499,0.503-0.892,1.089-1.178,1.757C117.886,12.332,117.743,13.05,117.743,13.817z"/>
	</g>
</g>
<g>
	<polygon points="11.022,7 5.532,7 10.981,37 15.618,37 	"/>
	<polygon points="25.022,7 19.532,7 24.981,37 29.618,37 	"/>
	<path d="M47.904,10.841C45.994,8.272,42.934,7,39.736,7H32v5h5l0,0h2.524c3.705,0,5.558,3,5.558,10h0.004
		c-0.002,3-0.488,5.862-1.465,7.571C42.734,31.229,40.973,32,39.094,32H37l0,0h-5v5h7.059c3.797,0,6.705-1.315,8.728-3.94
		s3.032-6.402,3.032-11.368C50.824,17.029,49.852,13.425,47.904,10.841z"/>
</g>
</svg>
