<?xml version="1.0" encoding="utf-8"?>
<!-- Generator: Adobe Illustrator 16.0.0, SVG Export Plug-In . SVG Version: 6.00 Build 0)  -->
<!DOCTYPE svg PUBLIC "-//W3C//DTD SVG 1.1//EN" "http://www.w3.org/Graphics/SVG/1.1/DTD/svg11.dtd">
<svg version="1.1" id="Layer_1" xmlns="http://www.w3.org/2000/svg" xmlns:xlink="http://www.w3.org/1999/xlink" x="0px" y="0px"
	 width="150px" height="44.994px" viewBox="0 0 150 44.994" enable-background="new 0 0 150 44.994" xml:space="preserve">
<rect id="Retângulo_3" width="69.281" height="44.994"/>
<g>
	<path id="Caminho_21" fill="#FFFFFF" d="M33.377,38.159h-7.284l-3.06-16.412c-0.521-2.623-0.857-5.279-1.007-7.948l-0.172,1.584
		l-0.877,6.45l-2.979,16.325h-7.289L5.032,6.835h5.72l2.807,17.675c0.271,1.772,0.635,4.55,1.093,8.334
		c0.357-3.826,0.692-6.562,1.006-8.204l3.343-17.804h6.042l3.345,17.804c0.443,2.64,0.793,5.389,1.05,8.248
		c0.5-4.228,0.865-7.021,1.093-8.377l2.72-17.675h5.762L33.377,38.159z"/>
	<path id="Caminho_4" fill="#FFFFFF" d="M64.249,22.201c0,5.172-1.053,9.128-3.16,11.862s-5.137,4.104-9.091,4.104h-7.671V6.837
		h8.377c3.331-0.148,6.518,1.365,8.508,4.041C63.242,13.571,64.254,17.345,64.249,22.201z M58.272,22.374
		c0-7-1.929-10.5-5.788-10.502H50.15v21.194h1.884c1.957,0.098,3.793-0.94,4.716-2.668c1.017-1.78,1.524-4.456,1.525-8.024H58.272z"
		/>
</g>
<g id="Grupo_8" transform="translate(0)">
	<path id="Caminho_10" fill="#FFFFFF" d="M75.144,0.527h5.077c1.599-0.138,3.194,0.289,4.51,1.206
		c1.025,0.996,1.547,2.401,1.418,3.826c0.038,1.015-0.221,2.02-0.745,2.891c-0.447,0.74-1.191,1.253-2.042,1.409v0.136
		c0.984,0.192,1.856,0.757,2.435,1.577c0.537,0.933,0.797,2,0.744,3.075c0.094,1.548-0.428,3.069-1.449,4.235
		c-1.041,1.054-2.483,1.61-3.963,1.531h-5.984V0.527z M78.629,8.527h1.7c0.617,0.066,1.229-0.166,1.646-0.624
		c0.357-0.554,0.523-1.209,0.477-1.866c0.06-0.641-0.135-1.279-0.543-1.776c-0.48-0.395-1.096-0.587-1.716-0.533h-1.564V8.527z
		 M78.629,11.617v5.562h1.86c0.654,0.05,1.292-0.213,1.721-0.708c0.428-0.647,0.627-1.418,0.566-2.191
		c0-1.776-0.779-2.664-2.339-2.663L78.629,11.617z"/>
	<path id="Caminho_11" fill="#FFFFFF" d="M92.964,12.675v7.739h-3.7V0.527h4.84c1.646-0.139,3.28,0.385,4.54,1.455
		c1.068,1.225,1.596,2.83,1.464,4.449c0,2.513-0.849,4.268-2.547,5.265l3.826,8.718h-3.958l-3.148-7.739L92.964,12.675z
		 M92.964,9.494h0.949c0.71,0.068,1.408-0.208,1.881-0.742c0.428-0.653,0.629-1.43,0.574-2.209c0.074-0.773-0.143-1.548-0.605-2.172
		c-0.508-0.468-1.189-0.702-1.877-0.644h-0.922V9.494z"/>
	<path id="Caminho_12" fill="#FFFFFF" d="M115.427,0.527v12.871c0.136,1.939-0.433,3.864-1.601,5.42
		c-1.183,1.294-2.888,1.981-4.638,1.868c-1.713,0.114-3.383-0.569-4.523-1.854c-1.143-1.592-1.693-3.534-1.554-5.49V0.527h3.673
		v13.09c0,2.526,0.84,3.791,2.519,3.792c0.732,0.026,1.423-0.342,1.811-0.964c0.473-0.835,0.694-1.788,0.638-2.746V0.527H115.427z"
		/>
	<path id="Caminho_13" fill="#FFFFFF" d="M132.783,20.415h-4.52L122.117,6.01h-0.18c0.232,1.164,0.348,2.349,0.341,3.535v10.87
		h-3.426V0.527h4.542l6.093,14.257h0.15c-0.187-1.123-0.274-2.262-0.261-3.4V0.527h3.4L132.783,20.415z"/>
	<path id="Caminho_14" fill="#FFFFFF" d="M149.977,10.443c0,3.292-0.617,5.822-1.852,7.592c-2.193,2.929-6.348,3.523-9.275,1.328
		c-0.502-0.376-0.947-0.821-1.324-1.322c-1.227-1.762-1.844-4.303-1.848-7.624c0-3.292,0.615-5.815,1.848-7.569
		c1.203-1.74,3.221-2.736,5.334-2.634c2.1-0.097,4.098,0.905,5.276,2.646C149.364,4.624,149.979,7.152,149.977,10.443z
		 M139.459,10.443c-0.09,1.77,0.202,3.539,0.857,5.186c0.387,1.06,1.388,1.77,2.516,1.782c2.231,0,3.348-2.321,3.35-6.965
		s-1.105-6.964-3.321-6.962c-1.134,0.003-2.147,0.708-2.544,1.77C139.661,6.902,139.369,8.671,139.459,10.443L139.459,10.443z"/>
	<path id="Caminho_15" fill="#FFFFFF" d="M81.236,34.674h5.437v9.124c-1.555,0.659-3.227,0.993-4.914,0.984
		c-1.893,0.087-3.696-0.804-4.777-2.358c-1.113-1.572-1.67-3.839-1.671-6.8c-0.142-2.386,0.532-4.75,1.91-6.703
		c1.294-1.622,3.288-2.522,5.36-2.42c1.427,0.001,2.828,0.378,4.063,1.092l-1.046,2.7c-0.847-0.536-1.821-0.838-2.823-0.875
		c-1.225-0.016-2.365,0.629-2.982,1.688c-0.803,1.392-1.185,2.986-1.1,4.592c-0.081,1.569,0.192,3.137,0.801,4.586
		c0.371,0.955,1.289,1.586,2.313,1.593c0.55-0.002,1.097-0.071,1.63-0.207v-4.074h-2.2V34.674z"/>
	<path id="Caminho_16" fill="#FFFFFF" d="M97.803,44.538l-1.025-4.488h-4.63l-1.023,4.488h-3.308l4.4-17.857h4.487l4.42,17.857
		H97.803z M96.161,37.115l-0.951-4.137c-0.057-0.251-0.184-0.881-0.381-1.891c-0.201-1.012-0.32-1.684-0.359-2.026
		c-0.104,0.697-0.236,1.466-0.4,2.306c-0.163,0.84-0.586,2.756-1.269,5.748H96.161z"/>
	<path id="Caminho_17" fill="#FFFFFF" d="M102.69,44.539V26.754h3.309v14.891h4.586v2.895H102.69z"/>
	<path id="Caminho_18" fill="#FFFFFF" d="M119.858,26.754h3.331l-4.184,17.785h-4.211l-4.158-17.785h3.331l2.319,10.864
		c0.275,1.314,0.484,2.642,0.625,3.977c0.17-1.467,0.385-2.792,0.643-3.977L119.858,26.754z"/>
	<path id="Caminho_19" fill="#FFFFFF" d="M132.851,44.538l-1.022-4.488h-4.634l-1.024,4.488h-3.312l4.406-17.857h4.494l4.418,17.857
		H132.851z M128.08,24.028c-0.234-0.007-0.457,0.1-0.6,0.287c-0.195,0.315-0.314,0.672-0.35,1.041h-1.713
		c0.004-0.983,0.293-1.944,0.834-2.764c0.652-0.847,1.799-1.136,2.773-0.699c0.272,0.129,0.535,0.278,0.785,0.446
		c0.24,0.16,0.479,0.308,0.7,0.442c0.214,0.13,0.458,0.198,0.708,0.2c0.244,0.016,0.477-0.107,0.6-0.318
		c0.162-0.312,0.271-0.647,0.323-0.994h1.717c-0.01,0.98-0.304,1.937-0.847,2.753c-0.426,0.579-1.104,0.916-1.821,0.906
		c-0.329,0.007-0.654-0.063-0.953-0.2c-0.272-0.127-0.532-0.277-0.78-0.449c-0.239-0.165-0.467-0.314-0.689-0.448
		C128.563,24.101,128.324,24.03,128.08,24.028L128.08,24.028z M131.205,37.118l-0.947-4.137c-0.055-0.25-0.184-0.882-0.383-1.891
		c-0.198-1.009-0.317-1.684-0.358-2.026c-0.101,0.699-0.24,1.467-0.399,2.306c-0.16,0.839-0.584,2.755-1.269,5.748H131.205z"/>
	<path id="Caminho_20" fill="#FFFFFF" d="M149.978,35.622c0.147,2.378-0.431,4.745-1.655,6.789
		c-1.963,2.618-5.677,3.148-8.295,1.186c-0.447-0.336-0.846-0.733-1.182-1.181c-1.1-1.575-1.651-3.848-1.653-6.818
		c0-2.943,0.552-5.199,1.653-6.768c1.076-1.557,2.88-2.446,4.77-2.355c1.879-0.087,3.667,0.81,4.721,2.366
		C149.433,30.418,149.979,32.679,149.978,35.622z M140.572,35.622c-0.079,1.582,0.183,3.163,0.768,4.635
		c0.345,0.947,1.24,1.582,2.248,1.593c1.996,0,2.996-2.076,3-6.229c0.005-4.152-0.986-6.229-2.971-6.226
		c-1.016,0.003-1.922,0.635-2.275,1.586C140.756,32.455,140.492,34.038,140.572,35.622L140.572,35.622z"/>
</g>
</svg>
