<?xml version="1.0" encoding="utf-8"?>
<!-- Generator: Adobe Illustrator 16.0.0, SVG Export Plug-In . SVG Version: 6.00 Build 0)  -->
<!DOCTYPE svg PUBLIC "-//W3C//DTD SVG 1.1//EN" "http://www.w3.org/Graphics/SVG/1.1/DTD/svg11.dtd">
<svg version="1.1" id="Layer_1" xmlns="http://www.w3.org/2000/svg" xmlns:xlink="http://www.w3.org/1999/xlink" x="0px" y="0px"
	 width="136.404px" height="44.994px" viewBox="0 0 136.404 44.994" enable-background="new 0 0 136.404 44.994"
	 xml:space="preserve">
<g>
	<rect id="Retângulo_3_1_" x="55.843" width="80.404" height="44.994"/>
	<g>
		<path fill="#FFFFFF" d="M71.653,32.874v4.076c-0.42,0.244-0.871,0.434-1.35,0.578c-0.479,0.139-0.988,0.211-1.523,0.211
			c-0.78,0-1.513-0.146-2.195-0.439c-0.686-0.297-1.282-0.699-1.793-1.209c-0.512-0.51-0.912-1.107-1.209-1.793
			c-0.295-0.686-0.442-1.418-0.442-2.195c0-0.778,0.147-1.514,0.442-2.205c0.297-0.69,0.697-1.291,1.209-1.801
			c0.511-0.51,1.107-0.914,1.793-1.217c0.684-0.301,1.417-0.449,2.195-0.449c0.535,0,1.045,0.068,1.523,0.205
			c0.479,0.139,0.936,0.332,1.367,0.584l-0.729,1.059c-0.326-0.19-0.668-0.338-1.027-0.44c-0.359-0.106-0.736-0.16-1.139-0.16
			c-0.601,0-1.161,0.117-1.683,0.349s-0.98,0.551-1.374,0.957c-0.396,0.406-0.705,0.877-0.934,1.414
			c-0.227,0.537-0.343,1.104-0.343,1.707c0,0.6,0.114,1.168,0.343,1.707c0.226,0.537,0.537,1.004,0.934,1.396
			c0.394,0.396,0.853,0.709,1.374,0.94c0.521,0.234,1.082,0.347,1.683,0.347c0.547,0,1.068-0.095,1.564-0.283v-2.086h-1.629v-1.246
			h2.939v-0.005H71.653z"/>
		<path fill="#FFFFFF" d="M73.134,36.333h1.287c0.725-1.74,1.457-3.457,2.186-5.16c0.734-1.701,1.465-3.42,2.191-5.158
			c0.727,1.738,1.457,3.457,2.188,5.158c0.732,1.703,1.463,3.42,2.189,5.16h1.305v1.246h-3.496v-1.246h0.877
			c-0.223-0.527-0.441-1.049-0.66-1.564c-0.217-0.514-0.438-1.035-0.658-1.563h-3.484l-1.328,3.129h0.908v1.246h-3.506
			L73.134,36.333L73.134,36.333z M78.938,29.442l-0.158-0.521c-0.01,0.021-0.02,0.062-0.029,0.109
			c-0.014,0.053-0.025,0.11-0.047,0.174c-0.021,0.073-0.051,0.151-0.08,0.235c-0.139,0.308-0.262,0.607-0.379,0.904
			c-0.105,0.252-0.219,0.525-0.332,0.82c-0.117,0.297-0.225,0.559-0.314,0.789h2.404L78.938,29.442z"/>
		<path fill="#FFFFFF" d="M85.546,36.333h0.885v-8.564h-0.885v-1.246h3.508v1.244h-1.313v8.564h4.473v-1.184h1.25v2.432h-7.918
			V36.333z"/>
		<path fill="#FFFFFF" d="M93.251,26.522h3.822v1.244h-1.145c0.496,1.147,0.982,2.297,1.461,3.444
			c0.48,1.146,0.969,2.297,1.463,3.442l0.143,0.521l0.143-0.521c0.498-1.146,0.986-2.295,1.471-3.438
			c0.48-1.143,0.965-2.293,1.453-3.453h-0.926v-1.242h3.809v1.244h-1.572c-0.727,1.74-1.457,3.459-2.189,5.16
			c-0.732,1.703-1.463,3.422-2.189,5.158c-0.727-1.736-1.455-3.455-2.188-5.158c-0.734-1.701-1.463-3.42-2.189-5.16h-1.365v-1.244
			l0,0V26.522z"/>
		<path fill="#FFFFFF" d="M115.76,36.333c-0.727-1.74-1.457-3.457-2.189-5.16c-0.732-1.701-1.461-3.42-2.188-5.158
			c-0.729,1.738-1.457,3.457-2.189,5.158c-0.732,1.703-1.463,3.42-2.188,5.16h-1.289l0.002,1.246h3.508v-1.246h-0.908l1.328-3.129
			h3.484c0.223,0.529,0.441,1.051,0.658,1.564c0.219,0.516,0.439,1.037,0.66,1.563h-0.877v1.246h3.492v-1.246L115.76,36.333
			L115.76,36.333z M110.178,31.956c0.096-0.23,1.176-3.012,1.188-3.033l1.223,3.033H110.178z"/>
		<path fill="#FFFFFF" d="M117.423,32.067c0-0.771,0.146-1.5,0.441-2.189s0.697-1.293,1.209-1.809
			c0.51-0.517,1.107-0.926,1.791-1.226c0.688-0.301,1.416-0.45,2.197-0.45c0.77,0,1.498,0.149,2.188,0.45
			c0.689,0.3,1.295,0.707,1.809,1.226c0.516,0.516,0.924,1.119,1.227,1.809c0.301,0.689,0.451,1.42,0.451,2.189
			c0,0.781-0.15,1.51-0.451,2.195c-0.303,0.686-0.709,1.28-1.227,1.793c-0.514,0.508-1.117,0.911-1.809,1.207
			c-0.689,0.297-1.418,0.444-2.188,0.444c-0.783,0-1.512-0.147-2.197-0.444c-0.684-0.296-1.281-0.699-1.791-1.207
			c-0.512-0.513-0.914-1.107-1.209-1.793S117.423,32.847,117.423,32.067z M118.733,32.058c0,0.609,0.111,1.178,0.342,1.707
			c0.227,0.529,0.537,0.988,0.932,1.385c0.395,0.39,0.855,0.703,1.383,0.937c0.527,0.229,1.092,0.345,1.691,0.345
			c0.602,0,1.164-0.117,1.689-0.345c0.527-0.229,0.986-0.547,1.383-0.937c0.395-0.395,0.703-0.854,0.934-1.385
			c0.227-0.529,0.342-1.098,0.342-1.707c0-0.606-0.115-1.174-0.342-1.703c-0.229-0.53-0.539-0.994-0.934-1.393
			c-0.395-0.396-0.855-0.711-1.383-0.943c-0.525-0.229-1.09-0.346-1.689-0.346c-0.602,0-1.164,0.117-1.691,0.346
			c-0.527,0.23-0.986,0.545-1.383,0.943c-0.395,0.398-0.705,0.865-0.932,1.393C118.846,30.884,118.733,31.45,118.733,32.058z"/>
	</g>
	<g>
		<path fill="#FFFFFF" d="M61.572,19.464h0.897V8.646h-0.897V7.067h4.554c0.649,0,1.247,0.068,1.786,0.201
			c0.537,0.133,0.999,0.338,1.376,0.619c0.381,0.279,0.676,0.643,0.889,1.088c0.215,0.445,0.32,0.975,0.32,1.586
			c0,0.826-0.197,1.551-0.592,2.178c-0.393,0.625-0.986,1.051-1.784,1.275c0.372,0.08,0.733,0.213,1.089,0.4
			c0.352,0.186,0.656,0.426,0.918,0.719c0.26,0.293,0.469,0.631,0.629,1.018c0.158,0.387,0.238,0.818,0.238,1.297
			c0,0.6-0.127,1.121-0.381,1.566c-0.252,0.447-0.588,0.818-1.008,1.119c-0.42,0.299-0.9,0.525-1.446,0.678
			c-0.547,0.154-1.104,0.23-1.678,0.23h-4.911L61.572,19.464L61.572,19.464z M64.128,8.646v4.57h2.153
			c0.785,0,1.407-0.219,1.866-0.658s0.689-1.018,0.689-1.736c0-0.785-0.239-1.344-0.719-1.678c-0.479-0.332-1.105-0.498-1.878-0.498
			H64.128z M64.128,14.794v4.67h2.215c0.413,0,0.8-0.047,1.158-0.139c0.357-0.094,0.675-0.236,0.946-0.43
			c0.272-0.191,0.489-0.43,0.647-0.709c0.16-0.277,0.24-0.611,0.24-0.998c0-0.41-0.094-0.77-0.279-1.076
			c-0.186-0.309-0.43-0.557-0.729-0.75c-0.3-0.193-0.648-0.336-1.05-0.43c-0.397-0.092-0.805-0.139-1.218-0.139L64.128,14.794
			L64.128,14.794z"/>
		<path fill="#FFFFFF" d="M72.391,19.464h0.898V8.646h-0.898V7.067h4.191c0.453,0,0.955,0.07,1.508,0.211
			c0.553,0.141,1.064,0.361,1.547,0.668c0.48,0.307,0.879,0.699,1.197,1.178c0.316,0.479,0.479,1.059,0.479,1.736
			c0,0.998-0.25,1.832-0.75,2.506c-0.498,0.672-1.229,1.113-2.186,1.326l2.234,4.771h1.875v1.576h-2.912l-2.936-6.229H75.78h-0.838
			v4.652h2.275v1.576h-4.83v-1.576h0.004V19.464z M74.946,13.196h1.736c0.586,0,1.066-0.076,1.447-0.229
			c0.379-0.152,0.682-0.342,0.908-0.566c0.225-0.224,0.385-0.477,0.479-0.756c0.094-0.277,0.139-0.543,0.139-0.795
			c0-0.291-0.074-0.568-0.229-0.834c-0.15-0.266-0.357-0.5-0.617-0.705c-0.26-0.207-0.572-0.369-0.938-0.486
			c-0.365-0.119-0.756-0.18-1.168-0.18h-1.758V13.196L74.946,13.196z"/>
		<path fill="#FFFFFF" d="M83.887,7.067h4.832v1.578h-1.637v7.824c0,0.506,0.082,0.955,0.248,1.348s0.398,0.723,0.697,0.988
			c0.301,0.265,0.656,0.469,1.066,0.607c0.412,0.139,0.865,0.211,1.357,0.211c0.49,0,0.943-0.07,1.355-0.211
			c0.412-0.141,0.771-0.342,1.066-0.607c0.301-0.266,0.535-0.596,0.709-0.988s0.26-0.842,0.26-1.348V8.646h-1.637V7.067h4.83v1.578
			h-1.537v7.885c0,0.758-0.129,1.43-0.391,2.016c-0.26,0.586-0.613,1.074-1.066,1.467c-0.451,0.393-0.982,0.688-1.598,0.887
			c-0.611,0.201-1.275,0.301-1.996,0.301c-0.719,0-1.385-0.102-1.994-0.301c-0.613-0.197-1.146-0.494-1.6-0.887
			c-0.451-0.393-0.807-0.881-1.059-1.467s-0.379-1.258-0.379-2.016V8.646H83.88V7.067H83.887z"/>
		<path fill="#FFFFFF" d="M98.44,19.464h1.736V8.646H98.44V7.067h2.314l9.643,10.439l0.379,0.52l-0.061-0.639V8.646h-1.439V7.067
			h4.832v1.578h-1.736v13.033l-10.221-10.857l-0.379-0.52l0.061,0.639v8.523h1.438v1.578h-4.832v-1.577H98.44z"/>
		<path fill="#FFFFFF" d="M115.913,14.075c0-0.973,0.188-1.895,0.561-2.766s0.881-1.633,1.525-2.285
			c0.646-0.652,1.398-1.168,2.268-1.547c0.863-0.379,1.789-0.568,2.773-0.568c0.973,0,1.895,0.189,2.766,0.568
			s1.633,0.896,2.285,1.547c0.65,0.652,1.168,1.414,1.547,2.285s0.568,1.793,0.568,2.766c0,0.984-0.189,1.908-0.568,2.773
			c-0.379,0.865-0.896,1.621-1.547,2.266c-0.652,0.646-1.414,1.154-2.285,1.527s-1.793,0.559-2.766,0.559
			c-0.984,0-1.908-0.186-2.773-0.559s-1.621-0.881-2.268-1.527s-1.152-1.4-1.525-2.266C116.1,15.983,115.913,15.06,115.913,14.075z
			 M117.571,14.063c0,0.77,0.143,1.486,0.43,2.154c0.285,0.668,0.68,1.252,1.178,1.748c0.5,0.496,1.082,0.889,1.748,1.182
			c0.664,0.291,1.377,0.438,2.135,0.438c0.76,0,1.471-0.146,2.137-0.438c0.666-0.293,1.248-0.686,1.746-1.182
			c0.5-0.496,0.893-1.08,1.18-1.748c0.285-0.668,0.43-1.385,0.43-2.154c0-0.768-0.145-1.484-0.43-2.152
			c-0.287-0.668-0.682-1.254-1.18-1.758c-0.498-0.504-1.08-0.9-1.746-1.191s-1.377-0.438-2.137-0.438
			c-0.758,0-1.471,0.146-2.135,0.438c-0.666,0.293-1.248,0.688-1.748,1.191c-0.498,0.503-0.893,1.09-1.178,1.758
			C117.714,12.579,117.571,13.298,117.571,14.063z"/>
	</g>
	<rect id="Retângulo_3_4_" x="0" fill="#FFFFFF" width="55.843" height="44.994"/>
	<polygon points="10.709,7 5.219,7 10.668,37 15.304,37 	"/>
	<polygon points="24.709,7 19.219,7 24.668,37 29.304,37 	"/>
	<polygon fill="#FFFFFF" points="113.897,24.185 113.897,23.233 108.7,24.178 108.7,24.979 	"/>
	<path d="M47.59,10.841C45.679,8.272,42.621,7,39.422,7h-7.736v5h5l0,0h2.525c3.705,0,5.557,3,5.557,10h0.004
		c-0.002,3-0.485,5.862-1.465,7.571C42.42,31.229,40.661,32,38.779,32h-2.094l0,0h-5v5h7.062c3.797,0,6.705-1.315,8.727-3.94
		c2.023-2.625,3.033-6.4,3.033-11.367C50.51,17.028,49.539,13.425,47.59,10.841z"/>
</g>
</svg>
