<?xml version="1.0" encoding="utf-8"?>
<!-- Generator: Adobe Illustrator 16.0.0, SVG Export Plug-In . SVG Version: 6.00 Build 0)  -->
<!DOCTYPE svg PUBLIC "-//W3C//DTD SVG 1.1//EN" "http://www.w3.org/Graphics/SVG/1.1/DTD/svg11.dtd">
<svg version="1.1" id="Layer_1" xmlns="http://www.w3.org/2000/svg" xmlns:xlink="http://www.w3.org/1999/xlink" x="0px" y="0px"
	 width="595.279px" height="584.971px" viewBox="0 0 595.279 584.971" enable-background="new 0 0 595.279 584.971"
	 xml:space="preserve">
<path d="M503.326,556.816V29.189c0-4.556-3.69-8.244-8.246-8.244H194.825c-0.105,0-0.194,0.057-0.297,0.061
	c-0.863,0.037-1.697,0.204-2.505,0.505c-0.206,0.074-0.409,0.125-0.604,0.215c-0.863,0.399-1.683,0.904-2.381,1.603l-0.004,0.004
	c-0.022,0.023-0.042,0.043-0.063,0.065l-93.879,93.879c-0.006,0.004-0.01,0.014-0.016,0.02c-0.687,0.693-1.188,1.499-1.583,2.35
	c-0.116,0.249-0.182,0.507-0.274,0.765c-0.249,0.712-0.397,1.44-0.442,2.194c-0.012,0.176-0.102,0.323-0.102,0.499l0.17,433.713
	c0,4.56,3.695,8.246,8.244,8.246H495.08C499.636,565.063,503.326,561.376,503.326,556.816z M186.622,49.059v65.8h-65.8
	L186.622,49.059z M486.834,548.574H109.333l-0.166-417.225h85.699c4.558,0,8.244-3.688,8.244-8.246v-85.67h283.724V548.574z"/>
<path d="M236.966,162.168c-1.2,2.585-2.28,5.258-3.221,8.011l-27.131,3.446c-4.123,0.522-7.207,4.025-7.207,8.179v31.632
	c0,4.154,3.084,7.655,7.207,8.18l27.558,3.493c0.933,2.546,1.988,5.049,3.164,7.489l-17.06,22.018
	c-2.536,3.286-2.247,7.939,0.693,10.878l22.364,22.365c2.947,2.947,7.608,3.229,10.876,0.685l22.253-17.238
	c2.327,1.08,4.726,2.063,7.197,2.931l3.552,27.975c0.522,4.125,4.025,7.209,8.179,7.209h7.567v48.78H193.103
	c-4.557,0-8.244,3.687-8.244,8.242v56.83c-17.494,3.796-30.658,19.364-30.658,37.979c0,21.446,17.453,38.901,38.902,38.901
	c21.447,0,38.902-17.455,38.902-38.901c0-18.614-13.164-34.183-30.658-37.979V374.69h101.611v48.584
	c-17.494,3.796-30.658,19.364-30.658,37.979c0,21.446,17.455,38.901,38.904,38.901c21.447,0,38.901-17.455,38.901-38.901
	c0-18.614-13.165-34.183-30.659-37.979V374.69h101.614v48.584c-17.494,3.796-30.659,19.364-30.659,37.979
	c0,21.446,17.454,38.901,38.901,38.901s38.902-17.455,38.902-38.901c0-18.614-13.166-34.183-30.66-37.979v-56.83
	c0-4.556-3.687-8.242-8.242-8.242H319.446v-48.78h7.577c4.156,0,7.654-3.092,8.179-7.209l3.554-27.975
	c2.462-0.869,4.861-1.851,7.186-2.931l22.253,17.238c3.272,2.544,7.938,2.262,10.881-0.685l22.362-22.365
	c2.939-2.939,3.229-7.592,0.692-10.878l-17.06-22.018c1.175-2.44,2.231-4.936,3.162-7.489l27.568-3.493
	c4.125-0.524,7.209-4.025,7.209-8.18v-31.632c0-4.154-3.084-7.657-7.209-8.179l-27.13-3.446c-0.951-2.745-2.023-5.426-3.232-8.011
	l16.684-21.537c2.544-3.276,2.255-7.937-0.685-10.876l-22.362-22.374c-2.928-2.938-7.608-3.229-10.881-0.683l-21.31,16.504
	c-2.688-1.297-5.459-2.448-8.293-3.454l-3.39-26.721c-0.524-4.115-4.022-7.207-8.179-7.207h-31.633
	c-4.154,0-7.657,3.084-8.179,7.207l-3.389,26.721c-2.836,1.005-5.604,2.156-8.301,3.454l-21.312-16.504
	c-3.26-2.536-7.937-2.272-10.876,0.683l-22.364,22.374c-2.939,2.939-3.229,7.601-0.685,10.876L236.966,162.168z M215.517,461.253
	c0,12.359-10.056,22.417-22.414,22.417s-22.414-10.058-22.414-22.417s10.056-22.414,22.414-22.414S215.517,448.894,215.517,461.253z
	 M333.617,461.253c0,12.359-10.054,22.417-22.413,22.417s-22.416-10.058-22.416-22.417c0-12.32,9.998-22.344,22.306-22.402
	c0.039,0,0.07,0.023,0.109,0.023s0.066-0.023,0.105-0.023C323.618,438.909,333.617,448.933,333.617,461.253z M451.717,461.253
	c0,12.359-10.055,22.417-22.414,22.417s-22.413-10.058-22.413-22.417s10.054-22.414,22.413-22.414S451.717,448.894,451.717,461.253z
	 M249.855,124.176l19.756,15.304c2.632,2.061,6.256,2.286,9.139,0.644c4.62-2.64,9.604-4.718,14.797-6.168
	c3.196-0.885,5.547-3.606,5.966-6.898l3.139-24.75h17.106l3.132,24.75c0.422,3.292,2.771,6.013,5.968,6.898
	c5.201,1.458,10.188,3.528,14.798,6.168c2.888,1.642,6.505,1.417,9.139-0.644l19.756-15.304l12.093,12.099l-15.432,19.926
	c-2.022,2.608-2.297,6.168-0.696,9.05c2.489,4.476,4.462,9.387,5.879,14.596c0.868,3.221,3.608,5.604,6.919,6.021l25.204,3.198
	v17.108l-25.529,3.237c-3.26,0.418-5.956,2.72-6.876,5.876c-1.433,4.912-3.437,9.653-5.965,14.089
	c-1.651,2.898-1.393,6.497,0.643,9.13l15.854,20.465l-12.093,12.093l-20.637-15.981c-2.599-2.029-6.156-2.295-9.041-0.701
	c-4.242,2.35-8.907,4.258-13.886,5.667c-3.178,0.902-5.514,3.616-5.933,6.892l-3.296,25.987h-17.106l-3.303-25.987
	c-0.415-3.276-2.751-5.99-5.931-6.892c-4.977-1.409-9.646-3.317-13.888-5.667c-2.875-1.603-6.442-1.336-9.041,0.701l-20.635,15.981
	l-12.093-12.093l15.852-20.465c2.037-2.634,2.295-6.232,0.644-9.13c-2.536-4.444-4.532-9.178-5.949-14.074
	c-0.918-3.164-3.624-5.473-6.884-5.892l-25.529-3.237v-17.108l25.206-3.198c3.309-0.417,6.046-2.8,6.917-6.021
	c1.417-5.233,3.397-10.137,5.869-14.596c1.603-2.882,1.329-6.442-0.692-9.05l-15.434-19.926L249.855,124.176z"/>
<path d="M311.204,247.879c27.709,0,50.251-22.543,50.251-50.255c0-27.711-22.542-50.261-50.251-50.261
	c-27.713,0-50.255,22.55-50.255,50.261C260.949,225.336,283.491,247.879,311.204,247.879z M311.204,163.851
	c18.621,0,33.767,15.152,33.767,33.773c0,18.623-15.146,33.767-33.767,33.767c-18.623,0-33.767-15.144-33.767-33.767
	C277.437,179.003,292.581,163.851,311.204,163.851z"/>
</svg>
