<svg xmlns="http://www.w3.org/2000/svg" xmlns:xlink="http://www.w3.org/1999/xlink" width="1920" height="300" viewBox="0 0 1920 300"><defs><clipPath id="a"><rect width="1920" height="298" fill="#fff"/></clipPath><linearGradient id="b" x1="-0.067" y1="0.099" x2="1.181" y2="0.982" gradientUnits="objectBoundingBox"><stop offset="0" stop-color="#00e9ff"/><stop offset="1" stop-color="#0000af"/></linearGradient><clipPath id="c"><rect width="1366.469" height="1945.548" fill="none"/></clipPath><linearGradient id="d" x1="0.5" x2="0.5" y2="1" gradientUnits="objectBoundingBox"><stop offset="0" stop-color="#fff" stop-opacity="0"/><stop offset="0.477" stop-color="#fff" stop-opacity="0.165"/><stop offset="1" stop-color="#fff"/></linearGradient></defs><g clip-path="url(#a)"><g transform="translate(0 0)"><rect width="1366.469" height="1945.548" transform="translate(0 1366.47) rotate(-90)" fill="url(#b)"/><g transform="translate(0 1366.469) rotate(-90)"><g clip-path="url(#c)"><g transform="translate(-146.829 157.081)" opacity="0.6" style="mix-blend-mode:overlay;isolation:isolate"><path d="M1874.568,0c-102.338,13.5-174.416,107.966-161,210.982h.009C1726.983,314.007,1404.739,215,1302.4,228.5h0c-102.329,13.51-174.416,107.966-161,210.991h0c13.411,103.016,191.491,390.949,89.162,404.451h-.009c-512.935-31.646-19.111,245.169-5.7,348.194h0c13.42,103.016-58.667,197.472-161,210.982h0c-102.329,13.5-329.711-29.246-316.3,73.779h0C760.973,1579.91,264.94,1346.49,162.61,1360h0c-102.338,13.5-174.416,107.958-161,210.983h0C15.017,1674,366.895,2096.34,264.566,2109.841h0c-102.338,13.5-174.425,107.966-161,210.982" transform="translate(0)" fill="none" stroke="#fff" stroke-linecap="round" stroke-linejoin="round" stroke-width="2" stroke-dasharray="0 5"/><path d="M1846.309,0c-102.338,13.51-174.415,107.966-161,210.982h0c13.42,103.016-292.149,16.909-394.478,30.419h0c-102.338,13.5-174.416,107.966-161,210.982h0c13.42,103.016,174.816,378.044,72.487,391.545h0c-485.573-28.624-3.211,256.34,10.2,359.356h0c13.42,103.025-58.666,197.481-161,210.991h0c-102.338,13.5-345.621-40.407-332.209,62.609h0c13.411,103.016-454.364-108.536-556.693-95.026h0c-102.329,13.5-174.416,107.957-161,210.982h0c13.42,103.016,337.031,503.5,234.7,517H236.3c-102.329,13.51-174.407,107.966-161,210.982" transform="translate(36.892 6.676)" fill="none" stroke="#fff" stroke-linecap="round" stroke-linejoin="round" stroke-width="1.883" stroke-dasharray="0 5"/><path d="M1818.042,0c-102.329,13.5-174.416,107.966-161,210.982h0c13.411,103.025-275.475,29.815-377.8,43.316h0c-102.338,13.5-174.415,107.966-161,210.982h0c13.42,103.025,158.141,365.147,55.812,378.657h-.009c-458.184-25.627,12.7,267.493,26.118,370.509h0c13.411,103.025-58.666,197.481-161,210.982h0c-102.329,13.51-361.521-51.56-348.109,51.456h0c13.411,103.025-426.1-86.676-528.426-73.166h0c-102.338,13.5-174.416,107.958-161,210.982h0c13.42,103.016,308.763,481.63,206.426,495.14h0c-102.33,13.5-174.416,107.966-161,210.982" transform="translate(73.792 13.352)" fill="none" stroke="#fff" stroke-linecap="round" stroke-linejoin="round" stroke-width="1.767" stroke-dasharray="0 5"/><path d="M1789.784,0c-102.338,13.51-174.416,107.966-161,210.982v.009c13.42,103.016-258.791,42.7-361.129,56.2h0c-102.329,13.51-174.416,107.966-161,210.982h0c13.42,103.016,141.467,352.259,39.137,365.76h0c-430.822-22.613,28.6,278.656,42.018,381.671h0c13.411,103.025-58.675,197.481-161,210.982h0c-102.329,13.51-377.43-62.723-364.018,40.3h0c13.411,103.016-397.829-64.834-500.167-51.324h0c-102.329,13.5-174.416,107.966-161,210.991h.009c13.411,103.007,280.5,459.779,178.167,473.28h0c-102.338,13.5-174.416,107.958-161,210.982" transform="translate(110.685 20.029)" fill="none" stroke="#fff" stroke-linecap="round" stroke-linejoin="round" stroke-width="1.65" stroke-dasharray="0 5"/><path d="M1772.613,0c-102.338,13.51-174.416,107.966-161,210.982h0c13.411,103.025-242.116,55.608-344.445,69.11h-.009c-102.329,13.51-174.407,107.966-161,210.991h0c13.411,103.016,124.783,339.345,22.454,352.855h0c-403.451-19.608,44.507,289.826,57.927,392.833h0c13.411,103.025-58.676,197.481-161,210.982h0c-102.338,13.51-393.339-73.885-379.928,29.14h0c13.411,103.007-369.571-42.966-471.9-29.464h0C71.368,1460.931-.709,1555.4,12.7,1658.412h0c13.42,103.025,252.238,437.928,149.9,451.429h0c-102.329,13.51-174.407,107.966-161,210.982" transform="translate(136.489 26.705)" fill="none" stroke="#fff" stroke-linecap="round" stroke-linejoin="round" stroke-width="1.533" stroke-dasharray="0 5"/><path d="M1772.606,0c-102.329,13.5-174.408,107.966-161,210.991h0c13.411,103.016-225.441,68.5-327.77,82h0c-102.339,13.51-174.416,107.966-161,210.982h0c13.411,103.025,108.108,326.457,5.77,339.967h0c-376.064-16.585,60.424,300.988,73.835,404h0c13.411,103.016-58.666,197.481-161,210.982h0c-102.329,13.493-409.239-85.046-395.828,17.961h0c13.42,103.025-341.3-21.1-443.641-7.6h0c-102.329,13.5-174.416,107.966-161,210.982h0c13.411,103.025,223.97,416.06,121.632,429.57h0c-102.329,13.5-174.416,107.966-161,210.991" transform="translate(145.12 33.381)" fill="none" stroke="#fff" stroke-linecap="round" stroke-linejoin="round" stroke-width="1.417" stroke-dasharray="0 5"/><path d="M1772.613,0c-102.338,13.51-174.416,107.966-161,210.982v.009c13.411,103.016-208.766,81.393-311.1,94.9h0c-102.329,13.5-174.416,107.966-161,210.982h0c13.411,103.016,91.425,313.561-10.9,327.062h0c-348.7-13.58,76.325,312.141,89.736,415.166h0c13.411,103.016-58.675,197.481-161,210.983h0c-102.329,13.5-425.148-96.218-411.737,6.807h0c13.411,103.016-313.045.753-415.375,14.255h0c-102.338,13.5-174.416,107.966-161,210.982h0c13.42,103.025,195.7,394.209,93.374,407.71h0c-102.329,13.5-174.407,107.966-161,210.982" transform="translate(153.755 40.057)" fill="none" stroke="#fff" stroke-linecap="round" stroke-linejoin="round" stroke-width="1.3" stroke-dasharray="0 5"/><path d="M1772.606,0c-102.329,13.51-174.407,107.966-161,210.982h0c13.411,103.025-192.083,94.3-294.421,107.808h0c-102.329,13.5-174.416,107.958-161,210.982h0c13.411,103.016,74.749,300.664-27.589,314.165h0c-321.313-10.566,92.234,323.3,105.645,426.328h0c13.42,103.016-58.667,197.481-161,210.982h0c-102.329,13.5-441.065-107.379-427.646-4.354h0c13.411,103.016-284.778,22.613-387.116,36.114h0c-102.33,13.5-174.416,107.966-161,210.982h0c13.411,103.025,167.445,372.349,65.107,385.85h0c-102.329,13.51-174.416,107.966-161,210.982" transform="translate(162.387 46.733)" fill="none" stroke="#fff" stroke-linecap="round" stroke-linejoin="round" stroke-width="1.183" stroke-dasharray="0 5"/><path d="M1772.615,0c-102.339,13.5-174.416,107.958-161,210.982h0c13.42,103.016-175.408,107.2-277.746,120.7h0c-102.329,13.5-174.416,107.966-161,210.982h0c13.411,103.016,58.075,287.767-44.254,301.268h0c-293.951-7.561,108.134,334.465,121.545,437.49h0c13.42,103.016-58.666,197.481-161,210.982h0c-102.329,13.5-456.966-118.532-443.555-15.525h0c13.411,103.025-256.52,44.481-358.849,57.983h0c-102.329,13.5-174.416,107.966-161,210.982h0c13.411,103.025,139.177,350.49,36.839,364h0c-102.329,13.5-174.416,107.958-161,210.982" transform="translate(171.02 53.418)" fill="none" stroke="#fff" stroke-linecap="round" stroke-linejoin="round" stroke-width="1.067" stroke-dasharray="0 5"/><path d="M1772.606,0c-102.329,13.51-174.407,107.966-161,210.991h0c13.411,103.016-158.733,120.092-261.062,133.593h0c-102.339,13.5-174.416,107.966-161,210.982h0c13.42,103.025,41.4,274.87-60.938,288.371h0c-266.571-4.556,124.052,345.627,137.463,448.652h0c13.421,103.016-58.666,197.472-161,210.983h0c-102.338,13.5-472.875-129.7-459.464-26.687v.009c13.411,103.016-228.252,66.323-330.59,79.825h0c-102.329,13.51-174.407,107.975-161,210.982h0c13.411,103.025,110.919,328.639,8.581,342.14h0c-102.329,13.5-174.416,107.966-161,210.982" transform="translate(179.653 60.085)" fill="none" stroke="#fff" stroke-linecap="round" stroke-linejoin="round" stroke-width="0.95" stroke-dasharray="0 5"/><path d="M1772.613,0c-102.329,13.5-174.415,107.958-161,210.982h0c13.411,103.016-142.058,132.989-244.388,146.49h0c-102.33,13.5-174.416,107.966-161,210.982h0c13.42,103.025,24.725,261.973-77.613,275.484h0c-239.2-1.551,139.952,356.78,153.372,459.8h0c13.411,103.016-58.666,197.472-161,210.982h0c-102.329,13.5-488.784-140.865-475.364-37.84h0c13.411,103.016-199.994,88.183-302.323,101.685h0c-102.329,13.51-174.416,107.966-161,210.982h0c13.411,103.025,82.652,306.779-19.686,320.281h0c-102.329,13.51-174.416,107.966-161,210.982" transform="translate(188.28 66.77)" fill="none" stroke="#fff" stroke-linecap="round" stroke-linejoin="round" stroke-width="0.833" stroke-dasharray="0 5"/><path d="M1772.606,0c-102.329,13.5-174.407,107.957-161,210.982h0C1625.021,314,1486.226,356.868,1383.9,370.369v.009c-102.329,13.5-174.407,107.958-161,210.982h0c13.411,103.016,8.032,249.068-94.3,262.569h0c-211.821,1.463,155.861,367.96,169.281,470.967v.009c13.411,103.016-58.666,197.472-161,210.982h0c-102.329,13.5-504.684-152.019-491.273-49h0c13.411,103.016-171.727,110.043-274.056,123.544h0c-102.329,13.51-174.416,107.966-161,210.982v.009c13.411,103.016,54.385,284.911-47.945,298.421h0c-102.329,13.5-174.416,107.958-161,210.982" transform="translate(196.92 73.447)" fill="none" stroke="#fff" stroke-linecap="round" stroke-linejoin="round" stroke-width="0.717" stroke-dasharray="0 5"/><path d="M1772.613,0c-102.329,13.51-174.416,107.966-161,210.991h0c13.411,103.016-108.7,158.782-211.038,172.292h0c-102.329,13.5-174.407,107.957-161,210.982h0c13.411,103.016-8.633,236.171-110.971,249.672h0c-184.451,4.477,171.77,379.122,185.19,482.129h0c13.411,103.025-58.675,197.481-161,210.991h0c-102.338,13.51-520.6-163.18-507.182-60.164h0c13.411,103.016-143.459,131.9-245.8,145.4h0c-102.329,13.51-174.407,107.966-161,210.983v.009c13.411,103.016,26.126,263.051-76.212,276.552h0c-102.329,13.5-174.416,107.975-161,210.983" transform="translate(205.547 80.114)" fill="none" stroke="#fff" stroke-linecap="round" stroke-linejoin="round" stroke-width="0.6" stroke-dasharray="0 5"/><path d="M1772.621,0c-102.338,13.5-174.415,107.958-161,210.982h0c13.411,103.016-92.025,171.679-194.354,185.189h0c-102.339,13.5-174.416,107.966-161,210.982h0c13.411,103.016-25.308,223.274-127.646,236.776h0c-157.08,7.482,187.679,390.283,201.09,493.3h0c13.411,103.016-58.667,197.481-161,210.982h-.008c-102.33,13.51-536.494-174.351-523.083-71.326h0c13.411,103.016-115.2,153.762-217.53,167.272h0c-102.329,13.5-174.416,107.958-161,210.982h0c13.42,103.016-2.141,241.192-104.47,254.693h0c-102.329,13.51-174.416,107.966-161,210.982" transform="translate(214.18 86.799)" fill="none" stroke="#fff" stroke-linecap="round" stroke-linejoin="round" stroke-width="0.483" stroke-dasharray="0 5"/><path d="M1772.606,0c-102.329,13.5-174.416,107.966-161,210.982h0c13.411,103.016-75.35,184.584-177.679,198.086h0c-102.338,13.5-174.416,107.966-161,210.982h0c13.42,103.025-41.992,210.378-144.321,223.879h0c-129.709,10.5,203.588,401.446,217,504.462h0c13.411,103.025-58.666,197.481-161,210.982h-.009c-102.329,13.51-552.411-185.5-538.991-82.488h0c13.411,103.025-86.934,175.622-189.263,189.131h0c-102.338,13.5-174.416,107.958-161,210.982h0c13.411,103.007-30.4,219.332-132.737,232.842h0c-102.338,13.5-174.416,107.958-161,210.982" transform="translate(222.82 93.475)" fill="none" stroke="#fff" stroke-linecap="round" stroke-linejoin="round" stroke-width="0.367" stroke-dasharray="0 5"/><path d="M1772.613,0c-102.329,13.5-174.416,107.958-161,210.982h0c13.411,103.016-58.666,197.481-161,210.982h0c-102.329,13.5-174.416,107.966-161,210.982h0c13.42,103.016-58.658,197.481-161,210.982h0c-102.329,13.5,219.5,412.608,232.908,515.624h0c13.411,103.025-58.675,197.481-161,210.983h0c-102.329,13.51-568.32-196.667-554.909-93.659h0c13.42,103.025-58.667,197.481-161,210.991h0c-102.329,13.51-174.416,107.966-161,210.991h0c13.42,103.007-58.667,197.481-161,210.982h0c-102.329,13.5-174.416,107.958-161,210.982" transform="translate(231.447 100.151)" fill="none" stroke="#fff" stroke-linecap="round" stroke-linejoin="round" stroke-width="0.25" stroke-dasharray="0 5"/></g><g transform="translate(-159.191 -555.603)" opacity="0.2" style="mix-blend-mode:overlay;isolation:isolate"><path d="M0,1767.149c77.917-10.286,132.8-82.208,122.59-160.648h0c-10.217-78.44,235.154-3.058,313.071-13.335h0c77.917-10.286,132.807-82.208,122.59-160.648h0c-10.217-78.44-145.809-297.685-67.892-307.971h0c166.1-169.839,14.56-186.678,4.351-265.119h0c-10.217-78.449,44.664-150.371,122.581-160.648h0c77.926-10.286,251.054,22.263,240.845-56.178v-.009c-10.217-78.44,367.482,99.292,445.4,89.015h0c77.926-10.286,132.807-82.208,122.59-160.657h0c-10.208-78.441-278.138-400.026-200.22-410.3h0C1303.824,150.362,1358.714,78.44,1348.5,0" transform="translate(98.604 76.259)" fill="none" stroke="#fff" stroke-linecap="round" stroke-linejoin="round" stroke-width="2" stroke-dasharray="0 5"/><path d="M0,1767.149c77.918-10.286,132.807-82.208,122.59-160.648h0c-10.209-78.44,222.456-12.879,300.382-23.165h0c77.918-10.277,132.8-82.2,122.581-160.64h0c-10.208-78.449-133.1-287.863-55.185-298.149h0C650.589,965.336,492.813,929.37,482.6,850.93h0c-10.209-78.449,44.672-150.371,122.59-160.657h0c77.926-10.277,263.169,30.77,252.952-47.679h0c-10.209-78.441,345.969,82.655,423.886,72.369h0c77.927-10.286,132.807-82.208,122.59-160.657h0c-10.208-78.44-256.615-383.38-178.7-393.657h0c77.918-10.286,132.8-82.208,122.59-160.648" transform="translate(92.025 71.177)" fill="none" stroke="#fff" stroke-linecap="round" stroke-linejoin="round" stroke-width="1.883" stroke-dasharray="0 5"/><path d="M0,1767.149c77.917-10.286,132.807-82.208,122.59-160.648h0c-10.209-78.441,209.758-22.7,287.676-32.987h0c77.917-10.286,132.807-82.208,122.59-160.648h0c-10.209-78.44-120.405-278.042-42.488-288.319h0c154.338-148.575-9.669-203.675-19.886-282.125h0c-10.209-78.44,44.672-150.362,122.6-160.648h0c77.917-10.286,275.274,39.26,265.057-39.181h0c-10.208-78.44,324.446,66.008,402.364,55.722h0c77.917-10.286,132.807-82.208,122.589-160.648v-.009c-10.217-78.432-235.1-366.733-157.175-377.01h0C1303.833,150.362,1358.722,78.44,1348.505,0" transform="translate(85.454 66.096)" fill="none" stroke="#fff" stroke-linecap="round" stroke-linejoin="round" stroke-width="1.767" stroke-dasharray="0 5"/><path d="M0,1767.158c77.918-10.286,132.8-82.208,122.59-160.657h0c-10.217-78.44,197.052-32.514,274.97-42.8h.009c77.918-10.286,132.807-82.208,122.59-160.648h0c-10.217-78.44-107.717-268.22-29.8-278.5h0c148.464-137.939-21.775-212.183-31.992-290.623h0c-10.217-78.441,44.672-150.363,122.59-160.648h0c77.926-10.286,287.4,47.758,277.18-30.682h0c-10.217-78.441,302.924,49.361,380.841,39.076h0c77.917-10.286,132.807-82.208,122.59-160.648h0c-10.217-78.449-213.579-350.1-135.661-360.381h0C1303.833,150.371,1358.714,78.44,1348.5,0" transform="translate(78.884 61.005)" fill="none" stroke="#fff" stroke-linecap="round" stroke-linejoin="round" stroke-width="1.65" stroke-dasharray="0 5"/><path d="M0,1767.158c77.917-10.286,132.807-82.217,122.6-160.657h0c-10.217-78.44,184.355-42.335,262.272-52.621h0c77.918-10.286,132.807-82.208,122.59-160.648h0c-10.209-78.44-95.01-258.4-17.093-268.676h0c142.589-127.3-33.9-220.681-44.107-299.13h0c-10.217-78.44,44.672-150.362,122.59-160.648h0c77.918-10.277,299.5,56.266,289.286-22.175h0c-10.208-78.44,281.41,32.715,359.328,22.429h0c77.917-10.286,132.807-82.208,122.59-160.648h0c-10.218-78.44-192.057-333.449-114.139-343.734h0C1303.833,150.371,1358.722,78.441,1348.505,0" transform="translate(72.304 55.924)" fill="none" stroke="#fff" stroke-linecap="round" stroke-linejoin="round" stroke-width="1.533" stroke-dasharray="0 5"/><path d="M0,1767.149c77.917-10.277,132.807-82.208,122.59-160.648h0c-10.217-78.44,171.657-52.156,249.583-62.442h0c77.917-10.286,132.8-82.208,122.59-160.648h0c-10.217-78.44-82.312-248.577-4.4-258.863h0c136.706-116.657-46-229.171-56.221-307.611h0c-10.217-78.449,44.672-150.371,122.59-160.657h0c77.918-10.286,311.618,64.764,301.4-13.677h0c-10.208-78.441,259.888,16.068,337.805,5.782h0c77.917-10.286,132.807-82.208,122.589-160.648h0c-10.217-78.44-170.534-316.8-92.616-327.088h0c77.918-10.286,132.8-82.208,122.59-160.648" transform="translate(65.733 50.842)" fill="none" stroke="#fff" stroke-linecap="round" stroke-linejoin="round" stroke-width="1.417" stroke-dasharray="0 5"/><path d="M0,1767.158c77.917-10.286,132.8-82.208,122.59-160.648h0c-10.217-78.449,158.959-61.986,236.877-72.263h0c77.918-10.286,132.807-82.208,122.59-160.648h0c-10.209-78.44-69.615-238.756,8.3-249.042h0c130.831-106.021-58.11-237.678-68.327-316.119h0C411.815,730,466.7,658.066,544.622,647.789h0c77.917-10.286,323.724,73.263,313.515-5.178h0c-10.218-78.449,238.356-.578,316.274-10.864h.009c77.909-10.286,132.8-82.208,122.59-160.648h0c-10.217-78.44-149.021-300.164-71.1-310.441h0C1303.824,150.371,1358.713,78.44,1348.5,0" transform="translate(59.163 45.752)" fill="none" stroke="#fff" stroke-linecap="round" stroke-linejoin="round" stroke-width="1.3" stroke-dasharray="0 5"/><path d="M0,1767.158c77.918-10.286,132.8-82.208,122.59-160.648h0c-10.217-78.449,146.262-71.808,224.179-82.094h0c77.918-10.277,132.807-82.2,122.59-160.648h0c-10.217-78.44-56.917-228.934,21-239.211h0c124.948-95.385-70.224-246.177-80.442-324.617h0C399.7,721.489,454.59,649.567,532.507,639.29h0C610.425,629,868.346,721.043,858.137,642.6h0c-10.218-78.44,216.834-17.216,294.751-27.5h0c77.918-10.286,132.807-82.208,122.6-160.648h0c-10.218-78.44-127.5-283.518-49.581-293.8h0C1303.824,150.371,1358.713,78.44,1348.5,0" transform="translate(52.592 40.67)" fill="none" stroke="#fff" stroke-linecap="round" stroke-linejoin="round" stroke-width="1.183" stroke-dasharray="0 5"/><path d="M0,1767.149c77.917-10.277,132.807-82.2,122.59-160.648h0c-10.217-78.44,133.564-81.621,211.482-91.907h.008c77.918-10.286,132.8-82.208,122.581-160.648h0c-10.209-78.44-44.22-219.113,33.706-229.39h0c119.074-84.749-82.347-254.675-92.556-333.125h0c-10.217-78.44,44.672-150.363,122.59-160.648h0c77.917-10.286,347.953,90.26,337.735,11.819h0c-10.217-78.441,195.32-33.863,273.238-44.149h0c77.917-10.277,132.807-82.2,122.59-160.648h0c-10.208-78.44-105.976-266.871-28.05-277.157h0c77.918-10.286,132.8-82.208,122.59-160.648" transform="translate(46.013 35.589)" fill="none" stroke="#fff" stroke-linecap="round" stroke-linejoin="round" stroke-width="1.067" stroke-dasharray="0 5"/><path d="M0,1767.149c77.917-10.286,132.807-82.2,122.59-160.648v-.009c-10.217-78.44,120.867-91.433,198.784-101.719h0c77.918-10.286,132.8-82.208,122.59-160.648h0c-10.217-78.44-31.522-209.291,46.4-219.577h0c113.191-74.1-94.462-263.165-104.67-341.614h0c-10.217-78.441,44.672-150.371,122.59-160.648h0C586.2,612,868.355,721.043,858.137,642.6v-.009c-10.217-78.44,173.8-50.5,251.715-60.786h0c77.917-10.277,132.807-82.2,122.59-160.648h0c-10.208-78.441-84.453-250.233-6.536-260.51h0C1303.833,150.362,1358.714,78.44,1348.505,0" transform="translate(39.442 30.507)" fill="none" stroke="#fff" stroke-linecap="round" stroke-linejoin="round" stroke-width="0.95" stroke-dasharray="0 5"/><path d="M0,1767.149c77.917-10.286,132.8-82.217,122.581-160.657h0c-10.209-78.44,108.169-101.255,186.087-111.541h0c77.917-10.286,132.807-82.208,122.6-160.648h0c-10.218-78.44-18.825-199.479,59.093-209.756h0c107.316-63.476-106.568-271.672-116.776-350.113h0c-10.217-78.44,44.672-150.371,122.59-160.648h0C574.09,603.5,868.346,721.034,858.137,642.593h0c-10.218-78.441,152.275-67.147,230.193-77.433h0c77.918-10.277,132.8-82.2,122.59-160.648h0c-10.217-78.44-62.931-233.587,14.987-243.864v-.009C1303.823,150.362,1358.713,78.44,1348.5,0" transform="translate(32.871 25.425)" fill="none" stroke="#fff" stroke-linecap="round" stroke-linejoin="round" stroke-width="0.833" stroke-dasharray="0 5"/><path d="M0,1767.149c77.917-10.277,132.807-82.208,122.59-160.649h0c-10.209-78.44,95.471-111.076,173.389-121.362h0c77.918-10.286,132.807-82.208,122.59-160.648h0c-10.209-78.44-6.118-189.657,71.8-199.943h0c101.433-52.822-118.682-280.171-128.9-358.611h0c-10.209-78.44,44.681-150.362,122.6-160.648h0c77.917-10.277,384.288,115.755,374.07,37.315h0c-10.209-78.44,130.762-83.794,208.68-94.079h0c77.917-10.277,132.8-82.2,122.589-160.648h0c-10.217-78.44-41.409-216.94,36.5-227.226h.009C1303.833,150.371,1358.722,78.449,1348.5,0" transform="translate(26.292 20.335)" fill="none" stroke="#fff" stroke-linecap="round" stroke-linejoin="round" stroke-width="0.717" stroke-dasharray="0 5"/><path d="M0,1767.149c77.917-10.286,132.807-82.208,122.59-160.648h0c-10.217-78.441,82.765-120.907,160.691-131.184h0c77.917-10.286,132.8-82.208,122.59-160.648h0c-10.218-78.44,6.57-179.835,84.5-190.122h0c95.55-42.186-130.8-288.669-141.014-367.11h0C339.145,679,394.035,607.066,471.952,596.789h0C549.87,586.5,868.354,721.042,858.137,642.6h0c-10.217-78.441,109.24-100.44,187.157-110.726h0c77.917-10.277,132.8-82.2,122.59-160.648h0c-10.218-78.441-19.9-200.294,58.031-210.579h0C1303.833,150.371,1358.714,78.44,1348.5,0" transform="translate(19.721 15.254)" fill="none" stroke="#fff" stroke-linecap="round" stroke-linejoin="round" stroke-width="0.6" stroke-dasharray="0 5"/><path d="M0,1767.149c77.926-10.286,132.807-82.208,122.6-160.648h0c-10.217-78.441,70.067-130.728,147.985-141.014h0c77.918-10.277,132.807-82.2,122.59-160.648h0c-10.208-78.44,19.277-170.005,97.195-180.291h0c89.675-31.558-142.9-297.168-153.12-375.608h0C327.039,670.5,381.92,598.567,459.838,588.29h.009C537.764,578,868.354,721.043,858.137,642.6h0c-10.209-78.449,87.726-117.087,165.643-127.364h0c77.918-10.286,132.8-82.208,122.59-160.648h0c-10.218-78.449,1.627-183.656,79.545-193.942h0C1303.833,150.362,1358.722,78.44,1348.505,0" transform="translate(13.141 10.172)" fill="none" stroke="#fff" stroke-linecap="round" stroke-linejoin="round" stroke-width="0.483" stroke-dasharray="0 5"/><path d="M0,1767.149c77.918-10.286,132.807-82.208,122.59-160.648h0c-10.209-78.449,57.37-140.55,135.287-150.835h.009c77.917-10.277,132.807-82.208,122.59-160.648h0c-10.218-78.44,31.975-160.184,109.892-170.47h0c83.8-20.922-155.017-305.666-165.234-384.116h0c-10.209-78.441,44.672-150.363,122.59-160.64h0c77.926-10.286,420.631,141.251,410.423,62.8h0c-10.218-78.44,66.186-133.725,144.1-144h.009c77.909-10.286,132.8-82.208,122.59-160.648h0c-10.218-78.449,23.15-167.009,101.067-177.295h0C1303.833,150.362,1358.722,78.44,1348.505,0" transform="translate(6.571 5.09)" fill="none" stroke="#fff" stroke-linecap="round" stroke-linejoin="round" stroke-width="0.367" stroke-dasharray="0 5"/><path d="M0,1767.158c77.917-10.286,132.8-82.208,122.59-160.657h0c-10.218-78.44,44.672-150.362,122.59-160.648h0c77.926-10.277,132.807-82.208,122.59-160.648h0c-10.209-78.441,44.672-150.363,122.59-160.648h0c77.926-10.286-167.123-314.174-177.34-392.614h0c-10.208-78.44,44.673-150.362,122.59-160.648h0c77.926-10.286,432.746,149.749,422.528,71.309h0c-10.217-78.441,44.672-150.371,122.59-160.648h0c77.917-10.286,132.807-82.208,122.59-160.648h0c-10.208-78.449,44.672-150.371,122.59-160.648h0C1303.833,150.371,1358.713,78.44,1348.5,0" fill="none" stroke="#fff" stroke-linecap="round" stroke-linejoin="round" stroke-width="0.25" stroke-dasharray="0 5"/></g></g></g></g></g><rect width="1920" height="300" fill="url(#d)"/></svg>