<?xml version="1.0" encoding="utf-8"?>
<!-- Generator: Adobe Illustrator 16.0.0, SVG Export Plug-In . SVG Version: 6.00 Build 0)  -->
<!DOCTYPE svg PUBLIC "-//W3C//DTD SVG 1.1//EN" "http://www.w3.org/Graphics/SVG/1.1/DTD/svg11.dtd">
<svg version="1.1" id="Layer_1" xmlns="http://www.w3.org/2000/svg" xmlns:xlink="http://www.w3.org/1999/xlink" x="0px" y="0px"
	 width="595.279px" height="584.971px" viewBox="0 0 595.279 584.971" enable-background="new 0 0 595.279 584.971"
	 xml:space="preserve">
<g>
	<path d="M558.074,459.908c0-5.145-4.167-9.303-9.302-9.303h-37.205c-5.135,0-9.302,4.158-9.302,9.303v93.012h-18.603v-65.108
		c0-5.144-4.167-9.302-9.302-9.302h-37.205c-5.134,0-9.301,4.158-9.301,9.302v65.108h-18.604v18.603h27.903h37.205h37.205h37.205
		h27.903V552.92h-18.603v-93.012H558.074z M446.459,552.92v-55.807h18.603v55.807H446.459z M520.869,552.92v-83.711h18.603v83.711
		H520.869z"/>
	<path d="M567.375,357.594h-55.808v18.603h33.354l-44.488,44.488l-31.205-15.607c-3.152-1.572-6.93-1.246-9.737,0.885
		l-37.205,27.902l11.161,14.883l32.601-24.453l32.063,16.035c3.6,1.805,7.916,1.088,10.732-1.748l49.232-49.231v24.053h18.603
		v-46.505C576.677,361.751,572.51,357.594,567.375,357.594z"/>
	<path d="M502.267,13.448c-41.027,0-74.409,33.382-74.409,74.41c0,3.218,0.298,6.474,0.726,9.729
		c-3.051,2.716-5.739,5.869-7.822,9.506L398.531,146c-2.874,5.022-7.775,8.501-13.468,9.543l-28.296,5.19
		c9.544-12.501,15.282-28.062,15.282-44.972c0-41.028-33.382-74.41-74.409-74.41s-74.41,33.382-74.41,74.41
		c0,16.91,5.739,32.471,15.272,44.981l-28.295-5.199c-5.683-1.042-10.594-4.521-13.459-9.543l-22.229-38.907
		c-1.916-3.349-4.344-6.297-7.088-8.864V59.955c0-2.475-0.978-4.837-2.727-6.576l-37.205-37.205
		c-1.748-1.749-4.12-2.725-6.585-2.725H27.903c-5.134,0-9.301,4.158-9.301,9.301v167.422c0,5.144,4.167,9.301,9.301,9.301h109.634
		l6.344,11.794c5.089,9.441,13.961,16.333,23.988,18.826l22.397,6.585l-22.025,6.483c-10.39,2.595-19.264,9.497-24.36,18.938
		l-36.136,67.117c-6.437,11.943-6.12,26.025,0.838,37.68c6.957,11.645,19.207,18.604,32.777,18.604
		c13.673,0,26.369-7.377,33.148-19.236l26.928-47.11l21.793-5.451V529.76c0,23.029,18.742,41.763,41.771,41.763
		c11.198,0,21.718-4.371,29.615-12.314c1.144-1.145,2.037-2.455,3.022-3.701c0.985,1.246,1.888,2.56,3.021,3.701
		c7.896,7.943,18.417,12.314,29.615,12.314c23.029,0,41.771-18.74,41.771-41.763V313.701l21.793,5.441l26.927,47.111
		c6.771,11.867,19.478,19.244,33.149,19.244c13.562,0,25.82-6.959,32.778-18.604c6.957-11.654,7.272-25.736,0.837-37.68
		l-36.137-67.127c-5.088-9.441-13.971-16.332-23.986-18.826l-22.397-6.584l22.025-6.483c10.389-2.595,19.263-9.497,24.358-18.938
		l28.305-52.562c4.995,1.609,10.109,2.679,15.318,3.19l22.193,57.705c3.925,10.231,13.933,17.096,24.89,17.096
		c8.78,0,17.004-4.325,21.979-11.571c4.977-7.236,6.063-16.473,2.902-24.667l-20.37-52.971
		c18.203-13.589,30.063-35.214,30.063-59.621C576.677,46.83,543.294,13.448,502.267,13.448z M241.831,115.761
		c0-30.778,25.03-55.807,55.809-55.807c30.777,0,55.808,25.029,55.808,55.807c0,23.969-15.217,44.404-36.479,52.283l-19.123,3.506
		c-0.073,0.009-0.14,0.019-0.204,0.019s-0.13-0.009-0.204-0.009l-19.124-3.506C257.048,160.165,241.831,139.73,241.831,115.761z
		 M37.204,180.87V32.05h79.86l31.754,31.754v24.834c-0.187-0.037-0.371-0.037-0.558-0.074c-1.358-0.251-2.734-0.418-4.131-0.521
		c-0.642-0.046-1.282-0.111-1.925-0.13c-0.279-0.009-0.559-0.056-0.838-0.056c-0.948,0-1.869,0.112-2.799,0.177
		c-0.614,0.047-1.237,0.047-1.853,0.121c-3.775,0.456-7.385,1.479-10.771,2.967c-0.047,0.019-0.084,0.046-0.131,0.065
		c-1.674,0.744-3.273,1.618-4.817,2.595c-0.148,0.093-0.288,0.195-0.438,0.288c-1.396,0.912-2.734,1.916-4.01,3.014
		c-0.224,0.195-0.455,0.381-0.679,0.577c-1.145,1.032-2.214,2.139-3.237,3.312c-0.26,0.297-0.538,0.567-0.789,0.874
		c-1.107,1.358-2.141,2.791-3.069,4.325c-0.058,0.093-0.14,0.177-0.195,0.279c-1.739,2.912-3.068,5.981-3.972,9.134
		c-2.271,7.859-1.936,16.23,1.032,23.988c0.595,1.553,1.293,3.079,2.093,4.567c0,0,0,0,0,0.009l17.003,31.578l2.78,5.144
		L37.204,180.87L37.204,180.87z M435.019,202.43c-2.613,4.846-7.161,8.38-12.863,9.822l-52.729,15.505
		c-3.962,1.163-6.679,4.799-6.679,8.92c0,4.122,2.717,7.756,6.679,8.92l53.102,15.606c5.33,1.339,9.878,4.874,12.491,9.71
		l36.136,67.118c3.293,6.129,3.135,13.356-0.429,19.328c-3.57,5.962-9.85,9.534-16.808,9.534c-7.004,0-13.523-3.776-17.002-9.869
		l-28.89-50.563c-1.257-2.195-3.358-3.795-5.813-4.408l-37.205-9.301c-2.763-0.697-5.721-0.074-7.979,1.692
		c-2.262,1.767-3.581,4.474-3.581,7.339V529.76c0,12.771-10.391,23.16-23.17,23.16c-6.214,0-12.045-2.428-16.427-6.826
		c-4.381-4.409-6.771-10.25-6.742-16.465l0.81-153.387l-1.015-0.01l0.038-27.932l-18.604-0.019l-0.177,181.346
		c0.027,6.215-2.362,12.056-6.743,16.465c-4.372,4.398-10.204,6.826-16.417,6.826c-12.78,0-23.17-10.389-23.17-23.16V301.786
		c0-2.864-1.32-5.571-3.581-7.33c-2.26-1.758-5.218-2.409-7.979-1.692l-37.205,9.301c-2.455,0.604-4.559,2.205-5.813,4.408
		l-28.89,50.563c-3.479,6.083-9.99,9.859-17.003,9.859c-6.957,0-13.235-3.572-16.809-9.534c-3.57-5.979-3.729-13.198-0.428-19.328
		l36.136-67.108c2.613-4.847,7.161-8.381,12.863-9.822l52.729-15.506c3.963-1.162,6.679-4.799,6.679-8.919
		c0-4.121-2.716-7.757-6.679-8.92l-53.101-15.606c-5.33-1.33-9.878-4.874-12.49-9.71l-8.948-16.622
		c-0.009-0.019-0.009-0.046-0.028-0.065l-27.159-50.441c-1.646-3.06-2.428-6.399-2.361-9.71c0.073-3.32,1.004-6.613,2.79-9.608
		c3.571-5.962,9.851-9.534,16.808-9.534c1.414,0,2.79,0.261,4.147,0.558c0.81,0.195,1.601,0.41,2.325,0.698
		c0.111,0.037,0.204,0.093,0.316,0.13c1.813,0.735,3.356,1.655,4.539,2.511c0.11,0.083,0.241,0.111,0.354,0.186
		c2.094,1.572,3.98,3.441,5.32,5.785l22.229,38.907c5.601,9.794,15.161,16.575,26.259,18.612l66.662,12.241
		c7.579,2.595,15.672,4.083,24.127,4.083c8.454,0,16.547-1.488,24.127-4.092l66.652-12.241c11.097-2.037,20.667-8.817,26.258-18.612
		l22.229-38.907c1.6-2.8,3.888-5.032,6.528-6.715c0.048-0.028,0.104-0.037,0.149-0.075c0.967-0.614,1.99-1.06,3.004-1.479
		c0.325-0.13,0.643-0.289,0.968-0.409c0.948-0.335,1.916-0.558,2.884-0.735c0.503-0.093,1.005-0.149,1.517-0.205
		c0.977-0.103,1.953-0.186,2.92-0.14c0.168,0.009,0.316,0.046,0.475,0.065c2.131,0.158,4.195,0.679,6.148,1.498
		c0.335,0.14,0.67,0.251,0.995,0.409c0.8,0.381,1.554,0.856,2.288,1.349c0.576,0.391,1.125,0.8,1.654,1.247
		c0.521,0.437,1.043,0.865,1.525,1.358c1.015,1.061,1.973,2.195,2.744,3.488c2.679,4.483,3.433,9.664,2.26,14.566
		c-0.074,0.316-0.26,0.604-0.353,0.912c-0.382,1.312-0.811,2.614-1.479,3.851l-3.972,7.357c-0.009,0.009,0,0.019-0.009,0.028
		L435.019,202.43z M549.619,207.118c0.967,2.521,0.651,5.228-0.874,7.46c-3.414,4.967-12.009,3.943-14.166-1.674l-19.887-51.696
		c0.315-0.056,0.613-0.149,0.921-0.214c1.98-0.362,3.926-0.818,5.842-1.339c0.502-0.13,1.004-0.242,1.497-0.382
		c2.493-0.725,4.93-1.553,7.302-2.521L549.619,207.118z M530.394,135.982c-4.12,2.409-8.511,4.26-13.013,5.553
		c-0.428,0.121-0.854,0.223-1.283,0.335c-1.655,0.428-3.32,0.763-4.995,1.032c-0.726,0.121-1.45,0.251-2.186,0.335
		c-1.665,0.205-3.33,0.307-4.985,0.354c-0.559,0.009-1.106,0.074-1.665,0.074c-4.633,0-9.189-0.577-13.636-1.711
		c0.204-0.446,0.344-0.902,0.53-1.358c0.27-0.651,0.53-1.293,0.763-1.953c0.297-0.856,0.559-1.711,0.8-2.577
		c0.187-0.688,0.372-1.367,0.521-2.056c0.187-0.865,0.325-1.73,0.446-2.595c0.103-0.698,0.205-1.386,0.27-2.083
		c0.075-0.884,0.094-1.776,0.112-2.66c0.009-0.679,0.037-1.358,0.019-2.037c-0.037-0.93-0.14-1.851-0.242-2.781
		c-0.073-0.632-0.11-1.265-0.214-1.897c-0.167-0.995-0.408-1.981-0.65-2.976c-0.14-0.549-0.232-1.098-0.399-1.646
		c-0.335-1.144-0.771-2.27-1.219-3.395c-0.148-0.372-0.251-0.744-0.418-1.116c-0.651-1.488-1.396-2.958-2.251-4.39
		c-0.065-0.102-0.141-0.186-0.205-0.288c-0.921-1.516-1.943-2.939-3.041-4.297c-0.279-0.335-0.586-0.642-0.865-0.967
		c-0.977-1.125-2.009-2.186-3.098-3.181c-0.279-0.251-0.559-0.483-0.846-0.726c-1.2-1.023-2.446-1.972-3.759-2.827
		c-0.232-0.149-0.456-0.307-0.688-0.456c-1.423-0.893-2.902-1.693-4.438-2.39c-0.168-0.075-0.325-0.167-0.503-0.242
		c-3.339-1.46-6.892-2.465-10.604-2.92c-0.727-0.093-1.45-0.093-2.176-0.14c-0.856-0.028-1.702-0.14-2.56-0.14
		c-0.251,0-0.492,0.047-0.733,0.047c-0.734,0.019-1.461,0.083-2.195,0.148c-1.266,0.103-2.511,0.251-3.748,0.475
		c-0.261,0.046-0.512,0.046-0.772,0.093c0-0.251,0-0.511,0-0.763c0-30.778,25.03-55.807,55.809-55.807
		c30.777,0,55.808,25.029,55.808,55.807C558.074,108.367,546.922,126.281,530.394,135.982z"/>
	<path d="M502.267,50.652v18.603c10.26,0,18.604,8.344,18.604,18.603h18.603C539.472,67.339,522.785,50.652,502.267,50.652z"/>
	<rect x="55.808" y="59.954" width="55.808" height="18.603"/>
	<rect x="55.808" y="97.158" width="27.902" height="18.603"/>
	<rect x="55.808" y="134.364" width="27.902" height="18.603"/>
	<path d="M126.971,397.244c-13.868-12.332-32.498-18.156-51.102-15.988c-28.341,3.32-52.087,26.154-56.459,54.265
		c-2.521,16.203,0.978,32.555,9.852,46.041c2.177,3.303,4.203,6.194,6.072,8.854c7.674,10.938,11.171,15.933,11.171,29.896v4.705
		v37.205c0,5.145,4.167,9.301,9.303,9.301h55.808c5.134,0,9.301-4.156,9.301-9.301v-37.205v-3.441
		c0-16.537,3.32-21.029,14.333-35.902l0.875-1.172c8.307-11.246,12.695-24.592,12.695-38.6
		C148.819,427.325,140.858,409.599,126.971,397.244z M102.313,552.92H65.108v-18.602h37.205V552.92z M121.157,473.433l-0.865,1.172
		c-10.538,14.239-16.778,22.666-17.82,41.11H64.987c-0.884-16.668-6.669-24.918-14.426-35.977c-1.769-2.521-3.692-5.266-5.758-8.4
		c-6.418-9.766-8.847-21.149-7.005-32.953c3.106-20.018,20.035-36.274,40.247-38.646c13.542-1.609,26.509,2.473,36.563,11.412
		c9.916,8.815,15.607,21.485,15.607,34.75C130.217,455.89,127.082,465.424,121.157,473.433z"/>
	<polygon points="83.71,444.022 60.97,428.86 50.646,444.338 74.409,460.178 74.409,492.407 93.013,492.407 93.013,460.178 
		116.777,444.338 106.451,428.86 	"/>
</g>
</svg>
