<svg xmlns="http://www.w3.org/2000/svg" xmlns:xlink="http://www.w3.org/1999/xlink" width="1920" height="300" viewBox="0 0 1920 300"><defs><clipPath id="a"><rect width="1920" height="298" fill="#fff"/></clipPath><linearGradient id="b" x1="-0.325" y1="-0.083" x2="1.144" y2="0.956" gradientUnits="objectBoundingBox"><stop offset="0" stop-color="#00b8ff"/><stop offset="1" stop-color="#f07"/></linearGradient><clipPath id="c"><rect width="1368.123" height="1897.983" fill="none" stroke="rgba(0,0,0,0)" stroke-width="1"/></clipPath><clipPath id="e"><rect width="1386.366" height="1923.29" fill="none" stroke="rgba(0,0,0,0)" stroke-width="1"/></clipPath><linearGradient id="f" x1="0.5" x2="0.5" y2="1" gradientUnits="objectBoundingBox"><stop offset="0" stop-color="#fff" stop-opacity="0"/><stop offset="0.477" stop-color="#fff" stop-opacity="0.165"/><stop offset="1" stop-color="#fff"/></linearGradient></defs><g clip-path="url(#a)"><rect width="1359.316" height="1920.078" transform="translate(1920.078) rotate(90)" stroke="rgba(0,0,0,0)" stroke-width="1" fill="url(#b)"/><g transform="translate(1920.078 0) rotate(90)"><g clip-path="url(#c)"><g transform="translate(-1122.431 -773.034)" opacity="0.5" style="mix-blend-mode:overlay;isolation:isolate"><line y1="1662.598" x2="1694.953" fill="none" stroke-dasharray="0 5" stroke-linecap="round" stroke-linejoin="round" stroke-width="1" stroke="#fff"/><line y1="1662.598" x2="1694.953" transform="translate(23.541 23.092)" fill="none" stroke-dasharray="0 5" stroke-linecap="round" stroke-linejoin="round" stroke-width="1" stroke="#fff"/><line y1="1662.591" x2="1694.953" transform="translate(47.083 46.187)" fill="none" stroke-dasharray="0 5" stroke-linecap="round" stroke-linejoin="round" stroke-width="1" stroke="#fff"/><line y1="1662.598" x2="1694.953" transform="translate(70.623 69.275)" fill="none" stroke-dasharray="0 5" stroke-linecap="round" stroke-linejoin="round" stroke-width="1" stroke="#fff"/><line y1="1662.591" x2="1694.953" transform="translate(94.164 92.37)" fill="none" stroke-dasharray="0 5" stroke-linecap="round" stroke-linejoin="round" stroke-width="1" stroke="#fff"/><g transform="translate(149.134 171.294)"><path d="M1689.911,0H1585.378V97.195h-99.087V194.39h-99.086v97.195H1288.12V388.78h-99.087v97.194h-99.087v97.195H990.864v97.195H891.777v97.195H792.691v97.2H693.605v97.194H594.519v97.195H495.432v97.195H396.346v97.191H297.259v97.195H198.172v97.2H99.087v97.195H0v102.54" fill="none" stroke="#fff" stroke-linecap="round" stroke-linejoin="round" stroke-width="1" stroke-dasharray="0 5"/><path d="M1689.912,0H1585.379V97.195h-99.087V194.39h-99.087v97.194h-99.087v97.195h-99.087v97.195h-99.086v97.191H990.861v97.195H891.774v97.195H792.687v97.194H693.6v97.2H594.515v97.195H495.429v97.2H396.342v97.195H297.26v97.195H198.173v97.194H99.087v97.191H0v102.541" transform="translate(15.295 15.004)" fill="none" stroke="#fff" stroke-linecap="round" stroke-linejoin="round" stroke-width="1" stroke-dasharray="0 5"/><path d="M1689.915,0H1585.379V97.195h-99.086v97.194h-99.087v97.195h-99.087v97.195h-99.087v97.2h-99.082v97.195H990.865v97.195H891.778v97.194H792.692v97.195H693.605v97.2H594.519v97.195H495.432v97.2H396.346v97.191H297.26v97.194l-99.087,0v97.191H99.087v97.2H0v102.533" transform="translate(30.586 30.003)" fill="none" stroke="#fff" stroke-linecap="round" stroke-linejoin="round" stroke-width="1" stroke-dasharray="0 5"/><path d="M1689.911,0H1585.378V97.194h-99.087v97.195h-99.086v97.195H1288.12v97.195h-99.087v97.191h-99.086v97.2H990.86v97.194l-99.086,0v97.191H792.687v97.195H693.6v97.195H594.514v97.195H495.428v97.194H396.341v97.195H297.259v97.2h-99.09v97.195H99.087v97.195H0v102.54" transform="translate(45.882 45.007)" fill="none" stroke="#fff" stroke-linecap="round" stroke-linejoin="round" stroke-width="1" stroke-dasharray="0 5"/><path d="M1689.911,0H1585.378V97.195h-99.087V194.39h-99.086v97.195h-99.086V388.78h-99.087v97.194h-99.087v97.195H990.864v97.195H891.777v97.195H792.691v97.2H693.605v97.195H594.519v97.194H495.432v97.2H396.345v97.2H297.259v97.19H198.172v97.2H99.087v97.195H0v102.541" transform="translate(61.173 60.005)" fill="none" stroke="#fff" stroke-linecap="round" stroke-linejoin="round" stroke-width="1" stroke-dasharray="0 5"/></g><g transform="translate(230.815 226.413)"><line y1="1662.598" x2="1694.957" fill="none" stroke-dasharray="0 5" stroke-linecap="round" stroke-linejoin="round" stroke-width="1" stroke="#fff"/><line y1="1662.594" x2="1694.957" transform="translate(23.541 23.091)" fill="none" stroke-dasharray="0 5" stroke-linecap="round" stroke-linejoin="round" stroke-width="1" stroke="#fff"/><line y1="1662.598" x2="1694.957" transform="translate(47.082 46.183)" fill="none" stroke-dasharray="0 5" stroke-linecap="round" stroke-linejoin="round" stroke-width="1" stroke="#fff"/><line y1="1662.595" x2="1694.957" transform="translate(70.623 69.274)" fill="none" stroke-dasharray="0 5" stroke-linecap="round" stroke-linejoin="round" stroke-width="1" stroke="#fff"/><line y1="1662.598" x2="1694.957" transform="translate(94.163 92.366)" fill="none" stroke-dasharray="0 5" stroke-linecap="round" stroke-linejoin="round" stroke-width="1" stroke="#fff"/><g transform="translate(149.138 171.294)"><path d="M1689.911,0H1585.375V97.195h-99.082v97.194h-99.087v97.195h-99.087v97.195h-99.087v97.191h-99.087v97.195H990.861v97.195H891.774v97.194H792.687v97.195H693.6v97.195H594.514v97.2H495.428v97.195H396.342v97.195H297.255v97.19H198.169v97.2H99.087v97.191H0v102.541" fill="none" stroke="#fff" stroke-linecap="round" stroke-linejoin="round" stroke-width="1" stroke-dasharray="0 5"/><path d="M1689.911,0H1585.378V97.194h-99.087v97.195h-99.086v97.195H1288.12v97.195h-99.087v97.195h-99.087v97.194H990.864v97.195h-99.09v97.195H792.692v97.195H693.605v97.2H594.519v97.191l-99.087,0v97.194H396.345v97.191H297.26v97.2H198.173v97.191H99.087v97.2H0v102.533" transform="translate(15.291 14.999)" fill="none" stroke="#fff" stroke-linecap="round" stroke-linejoin="round" stroke-width="1" stroke-dasharray="0 5"/><path d="M1689.911,0H1585.378V97.195h-99.087V194.39h-99.086v97.195H1288.12v97.191h-99.087v97.2h-99.087v97.191H990.86v97.195H891.773v97.195H792.686v97.195H693.6v97.195H594.514v97.194H495.428v97.2H396.341v97.195H297.255v97.2H198.172v97.19H99.082v97.2H0v102.54" transform="translate(30.587 30.002)" fill="none" stroke="#fff" stroke-linecap="round" stroke-linejoin="round" stroke-width="1" stroke-dasharray="0 5"/><path d="M1689.911,0H1585.378V97.195h-99.087V194.39h-99.087v97.195h-99.087v97.194h-99.086v97.195h-99.087v97.195H990.86v97.195H891.773v97.195H792.691v97.194H693.6v97.191H594.519v97.2H495.432v97.2H396.345v97.195H297.259v97.191H198.172v97.2H99.086v97.191H0v102.541" transform="translate(45.878 45.002)" fill="none" stroke="#fff" stroke-linecap="round" stroke-linejoin="round" stroke-width="1" stroke-dasharray="0 5"/><path d="M1689.911,0H1585.375V97.195h-99.082v97.194h-99.087v97.195H1288.12v97.195h-99.087v97.191h-99.087v97.2H990.861v97.195H891.774v97.194H792.688v97.195H693.6v97.195H594.514v97.195H495.429v97.195H396.342v97.195H297.255v97.191H198.169v97.2H99.087v97.191H0v102.541" transform="translate(61.173 60.005)" fill="none" stroke="#fff" stroke-linecap="round" stroke-linejoin="round" stroke-width="1" stroke-dasharray="0 5"/></g></g><g transform="translate(461.633 452.82)"><line y1="1662.598" x2="1694.953" fill="none" stroke-dasharray="0 5" stroke-linecap="round" stroke-linejoin="round" stroke-width="1" stroke="#fff"/><line y1="1662.594" x2="1694.953" transform="translate(23.541 23.092)" fill="none" stroke-dasharray="0 5" stroke-linecap="round" stroke-linejoin="round" stroke-width="1" stroke="#fff"/><line y1="1662.598" x2="1694.953" transform="translate(47.083 46.183)" fill="none" stroke-dasharray="0 5" stroke-linecap="round" stroke-linejoin="round" stroke-width="1" stroke="#fff"/><line y1="1662.594" x2="1694.953" transform="translate(70.623 69.275)" fill="none" stroke-dasharray="0 5" stroke-linecap="round" stroke-linejoin="round" stroke-width="1" stroke="#fff"/><line y1="1662.598" x2="1694.953" transform="translate(94.164 92.367)" fill="none" stroke-dasharray="0 5" stroke-linecap="round" stroke-linejoin="round" stroke-width="1" stroke="#fff"/><g transform="translate(149.134 171.294)"><path d="M1689.911,0H1585.378V97.195h-99.087V194.39h-99.086v97.195h-99.086V388.78h-99.087v97.194h-99.086v97.195H990.86v97.195H891.773v97.195H792.691v97.195H693.605v97.2H594.519v97.19H495.432v97.2H396.345v97.191H297.259v97.2H198.172v97.191H99.087v97.2H0v102.532" fill="none" stroke="#fff" stroke-linecap="round" stroke-linejoin="round" stroke-width="1" stroke-dasharray="0 5"/><path d="M1689.916,0H1585.378V97.195H1486.3V194.39h-99.087V291.58h-99.087v97.2h-99.086v97.191h-99.086v97.2H990.864v97.195H891.778v97.195H792.691v97.195H693.6v97.194H594.519v97.19H495.432v97.2H396.346v97.191H297.259v97.2H198.172v97.191H99.09v97.2H0v102.533" transform="translate(15.291 15.004)" fill="none" stroke="#fff" stroke-linecap="round" stroke-linejoin="round" stroke-width="1" stroke-dasharray="0 5"/><path d="M1689.911,0H1585.379V97.195h-99.087v97.194h-99.087v97.195H1288.12v97.195h-99.087v97.195h-99.087v97.195H990.861v97.195H891.774v97.194H792.688v97.195H693.605v97.2H594.519v97.195H495.432v97.191H396.346v97.2H297.26v97.19H198.173v97.2H99.087v97.19H0v102.541" transform="translate(30.586 30.003)" fill="none" stroke="#fff" stroke-linecap="round" stroke-linejoin="round" stroke-width="1" stroke-dasharray="0 5"/><path d="M1689.911,0H1585.378V97.194h-99.09v97.195h-99.082v97.195h-99.087v97.191h-99.087v97.195h-99.087v97.195H990.86v97.194H891.774v97.195H792.688v97.195H693.6v97.2H594.514v97.195H495.428v97.191H396.341v97.2H297.255v97.191H198.169v97.2H99.082v97.191H0v102.541" transform="translate(45.882 45.007)" fill="none" stroke="#fff" stroke-linecap="round" stroke-linejoin="round" stroke-width="1" stroke-dasharray="0 5"/><path d="M1689.911,0H1585.378V97.195h-99.087V194.39h-99.086v97.195h-99.086V388.78h-99.087v97.194h-99.087v97.195H990.86v97.195H891.773v97.195H792.691v97.2H693.605v97.195H594.519v97.191H495.432v97.2H396.345v97.191H297.259v97.2H198.173v97.191H99.087v97.2H0v102.532" transform="translate(61.173 60.005)" fill="none" stroke="#fff" stroke-linecap="round" stroke-linejoin="round" stroke-width="1" stroke-dasharray="0 5"/></g></g><g transform="translate(692.448 679.233)"><line y1="1662.594" x2="1694.953" fill="none" stroke-dasharray="0 5" stroke-linecap="round" stroke-linejoin="round" stroke-width="1" stroke="#fff"/><line y1="1662.598" x2="1694.953" transform="translate(23.541 23.091)" fill="none" stroke-dasharray="0 5" stroke-linecap="round" stroke-linejoin="round" stroke-width="1" stroke="#fff"/><line y1="1662.594" x2="1694.957" transform="translate(47.082 46.183)" fill="none" stroke-dasharray="0 5" stroke-linecap="round" stroke-linejoin="round" stroke-width="1" stroke="#fff"/><line y1="1662.598" x2="1694.953" transform="translate(70.623 69.274)" fill="none" stroke-dasharray="0 5" stroke-linecap="round" stroke-linejoin="round" stroke-width="1" stroke="#fff"/><line y1="1662.594" x2="1694.953" transform="translate(94.163 92.366)" fill="none" stroke-dasharray="0 5" stroke-linecap="round" stroke-linejoin="round" stroke-width="1" stroke="#fff"/><g transform="translate(149.138 171.294)"><path d="M1689.911,0H1585.375V97.195h-99.087v97.191h-99.082v97.2h-99.087v97.191h-99.086v97.195h-99.087v97.2H990.86v97.195H891.774v97.194H792.687v97.2H693.6v97.191H594.514v97.191l-99.087.009v97.191H396.342v97.191H297.255v97.2H198.169v97.191H99.082v97.2H0v102.533" fill="none" stroke="#fff" stroke-linecap="round" stroke-linejoin="round" stroke-width="1" stroke-dasharray="0 5"/><path d="M1689.911,0H1585.378V97.194h-99.086v97.195h-99.087v97.195H1288.12v97.2h-99.087v97.195h-99.086v97.195H990.86v97.194H891.774v97.195H792.687v97.195H693.6v97.191H594.519v97.2H495.432v97.191H396.345v97.2H297.26v97.191H198.173v97.2H99.087v97.19H0v102.541" transform="translate(15.291 14.999)" fill="none" stroke="#fff" stroke-linecap="round" stroke-linejoin="round" stroke-width="1" stroke-dasharray="0 5"/><path d="M1689.915,0H1585.378V97.195H1486.3V194.39h-99.087V291.58h-99.085v97.2h-99.087V485.97h-99.086v97.194H990.864v97.195H891.777v97.195H792.691v97.195H693.605v97.2H594.519v97.19H495.432v97.191H396.345v97.2H297.259v97.191H198.173v97.2H99.087v97.19H0v102.541" transform="translate(30.583 30.002)" fill="none" stroke="#fff" stroke-linecap="round" stroke-linejoin="round" stroke-width="1" stroke-dasharray="0 5"/><path d="M1689.91,0H1585.378V97.195h-99.087V194.39h-99.086v97.195h-99.087v97.194h-99.086v97.195h-99.087v97.195H990.86v97.2H891.773v97.195H792.687v97.191H693.6v97.2H594.519v97.19H495.432v97.2H396.345v97.19H297.259v97.2H198.172v97.191H99.086v97.2H0v102.532" transform="translate(45.878 45.002)" fill="none" stroke="#fff" stroke-linecap="round" stroke-linejoin="round" stroke-width="1" stroke-dasharray="0 5"/><path d="M1689.911,0H1585.375V97.195h-99.087v97.191h-99.082v97.2h-99.087v97.191h-99.087v97.195h-99.086v97.195H990.861v97.195H891.774v97.195H792.688v97.2H693.6v97.191H594.514v97.191H495.429v97.2H396.342v97.191H297.255v97.2H198.169v97.191H99.082v97.2H0v102.541" transform="translate(61.173 60.005)" fill="none" stroke="#fff" stroke-linecap="round" stroke-linejoin="round" stroke-width="1" stroke-dasharray="0 5"/></g></g><g transform="translate(923.263 905.64)"><line y1="1662.594" x2="1694.957" fill="none" stroke-dasharray="0 5" stroke-linecap="round" stroke-linejoin="round" stroke-width="1" stroke="#fff"/><line y1="1662.598" x2="1694.953" transform="translate(23.545 23.092)" fill="none" stroke-dasharray="0 5" stroke-linecap="round" stroke-linejoin="round" stroke-width="1" stroke="#fff"/><line y1="1662.595" x2="1694.952" transform="translate(47.086 46.183)" fill="none" stroke-dasharray="0 5" stroke-linecap="round" stroke-linejoin="round" stroke-width="1" stroke="#fff"/><line y1="1662.598" x2="1694.953" transform="translate(70.627 69.275)" fill="none" stroke-dasharray="0 5" stroke-linecap="round" stroke-linejoin="round" stroke-width="1" stroke="#fff"/><line y1="1662.594" x2="1694.953" transform="translate(94.168 92.367)" fill="none" stroke-dasharray="0 5" stroke-linecap="round" stroke-linejoin="round" stroke-width="1" stroke="#fff"/><g transform="translate(149.138 171.294)"><path d="M1689.911,0H1585.378V97.195h-99.086V194.39h-99.086v97.195H1288.12V388.78h-99.087v97.194h-99.087v97.195H990.86v97.195H891.773v97.191H792.687v97.2H693.6v97.191H594.518v97.2H495.432v97.191H396.345v97.2H297.259v97.191H198.172v97.191H99.087v97.2H0v102.54" fill="none" stroke="#fff" stroke-linecap="round" stroke-linejoin="round" stroke-width="1" stroke-dasharray="0 5"/><path d="M1689.911,0H1585.374V97.195h-99.086v97.191h-99.082v97.195h-99.087v97.194h-99.086v97.195h-99.087v97.2H990.86v97.195H891.773v97.2H792.686v97.191H693.6v97.19H594.514v97.2H495.428v97.191H396.341v97.2H297.255v97.191H198.168v97.2H99.081v97.191H0v102.541" transform="translate(15.296 15.004)" fill="none" stroke="#fff" stroke-linecap="round" stroke-linejoin="round" stroke-width="1" stroke-dasharray="0 5"/><path d="M1689.911,0H1585.379V97.2h-99.086V194.39h-99.086v97.194h-99.087v97.2h-99.087v97.195h-99.085v97.195H990.861v97.191H891.774v97.2H792.687v97.19H693.6v97.2H594.518v97.191h-99.09v97.2H396.346v97.191H297.26v97.2H198.173v97.19H99.086v97.2H0v102.533" transform="translate(30.586 30.003)" fill="none" stroke="#fff" stroke-linecap="round" stroke-linejoin="round" stroke-width="1" stroke-dasharray="0 5"/><path d="M1689.915,0H1585.379V97.194h-99.087v97.195h-99.086V291.58h-99.082v97.195h-99.087V485.97h-99.087v97.195H990.864v97.2H891.778v97.191H792.692v97.191H693.605v97.2H594.519v97.191H495.432v97.2H396.346v97.19H297.26v97.2H198.173v97.191H99.087v97.2H0v102.533" transform="translate(45.878 45.007)" fill="none" stroke="#fff" stroke-linecap="round" stroke-linejoin="round" stroke-width="1" stroke-dasharray="0 5"/><path d="M1689.911,0H1585.379V97.195h-99.087V194.39h-99.086v97.195h-99.087v97.2h-99.086v97.195h-99.087v97.19H990.86v97.2H891.773v97.191H792.687v97.2H693.6v97.191H594.519v97.2H495.432v97.191H396.346v97.2H297.259v97.191H198.173v97.2H99.087v97.191H0v102.54" transform="translate(61.173 60.005)" fill="none" stroke="#fff" stroke-linecap="round" stroke-linejoin="round" stroke-width="1" stroke-dasharray="0 5"/></g></g><g transform="translate(1154.081 1132.053)"><line y1="1662.59" x2="1694.953" fill="none" stroke-dasharray="0 5" stroke-linecap="round" stroke-linejoin="round" stroke-width="1" stroke="#fff"/><line y1="1662.594" x2="1694.953" transform="translate(23.541 23.091)" fill="none" stroke-dasharray="0 5" stroke-linecap="round" stroke-linejoin="round" stroke-width="1" stroke="#fff"/><line y1="1662.598" x2="1694.953" transform="translate(47.082 46.183)" fill="none" stroke-dasharray="0 5" stroke-linecap="round" stroke-linejoin="round" stroke-width="1" stroke="#fff"/><line y1="1662.595" x2="1694.953" transform="translate(70.623 69.274)" fill="none" stroke-dasharray="0 5" stroke-linecap="round" stroke-linejoin="round" stroke-width="1" stroke="#fff"/><line y1="1662.59" x2="1694.953" transform="translate(94.164 92.366)" fill="none" stroke-dasharray="0 5" stroke-linecap="round" stroke-linejoin="round" stroke-width="1" stroke="#fff"/><g transform="translate(149.134 171.289)"><path d="M1689.915,0,1585.379,0V97.195h-99.086v97.2h-99.087v97.191h-99.082v97.195h-99.087v97.195h-99.087v97.2H990.865v97.191H891.778v97.2H792.692v97.191H693.605v97.191H594.519v97.2H495.433v97.19H396.346v97.2H297.26v97.191H198.173v97.2H99.087v97.191H0v102.541" fill="none" stroke="#fff" stroke-linecap="round" stroke-linejoin="round" stroke-width="1" stroke-dasharray="0 5"/><path d="M1689.911,0H1585.378V97.194h-99.086v97.195h-99.087v97.195h-99.087v97.195h-99.086V485.97h-99.087v97.2H990.86v97.19H891.774v97.2H792.687v97.191H693.6v97.2H594.514v97.191H495.432v97.2H396.345v97.191H297.26v97.2H198.173v97.19H99.087v97.2H0v102.532" transform="translate(15.296 15.004)" fill="none" stroke="#fff" stroke-linecap="round" stroke-linejoin="round" stroke-width="1" stroke-dasharray="0 5"/><path d="M1689.915,0H1585.378V97.2h-99.087V194.39h-99.086v97.195h-99.083V388.78h-99.091v97.2h-99.082v97.191H990.864v97.191l-99.087.008v97.191H792.692v97.2H693.605v97.191H594.519v97.191H495.432v97.2H396.345v97.191H297.259v97.2H198.173v97.191H99.087v97.2H0v102.533" transform="translate(30.587 30.002)" fill="none" stroke="#fff" stroke-linecap="round" stroke-linejoin="round" stroke-width="1" stroke-dasharray="0 5"/><path d="M1689.911,0H1585.379V97.195h-99.087V194.39h-99.086v97.195h-99.086v97.191h-99.086v97.2h-99.087v97.191H990.859v97.2H891.773v97.191H792.686v97.2H693.6v97.19H594.514v97.2H495.428v97.191H396.346v97.2H297.259v97.191H198.172v97.2H99.086v97.19H0v102.541" transform="translate(45.883 45.006)" fill="none" stroke="#fff" stroke-linecap="round" stroke-linejoin="round" stroke-width="1" stroke-dasharray="0 5"/><path d="M1689.914,0,1585.378,0V97.195h-99.086v97.2h-99.086v97.19h-99.082v97.2h-99.087v97.191h-99.086v97.2H990.864v97.191H891.778v97.2H792.691v97.19H693.6v97.191H594.518v97.2H495.432v97.191H396.345v97.2H297.259v97.191H198.172v97.2H99.086v97.191H0v102.541" transform="translate(61.174 60.006)" fill="none" stroke="#fff" stroke-linecap="round" stroke-linejoin="round" stroke-width="1" stroke-dasharray="0 5"/></g></g><g transform="translate(1384.9 1358.46)"><line y1="1662.598" x2="1694.953" fill="none" stroke-dasharray="0 5" stroke-linecap="round" stroke-linejoin="round" stroke-width="1" stroke="#fff"/><line y1="1662.594" x2="1694.957" transform="translate(23.536 23.092)" fill="none" stroke-dasharray="0 5" stroke-linecap="round" stroke-linejoin="round" stroke-width="1" stroke="#fff"/><line y1="1662.599" x2="1694.957" transform="translate(47.077 46.183)" fill="none" stroke-dasharray="0 5" stroke-linecap="round" stroke-linejoin="round" stroke-width="1" stroke="#fff"/><line y1="1662.594" x2="1694.953" transform="translate(70.622 69.275)" fill="none" stroke-dasharray="0 5" stroke-linecap="round" stroke-linejoin="round" stroke-width="1" stroke="#fff"/><line y1="1662.598" x2="1694.957" transform="translate(94.159 92.367)" fill="none" stroke-dasharray="0 5" stroke-linecap="round" stroke-linejoin="round" stroke-width="1" stroke="#fff"/><g transform="translate(149.134 171.294)"><path d="M1689.911,0H1585.378V97.195h-99.087v97.2h-99.086V291.58h-99.086v97.2h-99.086V485.97h-99.087v97.2H990.86v97.191H891.773v97.2H792.687v97.191H693.6v97.2H594.514v97.19H495.428v97.2H396.345v97.191H297.259v97.19H198.173v97.2H99.087v97.191H0v102.54" fill="none" stroke="#fff" stroke-linecap="round" stroke-linejoin="round" stroke-width="1" stroke-dasharray="0 5"/><path d="M1689.915,0,1585.378,0V97.2h-99.087V194.39h-99.086v97.2h-99.082v97.19h-99.09v97.2H1089.95v97.191H990.864v97.19H891.777v97.2H792.691v97.191H693.6v97.2H594.518v97.19H495.432v97.2H396.345v97.191H297.259v97.2H198.172v97.191H99.087v97.2H0v102.532" transform="translate(15.291 14.999)" fill="none" stroke="#fff" stroke-linecap="round" stroke-linejoin="round" stroke-width="1" stroke-dasharray="0 5"/><path d="M1689.911,0H1585.379V97.195h-99.086v97.191h-99.087v97.2H1288.12v97.191h-99.087v97.2h-99.086v97.191H990.86v97.2H891.774v97.191H792.687v97.2H693.6v97.191H594.514v97.2H495.429v97.191H396.342v97.2H297.26v97.191H198.173v97.19H99.087v97.2H0v102.541" transform="translate(30.586 30.003)" fill="none" stroke="#fff" stroke-linecap="round" stroke-linejoin="round" stroke-width="1" stroke-dasharray="0 5"/><path d="M1689.915,0H1585.379V97.195h-99.087v97.2h-99.086v97.191h-99.087v97.2h-99.087v97.191h-99.082v97.2H990.865v97.19H891.779v97.191H792.692v97.2H693.6v97.191H594.519v97.2H495.432v97.191H396.346v97.2H297.26v97.191H198.173v97.2H99.087v97.19H0v102.541" transform="translate(45.878 45.003)" fill="none" stroke="#fff" stroke-linecap="round" stroke-linejoin="round" stroke-width="1" stroke-dasharray="0 5"/><path d="M1689.911,0H1585.379V97.195h-99.087V194.39h-99.086V291.58h-99.087v97.2h-99.086V485.97h-99.087v97.2H990.86v97.191H891.773v97.2H792.688v97.19H693.6v97.2H594.514v97.191H495.428v97.2H396.346v97.191h-99.09v97.191H198.173v97.2H99.087v97.191H0V1657.65" transform="translate(61.173 60.005)" fill="none" stroke="#fff" stroke-linecap="round" stroke-linejoin="round" stroke-width="1" stroke-dasharray="0 5"/></g></g><g transform="translate(1615.714 1584.869)"><line y1="1662.598" x2="1694.953" fill="none" stroke-dasharray="0 5" stroke-linecap="round" stroke-linejoin="round" stroke-width="1" stroke="#fff"/><line y1="1662.591" x2="1694.953" transform="translate(23.541 23.095)" fill="none" stroke-dasharray="0 5" stroke-linecap="round" stroke-linejoin="round" stroke-width="1" stroke="#fff"/><line y1="1662.598" x2="1694.953" transform="translate(47.082 46.183)" fill="none" stroke-dasharray="0 5" stroke-linecap="round" stroke-linejoin="round" stroke-width="1" stroke="#fff"/><line y1="1662.591" x2="1694.953" transform="translate(70.623 69.278)" fill="none" stroke-dasharray="0 5" stroke-linecap="round" stroke-linejoin="round" stroke-width="1" stroke="#fff"/><line y1="1662.594" x2="1694.953" transform="translate(94.164 92.37)" fill="none" stroke-dasharray="0 5" stroke-linecap="round" stroke-linejoin="round" stroke-width="1" stroke="#fff"/><g transform="translate(149.134 171.294)"><path d="M1689.912,0H1585.379V97.2h-99.086V194.39h-99.087v97.2H1288.12v97.191h-99.087v97.2h-99.085v97.191H990.865v97.19l-99.087.009v97.19H792.692v97.19H693.605v97.2H594.519v97.19H495.433v97.2H396.346v97.191H297.26v97.2H198.173v97.191H99.087v97.2H0v102.532" fill="none" stroke="#fff" stroke-linecap="round" stroke-linejoin="round" stroke-width="1" stroke-dasharray="0 5"/><path d="M1689.911,0H1585.378V97.2h-99.086v97.191h-99.087v97.2H1288.12v97.191h-99.087v97.2h-99.087v97.191H990.86v97.2H891.773v97.191H792.687v97.2H693.6v97.19H594.514v97.2H495.427v97.191H396.342v97.2H297.255v97.191H198.173v97.191H99.087v97.2H0v102.541" transform="translate(15.296 14.999)" fill="none" stroke="#fff" stroke-linecap="round" stroke-linejoin="round" stroke-width="1" stroke-dasharray="0 5"/><path d="M1689.911,0H1585.378V97.191h-99.087v97.2h-99.085v97.191h-99.087v97.2h-99.087v97.191h-99.087v97.19H990.864v97.2H891.777V777.55H792.691v97.2H693.6V971.94H594.519v97.2H495.432v97.19H396.345v97.2H297.259v97.191H198.173v97.2H99.087v97.19H0v102.541" transform="translate(30.587 30.006)" fill="none" stroke="#fff" stroke-linecap="round" stroke-linejoin="round" stroke-width="1" stroke-dasharray="0 5"/><path d="M1689.911,0H1585.379V97.191h-99.087v97.2h-99.086V291.58h-99.086v97.2h-99.087v97.19h-99.086v97.2H990.859v97.191H891.773v97.2H792.687v97.19H693.6v97.2H594.514v97.191H495.428v97.2H396.341v97.191H297.259v97.2H198.172v97.191H99.087v97.191H0v102.54" transform="translate(45.883 45.006)" fill="none" stroke="#fff" stroke-linecap="round" stroke-linejoin="round" stroke-width="1" stroke-dasharray="0 5"/><path d="M1689.911,0H1585.378V97.2h-99.086V194.39h-99.087v97.2h-99.087v97.191h-99.086v97.2h-99.087v97.191H990.864v97.191l-99.087.008v97.191H792.691v97.191H693.6v97.2H594.518v97.19H495.432v97.2H396.346v97.191H297.259v97.2H198.172v97.19H99.086v97.2H0v102.532" transform="translate(61.174 60.005)" fill="none" stroke="#fff" stroke-linecap="round" stroke-linejoin="round" stroke-width="1" stroke-dasharray="0 5"/></g></g></g></g></g><rect width="1359.316" height="1920.078" transform="translate(1920.078) rotate(90)" stroke="rgba(0,0,0,0)" stroke-width="1" fill="url(#b)"/><g transform="translate(1920.078 0) rotate(90)"><g clip-path="url(#e)"><g transform="translate(-1137.397 -783.342)" opacity="0.5" style="mix-blend-mode:overlay;isolation:isolate"><line y1="1684.767" x2="1717.554" fill="none" stroke-dasharray="0 5" stroke-linecap="round" stroke-linejoin="round" stroke-width="1" stroke="#fff"/><line y1="1684.767" x2="1717.553" transform="translate(23.855 23.4)" fill="none" stroke-dasharray="0 5" stroke-linecap="round" stroke-linejoin="round" stroke-width="1" stroke="#fff"/><line y1="1684.76" x2="1717.553" transform="translate(47.71 46.803)" fill="none" stroke-dasharray="0 5" stroke-linecap="round" stroke-linejoin="round" stroke-width="1" stroke="#fff"/><line y1="1684.767" x2="1717.553" transform="translate(71.565 70.198)" fill="none" stroke-dasharray="0 5" stroke-linecap="round" stroke-linejoin="round" stroke-width="1" stroke="#fff"/><line y1="1684.76" x2="1717.553" transform="translate(95.42 93.602)" fill="none" stroke-dasharray="0 5" stroke-linecap="round" stroke-linejoin="round" stroke-width="1" stroke="#fff"/><g transform="translate(151.123 173.578)"><path d="M1712.444,0H1606.518V98.491H1506.11v98.491H1405.7v98.491H1305.3v98.491H1204.887v98.49H1104.479v98.491h-100.4v98.491H903.668v98.491H803.261v98.491H702.854v98.49H602.446V1083.4H502.038v98.491H401.63v98.487H301.223v98.491H200.815v98.491H100.408v98.491H0v103.908" fill="none" stroke="#fff" stroke-linecap="round" stroke-linejoin="round" stroke-width="1" stroke-dasharray="0 5"/><path d="M1712.445,0H1606.519V98.491H1506.111v98.491H1405.7v98.49H1305.3v98.491H1204.887v98.491H1104.481V590.94H1004.073v98.491H903.665v98.491H803.257v98.49H702.849V984.9H602.442v98.491H502.035v98.491H401.627v98.491h-100.4v98.491H200.816v98.49H100.408v98.487H0v103.908" transform="translate(15.499 15.204)" fill="none" stroke="#fff" stroke-linecap="round" stroke-linejoin="round" stroke-width="1" stroke-dasharray="0 5"/><path d="M1712.448,0h-105.93V98.491H1506.111v98.49H1405.7v98.491H1305.3v98.491H1204.887v98.491h-100.4v98.491H1004.077v98.491H903.669v98.49H803.261v98.491H702.854v98.491H602.446V1083.4H502.038v98.491H401.631v98.486H301.223v98.49l-100.408,0v98.487H100.408v98.5H0v103.9" transform="translate(30.994 30.403)" fill="none" stroke="#fff" stroke-linecap="round" stroke-linejoin="round" stroke-width="1" stroke-dasharray="0 5"/><path d="M1712.444,0H1606.518V98.49H1506.11v98.491H1405.7v98.491H1305.3v98.491H1204.887v98.487H1104.48V590.94H1004.072v98.49l-100.407,0v98.487H803.257v98.491H702.849V984.9H602.442v98.491H502.034v98.49H401.626v98.491h-100.4v98.491H200.811v98.491h-100.4v98.491H0v103.908" transform="translate(46.494 45.607)" fill="none" stroke="#fff" stroke-linecap="round" stroke-linejoin="round" stroke-width="1" stroke-dasharray="0 5"/><path d="M1712.444,0H1606.518V98.491H1506.11v98.491H1405.7v98.491H1305.3v98.491H1204.887v98.49H1104.479v98.491h-100.4v98.491H903.668v98.491H803.261v98.491H702.854v98.491H602.446v98.49H502.038v98.491H401.63v98.491H301.222v98.486H200.815v98.491H100.408v98.491H0v103.908" transform="translate(61.989 60.805)" fill="none" stroke="#fff" stroke-linecap="round" stroke-linejoin="round" stroke-width="1" stroke-dasharray="0 5"/></g><g transform="translate(233.893 229.432)"><line y1="1684.767" x2="1717.557" fill="none" stroke-dasharray="0 5" stroke-linecap="round" stroke-linejoin="round" stroke-width="1" stroke="#fff"/><line y1="1684.763" x2="1717.557" transform="translate(23.855 23.399)" fill="none" stroke-dasharray="0 5" stroke-linecap="round" stroke-linejoin="round" stroke-width="1" stroke="#fff"/><line y1="1684.767" x2="1717.557" transform="translate(47.71 46.799)" fill="none" stroke-dasharray="0 5" stroke-linecap="round" stroke-linejoin="round" stroke-width="1" stroke="#fff"/><line y1="1684.764" x2="1717.557" transform="translate(71.565 70.198)" fill="none" stroke-dasharray="0 5" stroke-linecap="round" stroke-linejoin="round" stroke-width="1" stroke="#fff"/><line y1="1684.767" x2="1717.557" transform="translate(95.419 93.597)" fill="none" stroke-dasharray="0 5" stroke-linecap="round" stroke-linejoin="round" stroke-width="1" stroke="#fff"/><g transform="translate(151.126 173.578)"><path d="M1712.444,0h-105.93V98.491h-100.4v98.49H1405.7v98.491H1305.3v98.491H1204.887v98.487H1104.479V590.94H1004.073v98.491H903.665v98.49H803.257v98.491H702.849V984.9H602.442v98.491H502.034v98.491H401.627v98.491H301.219v98.486H200.811v98.5h-100.4v98.487H0v103.908" fill="none" stroke="#fff" stroke-linecap="round" stroke-linejoin="round" stroke-width="1" stroke-dasharray="0 5"/><path d="M1712.444,0H1606.518V98.49H1506.11v98.491H1405.7v98.491H1305.3v98.491H1204.887v98.491H1104.479v98.49h-100.4v98.491H903.665v98.491h-100.4v98.491H702.854v98.491H602.446v98.487l-100.408,0v98.49H401.63v98.487H301.223v98.5H200.816v98.487H100.408v98.5H0v103.9" transform="translate(15.495 15.199)" fill="none" stroke="#fff" stroke-linecap="round" stroke-linejoin="round" stroke-width="1" stroke-dasharray="0 5"/><path d="M1712.444,0H1606.518V98.491H1506.11v98.491H1405.7v98.491H1305.3v98.487H1204.887v98.494H1104.479V590.94H1004.072v98.491H903.664v98.491H803.256v98.491H702.849V984.9H602.442v98.49H502.034v98.491H401.626v98.491H301.218v98.491h-100.4v98.486H100.4v98.5H0v103.908" transform="translate(30.995 30.402)" fill="none" stroke="#fff" stroke-linecap="round" stroke-linejoin="round" stroke-width="1" stroke-dasharray="0 5"/><path d="M1712.444,0H1606.518V98.491H1506.11v98.491H1405.7v98.491H1305.294v98.49H1204.887v98.491H1104.479v98.491H1004.072v98.491H903.664v98.491h-100.4v98.49H702.853V984.9H602.446v98.5H502.038v98.491H401.63v98.491H301.223v98.487H200.815v98.494H100.407v98.487H0v103.908" transform="translate(46.49 45.602)" fill="none" stroke="#fff" stroke-linecap="round" stroke-linejoin="round" stroke-width="1" stroke-dasharray="0 5"/><path d="M1712.444,0h-105.93V98.491h-100.4v98.49H1405.7v98.491H1305.3v98.491H1204.887v98.487H1104.479V590.94H1004.073v98.491H903.665v98.49H803.257v98.491H702.849V984.9H602.442v98.491H502.035v98.491H401.627v98.491H301.219v98.487H200.811v98.494h-100.4v98.487H0v103.908" transform="translate(61.989 60.805)" fill="none" stroke="#fff" stroke-linecap="round" stroke-linejoin="round" stroke-width="1" stroke-dasharray="0 5"/></g></g><g transform="translate(467.789 458.858)"><line y1="1684.767" x2="1717.554" fill="none" stroke-dasharray="0 5" stroke-linecap="round" stroke-linejoin="round" stroke-width="1" stroke="#fff"/><line y1="1684.763" x2="1717.553" transform="translate(23.855 23.4)" fill="none" stroke-dasharray="0 5" stroke-linecap="round" stroke-linejoin="round" stroke-width="1" stroke="#fff"/><line y1="1684.767" x2="1717.553" transform="translate(47.71 46.799)" fill="none" stroke-dasharray="0 5" stroke-linecap="round" stroke-linejoin="round" stroke-width="1" stroke="#fff"/><line y1="1684.763" x2="1717.553" transform="translate(71.565 70.198)" fill="none" stroke-dasharray="0 5" stroke-linecap="round" stroke-linejoin="round" stroke-width="1" stroke="#fff"/><line y1="1684.767" x2="1717.553" transform="translate(95.42 93.598)" fill="none" stroke-dasharray="0 5" stroke-linecap="round" stroke-linejoin="round" stroke-width="1" stroke="#fff"/><g transform="translate(151.123 173.578)"><path d="M1712.444,0H1606.517V98.491H1506.11v98.491H1405.7v98.491H1305.3v98.491H1204.887v98.49H1104.479v98.491H1004.072v98.491H903.664v98.491h-100.4v98.491H702.854v98.491H602.446v98.485H502.038v98.5H401.63v98.487H301.223v98.495H200.815v98.487H100.408v98.495H0v103.9" fill="none" stroke="#fff" stroke-linecap="round" stroke-linejoin="round" stroke-width="1" stroke-dasharray="0 5"/><path d="M1712.449,0H1606.518V98.491h-100.4v98.491H1405.707v98.487H1305.3v98.494H1204.891v98.487H1104.484V590.94H1004.076v98.491H903.668v98.491H803.261v98.491H702.853V984.9H602.446v98.486H502.038v98.5H401.63v98.487H301.223v98.5H200.815v98.487h-100.4v98.495H0v103.9" transform="translate(15.495 15.204)" fill="none" stroke="#fff" stroke-linecap="round" stroke-linejoin="round" stroke-width="1" stroke-dasharray="0 5"/><path d="M1712.444,0H1606.519V98.491H1506.111v98.49H1405.7v98.491H1305.3v98.491H1204.887v98.491H1104.479v98.491H1004.073v98.491H903.665v98.49H803.257v98.491h-100.4v98.491H602.446V1083.4H502.038v98.487H401.631v98.5H301.223v98.486H200.816v98.5H100.408v98.486H0v103.909" transform="translate(30.994 30.403)" fill="none" stroke="#fff" stroke-linecap="round" stroke-linejoin="round" stroke-width="1" stroke-dasharray="0 5"/><path d="M1712.444,0H1606.518V98.49H1506.106v98.491H1405.7v98.491H1305.3v98.487H1204.887v98.491H1104.479V590.94H1004.072v98.49H903.665v98.491H803.257v98.491H702.849V984.9H602.442v98.491H502.034v98.487H401.626v98.494H301.219v98.487H200.811v98.5H100.4v98.487H0v103.908" transform="translate(46.494 45.607)" fill="none" stroke="#fff" stroke-linecap="round" stroke-linejoin="round" stroke-width="1" stroke-dasharray="0 5"/><path d="M1712.444,0H1606.518V98.491H1506.11v98.491H1405.7v98.491H1305.3v98.491H1204.887v98.49H1104.479v98.491H1004.072v98.491H903.664v98.491h-100.4v98.491H702.854v98.491H602.446v98.487H502.038v98.494H401.63v98.487H301.223v98.5H200.816v98.487H100.408v98.5H0v103.9" transform="translate(61.989 60.805)" fill="none" stroke="#fff" stroke-linecap="round" stroke-linejoin="round" stroke-width="1" stroke-dasharray="0 5"/></g></g><g transform="translate(701.681 688.29)"><line y1="1684.763" x2="1717.553" fill="none" stroke-dasharray="0 5" stroke-linecap="round" stroke-linejoin="round" stroke-width="1" stroke="#fff"/><line y1="1684.767" x2="1717.553" transform="translate(23.855 23.399)" fill="none" stroke-dasharray="0 5" stroke-linecap="round" stroke-linejoin="round" stroke-width="1" stroke="#fff"/><line y1="1684.763" x2="1717.557" transform="translate(47.709 46.799)" fill="none" stroke-dasharray="0 5" stroke-linecap="round" stroke-linejoin="round" stroke-width="1" stroke="#fff"/><line y1="1684.767" x2="1717.553" transform="translate(71.565 70.198)" fill="none" stroke-dasharray="0 5" stroke-linecap="round" stroke-linejoin="round" stroke-width="1" stroke="#fff"/><line y1="1684.763" x2="1717.554" transform="translate(95.419 93.597)" fill="none" stroke-dasharray="0 5" stroke-linecap="round" stroke-linejoin="round" stroke-width="1" stroke="#fff"/><g transform="translate(151.126 173.578)"><path d="M1712.444,0h-105.93V98.491H1506.106v98.487H1405.7v98.494H1305.295v98.487H1204.887v98.491H1104.479V590.94H1004.073v98.491H903.665v98.49H803.257v98.5H702.849V984.9H602.442v98.487l-100.408.009v98.487H401.627v98.487H301.219v98.494H200.811v98.487H100.4v98.5H0v103.9" fill="none" stroke="#fff" stroke-linecap="round" stroke-linejoin="round" stroke-width="1" stroke-dasharray="0 5"/><path d="M1712.444,0H1606.517V98.49H1506.111v98.491H1405.7v98.491H1305.3v98.491H1204.887v98.491H1104.479v98.491H1004.072v98.49H903.665v98.491H803.257v98.491H702.849V984.9h-100.4v98.5H502.038v98.487H401.63v98.494H301.223v98.487H200.816v98.5H100.408v98.486H0v103.909" transform="translate(15.495 15.199)" fill="none" stroke="#fff" stroke-linecap="round" stroke-linejoin="round" stroke-width="1" stroke-dasharray="0 5"/><path d="M1712.448,0H1606.518V98.491h-100.4v98.491H1405.706v98.487H1305.3v98.5H1204.892V492.45H1104.484v98.49H1004.076v98.491H903.668v98.491H803.261v98.491H702.854v98.5H602.446v98.486H502.038v98.487H401.63v98.495H301.223v98.487H200.816v98.5H100.408v98.486H0v103.908" transform="translate(30.991 30.402)" fill="none" stroke="#fff" stroke-linecap="round" stroke-linejoin="round" stroke-width="1" stroke-dasharray="0 5"/><path d="M1712.443,0H1606.518V98.491H1506.109v98.491H1405.7v98.491H1305.294v98.49H1204.887v98.491H1104.479v98.491H1004.072v98.491H903.664v98.491H803.256v98.487h-100.4v98.495H602.446v98.486H502.038v98.5H401.63v98.486H301.222v98.5H200.815v98.486H100.407v98.495H0v103.9" transform="translate(46.49 45.602)" fill="none" stroke="#fff" stroke-linecap="round" stroke-linejoin="round" stroke-width="1" stroke-dasharray="0 5"/><path d="M1712.444,0h-105.93V98.491H1506.106v98.487H1405.7v98.494H1305.3v98.486H1204.887v98.491H1104.48V590.94H1004.073v98.491H903.665v98.491H803.257v98.494H702.849V984.9H602.442v98.486H502.035v98.5H401.627v98.487H301.219v98.494H200.811v98.487H100.4v98.5H0v103.908" transform="translate(61.989 60.805)" fill="none" stroke="#fff" stroke-linecap="round" stroke-linejoin="round" stroke-width="1" stroke-dasharray="0 5"/></g></g><g transform="translate(935.574 917.716)"><line y1="1684.763" x2="1717.557" fill="none" stroke-dasharray="0 5" stroke-linecap="round" stroke-linejoin="round" stroke-width="1" stroke="#fff"/><line y1="1684.767" x2="1717.553" transform="translate(23.859 23.4)" fill="none" stroke-dasharray="0 5" stroke-linecap="round" stroke-linejoin="round" stroke-width="1" stroke="#fff"/><line y1="1684.764" x2="1717.553" transform="translate(47.714 46.799)" fill="none" stroke-dasharray="0 5" stroke-linecap="round" stroke-linejoin="round" stroke-width="1" stroke="#fff"/><line y1="1684.767" x2="1717.553" transform="translate(71.568 70.198)" fill="none" stroke-dasharray="0 5" stroke-linecap="round" stroke-linejoin="round" stroke-width="1" stroke="#fff"/><line y1="1684.763" x2="1717.553" transform="translate(95.423 93.598)" fill="none" stroke-dasharray="0 5" stroke-linecap="round" stroke-linejoin="round" stroke-width="1" stroke="#fff"/><g transform="translate(151.126 173.578)"><path d="M1712.444,0H1606.517V98.491H1506.11v98.491H1405.7v98.491H1305.3v98.491H1204.887v98.49H1104.479v98.491H1004.072v98.491H903.664v98.487H803.257v98.5H702.849V984.9h-100.4V1083.4H502.038v98.487H401.63v98.5H301.223v98.487H200.815v98.486H100.408v98.495H0v103.908" fill="none" stroke="#fff" stroke-linecap="round" stroke-linejoin="round" stroke-width="1" stroke-dasharray="0 5"/><path d="M1712.444,0H1606.513V98.491H1506.105v98.486H1405.7v98.491H1305.294v98.49H1204.887v98.491H1104.479V590.94H1004.072v98.491H903.664v98.5H803.256v98.487H702.848V984.9H602.442v98.495H502.034v98.487H401.626v98.5H301.218v98.487H200.81v98.494H100.4v98.487H0v103.908" transform="translate(15.5 15.204)" fill="none" stroke="#fff" stroke-linecap="round" stroke-linejoin="round" stroke-width="1" stroke-dasharray="0 5"/><path d="M1712.444,0H1606.518V98.491H1506.11v98.491H1405.7v98.49H1305.3v98.491H1204.887v98.491H1104.481v98.491H1004.073v98.487H903.665v98.494H803.257v98.486H702.849v98.5h-100.4v98.486H502.034v98.5h-100.4v98.487H301.223v98.495H200.816v98.486H100.408v98.5H0v103.9" transform="translate(30.994 30.403)" fill="none" stroke="#fff" stroke-linecap="round" stroke-linejoin="round" stroke-width="1" stroke-dasharray="0 5"/><path d="M1712.449,0H1606.518V98.49H1506.11v98.491H1405.7v98.487H1305.3v98.491H1204.892v98.491H1104.484V590.94H1004.076v98.494H903.669v98.487H803.261v98.487H702.854v98.5H602.446v98.487H502.038v98.5H401.63v98.486H301.223v98.5H200.816v98.487H100.408v98.5H0v103.9" transform="translate(46.489 45.607)" fill="none" stroke="#fff" stroke-linecap="round" stroke-linejoin="round" stroke-width="1" stroke-dasharray="0 5"/><path d="M1712.444,0H1606.518V98.491H1506.11v98.491H1405.7v98.491H1305.3v98.491H1204.888v98.491H1104.48V590.94H1004.072v98.5H903.664v98.487H803.257v98.5H702.849V984.9h-100.4V1083.4H502.038v98.487H401.63v98.5H301.223v98.487H200.816v98.5H100.408v98.487H0v103.908" transform="translate(61.989 60.805)" fill="none" stroke="#fff" stroke-linecap="round" stroke-linejoin="round" stroke-width="1" stroke-dasharray="0 5"/></g></g><g transform="translate(1169.469 1147.148)"><line y1="1684.759" x2="1717.553" fill="none" stroke-dasharray="0 5" stroke-linecap="round" stroke-linejoin="round" stroke-width="1" stroke="#fff"/><line y1="1684.763" x2="1717.553" transform="translate(23.855 23.399)" fill="none" stroke-dasharray="0 5" stroke-linecap="round" stroke-linejoin="round" stroke-width="1" stroke="#fff"/><line y1="1684.767" x2="1717.553" transform="translate(47.71 46.799)" fill="none" stroke-dasharray="0 5" stroke-linecap="round" stroke-linejoin="round" stroke-width="1" stroke="#fff"/><line y1="1684.764" x2="1717.553" transform="translate(71.565 70.198)" fill="none" stroke-dasharray="0 5" stroke-linecap="round" stroke-linejoin="round" stroke-width="1" stroke="#fff"/><line y1="1684.759" x2="1717.554" transform="translate(95.419 93.597)" fill="none" stroke-dasharray="0 5" stroke-linecap="round" stroke-linejoin="round" stroke-width="1" stroke="#fff"/><g transform="translate(151.122 173.573)"><path d="M1712.449,0l-105.93,0V98.491H1506.111v98.494H1405.7v98.486H1305.3v98.491H1204.892v98.491H1104.484v98.5H1004.077v98.486H903.669V787.93H803.261v98.487H702.854V984.9H602.446v98.5H502.039v98.486H401.631v98.5H301.224v98.487H200.816v98.494H100.408v98.487H0v103.909" fill="none" stroke="#fff" stroke-linecap="round" stroke-linejoin="round" stroke-width="1" stroke-dasharray="0 5"/><path d="M1712.444,0H1606.517V98.49H1506.111v98.491H1405.7v98.491H1305.295v98.491H1204.887v98.487H1104.479v98.5H1004.072V689.43H903.665v98.5H803.257v98.487H702.849v98.5H602.442v98.486h-100.4v98.495H401.63v98.486H301.223v98.5H200.816v98.486H100.408v98.5H0v103.9" transform="translate(15.5 15.204)" fill="none" stroke="#fff" stroke-linecap="round" stroke-linejoin="round" stroke-width="1" stroke-dasharray="0 5"/><path d="M1712.449,0H1606.518V98.5H1506.11v98.486H1405.7v98.491H1305.3v98.491H1204.887v98.494h-100.4v98.487H1004.076v98.487l-100.408.009v98.487H803.261v98.5H702.854v98.487H602.446v98.487H502.038v98.494H401.63v98.487H301.223v98.495H200.815v98.487H100.408v98.5H0v103.9" transform="translate(30.995 30.402)" fill="none" stroke="#fff" stroke-linecap="round" stroke-linejoin="round" stroke-width="1" stroke-dasharray="0 5"/><path d="M1712.444,0H1606.518V98.491H1506.11v98.491H1405.7v98.491H1305.295v98.487H1204.888v98.494H1104.48V590.94H1004.072v98.5H903.664v98.487H803.256v98.5H702.849V984.9H602.442v98.5H502.034v98.487H401.63v98.5H301.223v98.487H200.815v98.495H100.407v98.486H0v103.909" transform="translate(46.495 45.606)" fill="none" stroke="#fff" stroke-linecap="round" stroke-linejoin="round" stroke-width="1" stroke-dasharray="0 5"/><path d="M1712.448,0l-105.93,0V98.491H1506.11v98.5H1405.7v98.486H1305.3v98.5H1204.891v98.487H1104.484v98.5H1004.076v98.486H903.669V787.93H803.26v98.486H702.853V984.9H602.445v98.5H502.038v98.486H401.63v98.5H301.223v98.487H200.815v98.494H100.407v98.487H0v103.909" transform="translate(61.99 60.806)" fill="none" stroke="#fff" stroke-linecap="round" stroke-linejoin="round" stroke-width="1" stroke-dasharray="0 5"/></g></g><g transform="translate(1403.367 1376.574)"><line y1="1684.767" x2="1717.553" fill="none" stroke-dasharray="0 5" stroke-linecap="round" stroke-linejoin="round" stroke-width="1" stroke="#fff"/><line y1="1684.763" x2="1717.557" transform="translate(23.85 23.4)" fill="none" stroke-dasharray="0 5" stroke-linecap="round" stroke-linejoin="round" stroke-width="1" stroke="#fff"/><line y1="1684.768" x2="1717.557" transform="translate(47.705 46.799)" fill="none" stroke-dasharray="0 5" stroke-linecap="round" stroke-linejoin="round" stroke-width="1" stroke="#fff"/><line y1="1684.763" x2="1717.554" transform="translate(71.564 70.199)" fill="none" stroke-dasharray="0 5" stroke-linecap="round" stroke-linejoin="round" stroke-width="1" stroke="#fff"/><line y1="1684.767" x2="1717.557" transform="translate(95.415 93.598)" fill="none" stroke-dasharray="0 5" stroke-linecap="round" stroke-linejoin="round" stroke-width="1" stroke="#fff"/><g transform="translate(151.122 173.578)"><path d="M1712.444,0H1606.517V98.491H1506.109v98.491H1405.7v98.486H1305.295v98.5H1204.887V492.45H1104.479v98.495H1004.072v98.487H903.664v98.495H803.257v98.487H702.849v98.5H602.441v98.486H502.034v98.495H401.63v98.487H301.223v98.486H200.816v98.5H100.408v98.487H0v103.907" fill="none" stroke="#fff" stroke-linecap="round" stroke-linejoin="round" stroke-width="1" stroke-dasharray="0 5"/><path d="M1712.449,0,1606.518,0V98.491H1506.11v98.491H1405.7v98.5H1305.3v98.486H1204.887v98.5h-100.4v98.487H1004.076v98.486H903.668v98.5H803.26v98.487H702.853v98.495H602.446v98.486H502.038v98.5H401.63v98.487H301.223v98.495H200.815v98.487H100.408v98.494H0v103.9" transform="translate(15.495 15.199)" fill="none" stroke="#fff" stroke-linecap="round" stroke-linejoin="round" stroke-width="1" stroke-dasharray="0 5"/><path d="M1712.444,0H1606.518V98.491H1506.111v98.487H1405.7v98.494H1305.3v98.487H1204.887v98.5H1104.48V590.94H1004.073v98.495H903.665v98.487H803.257v98.494H702.849V984.9H602.442v98.5H502.035v98.487H401.627v98.5h-100.4v98.487H200.816v98.486H100.408v98.495H0v103.909" transform="translate(30.994 30.403)" fill="none" stroke="#fff" stroke-linecap="round" stroke-linejoin="round" stroke-width="1" stroke-dasharray="0 5"/><path d="M1712.449,0h-105.93V98.491H1506.11v98.494H1405.7v98.487H1305.3v98.5H1204.887v98.487h-100.4v98.5H1004.077v98.486H903.669v98.487H803.261v98.495H702.853V984.9H602.446v98.5H502.038v98.486H401.631v98.495H301.223v98.487H200.815v98.5H100.408v98.486H0v103.909" transform="translate(46.489 45.603)" fill="none" stroke="#fff" stroke-linecap="round" stroke-linejoin="round" stroke-width="1" stroke-dasharray="0 5"/><path d="M1712.444,0H1606.518V98.491H1506.11v98.491H1405.7v98.486H1305.3v98.5H1204.888V492.45H1104.48v98.494H1004.072v98.487H903.664v98.5H803.257v98.486H702.849v98.5H602.442v98.487H502.034v98.494H401.63v98.487H301.219v98.487h-100.4v98.5H100.408v98.487H0v103.908" transform="translate(61.989 60.806)" fill="none" stroke="#fff" stroke-linecap="round" stroke-linejoin="round" stroke-width="1" stroke-dasharray="0 5"/></g></g><g transform="translate(1637.258 1606.001)"><line y1="1684.767" x2="1717.553" fill="none" stroke-dasharray="0 5" stroke-linecap="round" stroke-linejoin="round" stroke-width="1" stroke="#fff"/><line y1="1684.76" x2="1717.553" transform="translate(23.855 23.403)" fill="none" stroke-dasharray="0 5" stroke-linecap="round" stroke-linejoin="round" stroke-width="1" stroke="#fff"/><line y1="1684.767" x2="1717.554" transform="translate(47.71 46.799)" fill="none" stroke-dasharray="0 5" stroke-linecap="round" stroke-linejoin="round" stroke-width="1" stroke="#fff"/><line y1="1684.76" x2="1717.553" transform="translate(71.565 70.202)" fill="none" stroke-dasharray="0 5" stroke-linecap="round" stroke-linejoin="round" stroke-width="1" stroke="#fff"/><line y1="1684.763" x2="1717.553" transform="translate(95.42 93.602)" fill="none" stroke-dasharray="0 5" stroke-linecap="round" stroke-linejoin="round" stroke-width="1" stroke="#fff"/><g transform="translate(151.122 173.578)"><path d="M1712.445,0H1606.518V98.5H1506.111v98.486H1405.7v98.494H1305.3v98.487H1204.887v98.5H1104.481v98.487h-100.4v98.486l-100.408.009v98.486H803.261v98.486H702.854v98.5H602.446v98.486H502.039v98.5H401.631v98.487H301.223v98.494H200.816v98.487H100.408v98.5H0v103.9" fill="none" stroke="#fff" stroke-linecap="round" stroke-linejoin="round" stroke-width="1" stroke-dasharray="0 5"/><path d="M1712.444,0H1606.517V98.494H1506.111v98.487H1405.7v98.5H1305.3v98.486H1204.887v98.5H1104.479v98.487H1004.073v98.494H903.664v98.486H803.257v98.5H702.849v98.486H602.442v98.5H502.033v98.487H401.627v98.494H301.219v98.487h-100.4v98.487H100.408v98.495H0V1679.76" transform="translate(15.5 15.199)" fill="none" stroke="#fff" stroke-linecap="round" stroke-linejoin="round" stroke-width="1" stroke-dasharray="0 5"/><path d="M1712.444,0H1606.518V98.487H1506.11v98.5H1405.7v98.487H1305.3v98.5H1204.887V492.45H1104.479v98.486h-100.4v98.495H903.668v98.487H803.261v98.495H702.853V984.9H602.446v98.5H502.038v98.486H401.63v98.5H301.223v98.487H200.815v98.5H100.408v98.486H0v103.908" transform="translate(30.995 30.407)" fill="none" stroke="#fff" stroke-linecap="round" stroke-linejoin="round" stroke-width="1" stroke-dasharray="0 5"/><path d="M1712.444,0H1606.518V98.487H1506.11v98.5H1405.7v98.486H1305.3v98.495H1204.887v98.486H1104.48v98.5H1004.072v98.487H903.664v98.5H803.256v98.486H702.849v98.495H602.442v98.486H502.034v98.5H401.626v98.487h-100.4v98.5H200.815v98.487H100.408v98.487H0v103.907" transform="translate(46.495 45.606)" fill="none" stroke="#fff" stroke-linecap="round" stroke-linejoin="round" stroke-width="1" stroke-dasharray="0 5"/><path d="M1712.444,0H1606.517V98.5H1506.11v98.487H1405.7v98.494H1305.294v98.487H1204.887v98.5H1104.479v98.487h-100.4v98.487l-100.408.008v98.487H803.26v98.487H702.853v98.495H602.445v98.486H502.038v98.5H401.63v98.487H301.223v98.495H200.815v98.486H100.407v98.5H0v103.9" transform="translate(61.99 60.806)" fill="none" stroke="#fff" stroke-linecap="round" stroke-linejoin="round" stroke-width="1" stroke-dasharray="0 5"/></g></g></g></g></g></g><rect width="1920" height="300" fill="url(#f)"/></svg>