<?xml version="1.0" encoding="utf-8"?>
<!-- Generator: Adobe Illustrator 16.0.0, SVG Export Plug-In . SVG Version: 6.00 Build 0)  -->
<!DOCTYPE svg [
	<!ENTITY ns_flows "http://ns.adobe.com/Flows/1.0/">
	<!ENTITY ns_extend "http://ns.adobe.com/Extensibility/1.0/">
	<!ENTITY ns_ai "http://ns.adobe.com/AdobeIllustrator/10.0/">
	<!ENTITY ns_graphs "http://ns.adobe.com/Graphs/1.0/">
]>
<svg version="1.2" baseProfile="tiny" id="Layer_1" xmlns:x="&ns_extend;" xmlns:i="&ns_ai;" xmlns:graph="&ns_graphs;"
	 xmlns="http://www.w3.org/2000/svg" xmlns:xlink="http://www.w3.org/1999/xlink" xmlns:a="http://ns.adobe.com/AdobeSVGViewerExtensions/3.0/"
	 x="0px" y="0px" width="595.28px" height="584.97px" viewBox="0 0 595.28 584.97" xml:space="preserve">
<path fill="#FFFFFF" d="M502.27,104.7c0,4.97,0,9.94,0,14.92c0,6.62,8.3,4.29,13.15,9.14c4.85,4.85,2.53,13.15,9.14,13.15
	c4.97,0,9.94,0,14.92,0C539.47,121.65,522.52,104.7,502.27,104.7z"/>
<path fill="#FFFFFF" d="M55.81,114c13.36,0,26.72,0,40.08,0c2.13,0,14.19-1.61,15.72,0c0.9,0.95,0.9,17.66,0,18.6
	c-3.99,4.17-34.09,0-40.08,0C53.19,132.61,55.81,132.63,55.81,114z"/>
<path fill="#FFFFFF" d="M55.81,151.21c8.33,0,16.67,0,25,0c4.45,0,5.43,15.69,2.9,18.6c-2.19,2.52-21.3,0-25,0
	C52.78,169.81,55.81,156.27,55.81,151.21z"/>
<g>
	<path fill="#FFFFFF" d="M558.07,459.91c0-14.04-27.39-9.3-35.66-9.3c-11.94,0-20.15,1.03-20.15,14.75c0,28,0,56.01,0,84.01
		c0,8.41-18.6,1.63-18.6,3.23c0-13.43,0-26.86,0-40.29c0-7.51,3.65-27.69-4.61-32.52c-9.39-5.5-29.4-1.27-39.84-1.27
		c-20.03,0-11.36,56.23-11.36,69.59c0,10.98-18.6,0.9-18.6,5.85c0,3.21-1.97,15.3,0,17.57c1.89,2.18,18.78,0,21.88,0
		c43.86,0,87.73,0,131.59,0c2.08,0,13.95,1.23,13.95-1.03c0-2.69,1.18-17.57-1.03-17.57c-16.75,0-17.57,3.06-17.57-13.03
		C558.07,513.24,558.01,486.56,558.07,459.91z M446.46,552.92c0-13.36,0-26.72,0-40.08c0-2.13-1.61-14.19,0-15.72
		c0.95-0.9,17.66-0.9,18.6,0c4.17,3.99,0,34.09,0,40.08C465.06,555.54,465.08,552.92,446.46,552.92z M520.87,552.92
		c0-18.08,0-36.16,0-54.25c0-9.04,0-18.08,0-27.12c0-3.99,16.49-4.43,18.6-2.34c1.89,1.86,0,15.56,0,18.08c0,12.05,0,24.11,0,36.16
		c0,9.04,0,18.08,0,27.12C539.47,555.74,525.27,552.92,520.87,552.92z"/>
	<path fill="#FFFFFF" d="M567.38,357.59c-18.47,0-36.94,0-55.4,0c0.91,0-4.03,18.6,2.07,18.6c10.29,0,20.59,0,30.88,0
		c-10.7,10.7-21.39,21.39-32.09,32.08c-14.83,14.83-14.02,11.59-33.31,1.95c-17.12-8.56-22.52-2.4-37,8.46
		c-6.62,4.97-13.25,9.93-19.87,14.9c-0.78,0.58,9.44,13.36,10.79,15.16c10.34-7.75,20.68-15.51,31.02-23.26
		c4.9-3.68,27.33,11.69,33.11,14.58c10.84,5.42,25.26-15.46,31.48-21.68c9.67-9.67,19.35-19.35,29.03-29.03
		c0,3.79-2.47,21.92,0,24.05c2.11,1.83,18.6,1,18.6-1.78C576.68,401.88,583.25,357.59,567.38,357.59z"/>
	<g>
		<path fill="#FFFFFF" d="M502.27,13.45c-26.22,0-50.98,14.28-64.23,36.88c-6.65,11.34-10.17,24.38-10.17,37.53
			c0,10.69-3.79,13.45-8.93,22.44c-6.56,11.49-12.19,25.34-20.4,35.7c-7.2,12.58-29.15,12.42-41.76,14.73
			c36.76-48.15,1.1-119.38-59.13-119.38c-60.26,0-95.85,71.22-59.14,119.39c-10.51-1.93-24.03-2.09-33.67-7.02
			c-11.29-5.77-18.08-25.22-23.96-35.51c-5.28-9.24-13.44-17.05-13.44-27.57c0-9.09,4.22-30.31-3.03-37.56
			c-12.7-12.7-29.65-39.63-48.93-39.63c-28,0-56.01,0-84.01,0c-19.56,0-12.86,32.37-12.86,45.46c0,32.85,0,65.7,0,98.55
			c0,14.3-6.34,42.01,14.01,42.01c29.26,0,58.53,0,87.79,0c14.45,0,15.85-2.39,22.81,10.57c9.82,18.27,28.92,21.31,47.04,26.64
			c-10.29,3.03-22.47,5.04-31.83,10.45c-11.07,6.39-15.96,17.58-21.72,28.28c-10.74,19.94-34.11,48.98-33.58,72.76
			c0.51,22.77,21.57,40.35,44,36.89c17.15-2.64,25.36-15.3,33.18-28.97c6.49-11.36,12.98-22.71,19.48-34.07
			c3.72-6.51,16.49-6.58,23.43-8.31c0,48.25,0,96.51,0,144.76c0,22.55,0,45.11,0,67.66c0,38.87,47.64,63.26,74.41,29.39
			c26.77,33.86,74.41,9.49,74.41-29.39c0-22.55,0-45.11,0-67.66c0-48.25,0-96.51,0-144.76c5.19,1.29,19.89,2.1,22.55,6.76
			c6.2,10.84,12.39,21.68,18.59,32.52c6.37,11.15,11.84,22.73,24.08,28.68c22.25,10.81,49.39-2.8,54.17-27.06
			c4.81-24.4-20.37-55.97-31.24-76.17c-4.75-8.82-9.08-19.43-16.56-26.33c-10.05-9.28-25.86-11.67-38.63-15.42
			c17.46-5.14,37.08-8.14,46.55-25.74c8.14-15.11,16.28-30.22,24.41-45.34c11.07-20.56,22.46,5.18,26.57,15.87
			c5.64,14.66,10.58,40.97,24.47,50.5c26.1,17.92,47.21-12.67,38.03-36.56c-6.1-15.86-12.2-31.73-18.3-47.59
			c0.44,1.15,23.85-30.2,25.49-34.7c5.55-15.25,5.89-32.24,0.99-47.7C563.54,34.86,534.32,13.45,502.27,13.45z M241.83,115.76
			c0-34.78,32.96-61.66,67.04-54.67c34.21,7.02,54.01,45.13,39.84,77.13C325.01,191.75,241.83,174.97,241.83,115.76
			C241.83,84.98,241.83,139.73,241.83,115.76z M37.2,180.87c0-24.8,0-49.61,0-74.41c0-16.53,0-33.06,0-49.59
			c0-3.65-2.66-22.05,0-24.82c3.35-3.5,28.97,0,33.76,0c15.01,0,30.01,0,45.02,0c6.77,0,21.42,20.34,26.22,25.13
			c9.42,9.42,6.63,18.08,6.63,31.46c-21.49-4.26-42.8,11.09-45.43,32.92c-2.45,20.42,14.85,42.19,24.12,59.31
			C97.41,180.87,67.31,180.87,37.2,180.87L37.2,180.87z M435.02,202.43c-5.95,11.04-24.38,13.21-35.29,16.42
			c-8.18,2.4-31.92,4.79-36.13,13.95c-8.21,17.81,53.46,24.39,63.96,30.45c8.75,5.05,13.49,18.85,18,27.24
			c7.52,13.96,15.04,27.93,22.56,41.89c7.36,13.67,6.09,34.52-14.19,34.52c-15.49,0-21.97-18.56-28.37-29.77
			c-5.18-9.07-10.08-23.27-17.52-30.66c-5.2-9.09-29.63-10.36-38.63-12.61c-21.58-5.39-15.95,22.67-15.95,36.07
			c0,60.73,0,121.45,0,182.18c0,19.21-5.57,54.67-34.77,37.73c-18-10.44-11.43-45.36-11.34-62.46c0.25-46.67-0.45-93.82-0.39-139.06
			c-6.2-0.01-12.4-0.01-18.6-0.02c-0.05,52.28-0.1,104.55-0.15,156.83c-0.01,7.8-0.02,15.59-0.02,23.39
			c-0.02,21.56-27.02,33.43-41.24,15.73c-10.06-12.53-5.1-40.33-5.1-54.9c0-59.4,0-118.8,0-178.2c0-5.34,1.25-12.92-3.58-16.67
			c-8.41-6.54-31.96,4.3-40.79,6.51c-18.77,4.69-29.98,40.12-38.91,55.74c-12.37,21.66-46.56,3.86-34.43-18.67
			c3.56-10.28,10.99-20.42,16.14-29.96c6.28-11.67,12.56-23.33,18.84-35c6.09-11.31,17.58-13.02,28.88-16.34
			c12.5-3.67,24.99-7.35,37.49-11.02c20.67-6.08-3.37-19.06-11.09-21.32c-13.38-3.93-26.76-7.87-40.14-11.8
			c-15.67-4.61-13.4-17.03-22.95-26.83c-8.38-15.57-37.57-51.57-26.73-69.76c20.95-34.98,46.79,23.06,54.21,36.03
			c14.84,25.98,48.59,25.58,75.06,30.44c12.26,2.25,25.25,6.35,37.55,7.43c15.63,1.36,31.19-3.96,46.51-6.78
			c21.95-4.03,58.67-4.09,73.69-23.26c11.3-14.43,17.19-44.44,35.03-51.81c8.7-3.49,19.24-0.25,24.12,7.92
			c6.03,10.1,0.67,18.86-4.14,27.8C456.05,163.33,445.54,182.88,435.02,202.43z M549.62,207.12c3.7,9.64-11.44,15.15-15.04,5.79
			c-2.82-3.03-4.15-10.78-5.6-14.57c-4.76-12.38-9.52-24.75-14.28-37.13c3.13-0.56,15.16-5.49,16.1-3.05
			c2.09,5.44,4.18,10.88,6.27,16.32C541.25,185.36,545.44,196.24,549.62,207.12z M530.39,135.98c-12.51,7.32-27.71,9.56-41.76,5.97
			c12.83-28.05-12.16-58.72-42.16-53.33c0-39.38,40.68-67.78,77.51-52.18C565.5,54.03,569.3,113.15,530.39,135.98
			C526.27,138.39,546.92,126.28,530.39,135.98z"/>
	</g>
	<path fill="#FFFFFF" d="M55.81,134.36c8.33,0,16.67,0,25,0c4.45,0,5.43,15.69,2.9,18.6c-2.19,2.52-21.3,0-25,0
		C52.78,152.97,55.81,139.43,55.81,134.36z"/>
	<path fill="#FFFFFF" d="M126.97,397.24c-55.31-49.19-138.4,22.47-97.71,84.32c12.56,19.06,17.24,31.89,17.24,54.3
		c0,12.37-5.24,35.66,12.69,35.66c16.95,0,33.9,0,50.86,0c16.44,0,10.86-28.66,10.86-39.13c0-19.13,2.99-31.53,14.77-47.3
		C155.74,458.23,152.07,419.58,126.97,397.24C113.1,384.91,140.86,409.6,126.97,397.24z M102.31,552.92c-9.94,0-19.89,0-29.83,0
		c-1.67,0-7.38,1.12-7.38-1.03c0-2.88-1.87-15.75,0-17.57c3.29-3.2,25.03,0,29.83,0C106.72,534.32,102.31,542.12,102.31,552.92z
		 M121.16,473.43c-6.94,9.23-14.11,18.67-16.94,30.08c-3.6,14.5-1.54,12.2-16.5,12.2c-4.09,0-19.49,2.55-22.73,0
		c-0.95-17.89-10.74-30.05-20.18-44.38c-18.56-28.23-0.3-67.66,33.24-71.6C117.62,395.04,144.95,441.27,121.16,473.43z"/>
	<path fill="#FFFFFF" d="M83.71,444.02c-6.79-4.53-13.58-9.06-20.38-13.58c-4.85-3.23-9.92,9.75-12.69,13.9
		c5.47,3.65,23.76,11.56,23.76,18.23c0,7.16,0,14.32,0,21.49c0,8.48-1.31,8.36,7.32,8.36c3.84,0,11.28,2.3,11.28-2.39
		c0-8.27,0-16.54,0-24.81c0-10.11,15.86-15.61,23.76-20.88c-1.43-2.15-9.61-15.96-10.96-15.05
		C98.45,434.2,91.08,439.11,83.71,444.02z"/>
</g>
</svg>
