<?xml version="1.0" encoding="utf-8"?>
<!-- Generator: Adobe Illustrator 16.0.0, SVG Export Plug-In . SVG Version: 6.00 Build 0)  -->
<!DOCTYPE svg PUBLIC "-//W3C//DTD SVG 1.1//EN" "http://www.w3.org/Graphics/SVG/1.1/DTD/svg11.dtd">
<svg version="1.1" id="Layer_1" xmlns="http://www.w3.org/2000/svg" xmlns:xlink="http://www.w3.org/1999/xlink" x="0px" y="0px"
	 width="64px" height="64px" viewBox="0 0 64 64" enable-background="new 0 0 64 64" xml:space="preserve">
<g>
	<polygon points="59.387,8.933 59.387,8.933 59.387,8.934 	"/>
	<path d="M57.079,14.921c-1.275,0.353-2.28,0.297-2.28,0.297l0.041-0.242c1.187-0.95,4.183-3.866,4.578-5.23
		c0.172-0.589-0.031-0.793-0.034-0.813l-3.822,1.624l-3.201,1.444l0,0c-2.209-2.338-5.556-3.828-9.293-3.828
		c-6.652,0-12.047,4.713-12.047,10.528c0,1.063,0.158,3.004,0.491,3.972c0,0.305,0.014-0.306,0,0
		c-4.283-0.117-9.774-1.875-14.666-4.353c-9.646-4.888-10.25-8.271-10.25-8.271c-1.515,1.609-2.297,6.937-0.762,11.112
		c0.984,2.674,4.363,5.073,4.363,5.073l0,0c0,0-1.51,0.029-3.094-0.507c-1.584-0.535-2.182-1.065-2.182-1.065
		c-0.941,2.296,0.947,6.396,4.211,9.336c1.901,1.715,5.377,2.79,5.377,2.79L9.081,36.94c-0.305,5.277,11.065,8.412,11.065,8.412l0,0
		c-3.333,2.563-7.2,4.123-11.345,4.123c-2.147,0-4.225-0.32-6.195-0.908c5.477,4.513,12.515,7.627,20.167,7.225
		c20.303-1.066,31.766-18.52,32.31-35.66l0.025,0.035c0,0,0.951-0.475,2.986-2.509c2.031-2.034,3.299-4.414,3.299-4.414
		S58.356,14.569,57.079,14.921z"/>
	<path d="M59.387,8.934C59.399,9.258,59.387,8.966,59.387,8.934L59.387,8.934z"/>
</g>
</svg>
