<?xml version="1.0" encoding="utf-8"?>
<!-- Generator: Adobe Illustrator 16.0.0, SVG Export Plug-In . SVG Version: 6.00 Build 0)  -->
<!DOCTYPE svg PUBLIC "-//W3C//DTD SVG 1.1//EN" "http://www.w3.org/Graphics/SVG/1.1/DTD/svg11.dtd">
<svg version="1.1" id="Layer_1" xmlns="http://www.w3.org/2000/svg" xmlns:xlink="http://www.w3.org/1999/xlink" x="0px" y="0px"
	 width="49.871px" height="51.516px" viewBox="0 0 49.871 51.516" enable-background="new 0 0 49.871 51.516" xml:space="preserve">
<title>email-inbox-message</title>
<g>
	<path d="M40.678,4.29H24.935c-2.37,0.003-4.291,1.923-4.293,4.293v5.009c0,0.395,0.319,0.715,0.715,0.715
		c0.395,0,0.716-0.319,0.716-0.715v-1.432h21.468v25.762H22.073V33.63c0-0.396-0.321-0.716-0.716-0.716
		c-0.395,0-0.715,0.319-0.715,0.716v9.302c0.002,2.37,1.922,4.292,4.293,4.294h15.743c2.371-0.002,4.292-1.923,4.295-4.294V8.584
		C44.97,6.214,43.05,4.293,40.678,4.29z M22.073,10.73V8.584c0-1.581,1.281-2.862,2.861-2.862h15.743
		c1.582,0,2.863,1.282,2.863,2.862v2.146H22.073z M40.678,45.795H24.935c-1.581,0-2.861-1.281-2.861-2.862v-3.579h21.468v3.579
		C43.541,44.514,42.26,45.795,40.678,45.795z"/>
	<path d="M35.312,7.511h-5.01c-0.394,0-0.716,0.32-0.716,0.715c0,0.395,0.32,0.716,0.716,0.716h5.01c0.396,0,0.716-0.32,0.716-0.716
		S35.707,7.511,35.312,7.511z"/>
	<path d="M32.807,40.07c-1.383,0-2.505,1.122-2.505,2.506c0,1.383,1.122,2.504,2.505,2.504c1.382,0,2.505-1.121,2.505-2.504
		C35.312,41.192,34.188,40.07,32.807,40.07z M32.807,43.648c-0.594,0-1.073-0.48-1.073-1.072c0-0.594,0.479-1.073,1.073-1.073
		c0.593,0,1.073,0.479,1.073,1.073l0,0C33.881,43.167,33.399,43.648,32.807,43.648z"/>
	<path d="M37.1,28.62V18.602c0-1.186-0.96-2.146-2.146-2.146H19.21c-1.186,0-2.146,0.96-2.146,2.146V28.62
		c0,1.185,0.96,2.146,2.146,2.146h15.744C36.14,30.768,37.1,29.806,37.1,28.62z M18.495,28.62V18.602
		c0-0.395,0.32-0.716,0.716-0.716h15.744c0.395,0,0.716,0.32,0.716,0.716V28.62c0,0.395-0.32,0.716-0.716,0.716H19.21
		C18.816,29.336,18.495,29.016,18.495,28.62z"/>
	<path d="M14.202,22.896H8.478c-0.395,0-0.716,0.319-0.716,0.716c0,0.395,0.32,0.715,0.716,0.715h5.725
		c0.394,0,0.715-0.32,0.715-0.715C14.917,23.215,14.596,22.896,14.202,22.896z"/>
	<path d="M6.331,20.749h5.724c0.395,0,0.715-0.32,0.715-0.715s-0.319-0.716-0.715-0.716H6.331c-0.396,0-0.716,0.32-0.716,0.716
		C5.614,20.429,5.934,20.749,6.331,20.749z"/>
	<path d="M12.77,26.474H5.614c-0.395,0-0.716,0.319-0.716,0.716c0,0.395,0.32,0.716,0.716,0.716h7.156
		c0.395,0,0.716-0.32,0.716-0.716C13.486,26.793,13.165,26.474,12.77,26.474z"/>
	<path d="M32.959,20.334l-5.438,4.186c-0.258,0.198-0.616,0.198-0.873,0l-5.438-4.186c-0.314-0.241-0.763-0.183-1.004,0.131
		c-0.241,0.313-0.182,0.762,0.131,1.003l5.439,4.186c0.77,0.593,1.845,0.593,2.617,0l5.438-4.185
		c0.314-0.242,0.373-0.69,0.132-1.004C33.72,20.152,33.272,20.093,32.959,20.334L32.959,20.334L32.959,20.334z"/>
</g>
</svg>
