<?xml version="1.0" encoding="utf-8"?>
<!-- Generator: Adobe Illustrator 16.0.0, SVG Export Plug-In . SVG Version: 6.00 Build 0)  -->
<!DOCTYPE svg PUBLIC "-//W3C//DTD SVG 1.1//EN" "http://www.w3.org/Graphics/SVG/1.1/DTD/svg11.dtd">
<svg version="1.1" id="Layer_1" xmlns="http://www.w3.org/2000/svg" xmlns:xlink="http://www.w3.org/1999/xlink" x="0px" y="0px"
	 width="31.715px" height="48.246px" viewBox="0 0 31.715 48.246" enable-background="new 0 0 31.715 48.246" xml:space="preserve">
<g>
	<path d="M23.074,2.261H8.689c-3.174,0-5.734,2.611-5.734,5.734v32.256c0,3.174,2.611,5.732,5.734,5.732h14.334
		c3.174,0,5.733-2.609,5.733-5.732V7.996C28.86,4.873,26.249,2.261,23.074,2.261z M4.081,10.76h23.551v25.855H4.081V10.76z
		 M8.689,3.438h14.334c2.509,0,4.606,2.1,4.606,4.608v1.536H4.081V8.046C4.081,5.539,6.128,3.438,8.689,3.438z M23.074,44.91H8.689
		c-2.561,0-4.608-2.049-4.608-4.607v-2.561h23.551v2.561C27.683,42.861,25.634,44.91,23.074,44.91z"/>
	<path d="M19.798,40.404h-7.832c-0.358,0-0.563,0.205-0.563,0.563c0,0.359,0.256,0.563,0.563,0.563h7.884
		c0.357,0,0.563-0.256,0.563-0.563S20.156,40.404,19.798,40.404z"/>
</g>
</svg>
